<svg width="25" height="24" viewBox="0 0 25 24" fill="none" xmlns="http://www.w3.org/2000/svg">
  <path
    d="M20.4997 18.002V19.002H21.6418L21.4909 17.8698L20.4997 18.002ZM4.49966 18.002L3.50843 17.8698L3.35747 19.002H4.49966V18.002ZM19.2926 8.94933L18.3014 9.0815L19.2926 8.94933ZM5.70667 8.94933L4.71545 8.81717L5.70667 8.94933ZM1.26422 7.03906L1.05095 8.01606L3.00494 8.44259L3.21821 7.46559L1.26422 7.03906ZM5.22365 3.39342L5.86707 2.62791L4.33605 1.34107L3.69263 2.10658L5.22365 3.39342ZM21.3067 2.10658L20.6633 1.34107L19.1322 2.62791L19.7757 3.39342L21.3067 2.10658ZM21.7811 7.46559L21.9944 8.44259L23.9484 8.01606L23.7351 7.03906L21.7811 7.46559ZM18.3014 9.0815L19.5084 18.1341L21.4909 17.8698L20.2839 8.81717L18.3014 9.0815ZM20.4997 17.002H4.49966V19.002H20.4997V17.002ZM5.49088 18.1341L6.6979 9.08149L4.71545 8.81717L3.50843 17.8698L5.49088 18.1341ZM12.4997 4.00197C15.4332 4.00197 17.9137 6.17364 18.3014 9.0815L20.2839 8.81717C19.7637 4.9157 16.4356 2.00197 12.4997 2.00197V4.00197ZM12.4997 2.00197C8.56366 2.00197 5.23564 4.9157 4.71545 8.81717L6.6979 9.08149C7.08562 6.17364 9.56607 4.00197 12.4997 4.00197V2.00197ZM15.5653 17.6457C15.0102 19.1016 13.7967 20.002 12.4997 20.002V22.002C14.7809 22.002 16.6426 20.4342 17.434 18.3582L15.5653 17.6457ZM12.4997 20.002C11.2026 20.002 9.9891 19.1016 9.43405 17.6457L7.56526 18.3582C8.35674 20.4342 10.2184 22.002 12.4997 22.002V20.002ZM3.21821 7.46559C3.55132 5.93956 4.25176 4.54972 5.22365 3.39342L3.69263 2.10658C2.51748 3.50471 1.66825 5.18813 1.26422 7.03906L3.21821 7.46559ZM19.7757 3.39342C20.7475 4.54972 21.448 5.93956 21.7811 7.46559L23.7351 7.03906C23.3311 5.18813 22.4818 3.50471 21.3067 2.10658L19.7757 3.39342Z"
    fill="currentColor" />
</svg>

