<svg width="16" height="16" viewBox="0 0 16 16" fill="none" xmlns="http://www.w3.org/2000/svg">
  <path
    d="M8.36634 7.93594L8.16634 8.08594V8.33594V8.66927C8.16634 8.76132 8.09172 8.83594 7.99967 8.83594C7.90763 8.83594 7.83301 8.76132 7.83301 8.66927V8.33594C7.83301 8.07364 7.9565 7.82665 8.16634 7.66927L8.96634 7.06927L9.16634 6.91927V6.66927V6.0026V5.5026H8.66634H7.33301H6.83301V6.0026V6.66927C6.83301 6.76132 6.75839 6.83594 6.66634 6.83594C6.57429 6.83594 6.49967 6.76132 6.49967 6.66927V6.0026C6.49967 5.54237 6.87277 5.16927 7.33301 5.16927H8.66634C9.12658 5.16927 9.49967 5.54237 9.49967 6.0026V6.66927C9.49967 6.93157 9.37618 7.17856 9.16634 7.33594L8.36634 7.93594ZM7.99967 2.16927C4.77801 2.16927 2.16634 4.78094 2.16634 8.0026C2.16634 11.2243 4.77801 13.8359 7.99967 13.8359C11.2213 13.8359 13.833 11.2243 13.833 8.0026C13.833 4.78094 11.2213 2.16927 7.99967 2.16927ZM1.83301 8.0026C1.83301 4.59685 4.59392 1.83594 7.99967 1.83594C11.4054 1.83594 14.1663 4.59685 14.1663 8.0026C14.1663 11.4084 11.4054 14.1693 7.99967 14.1693C4.59392 14.1693 1.83301 11.4084 1.83301 8.0026ZM8.16634 10.6693C8.16634 10.7613 8.09172 10.8359 7.99967 10.8359C7.90763 10.8359 7.83301 10.7613 7.83301 10.6693C7.83301 10.5772 7.90763 10.5026 7.99967 10.5026C8.09172 10.5026 8.16634 10.5772 8.16634 10.6693Z"
    fill="black" stroke="currentColor" />
</svg>

