<svg width="24" height="25" viewBox="0 0 24 25" fill="none" xmlns="http://www.w3.org/2000/svg">
  <path
    d="M12 13.5625C12.5523 13.5625 13 13.1148 13 12.5625C13 12.0102 12.5523 11.5625 12 11.5625C11.4477 11.5625 11 12.0102 11 12.5625C11 13.1148 11.4477 13.5625 12 13.5625Z"
    stroke="currentColor" stroke-width="2" stroke-linecap="round" stroke-linejoin="round" />
  <path
    d="M20 13.5625C20.5523 13.5625 21 13.1148 21 12.5625C21 12.0102 20.5523 11.5625 20 11.5625C19.4477 11.5625 19 12.0102 19 12.5625C19 13.1148 19.4477 13.5625 20 13.5625Z"
    stroke="currentColor" stroke-width="2" stroke-linecap="round" stroke-linejoin="round" />
  <path
    d="M4 13.5625C4.55228 13.5625 5 13.1148 5 12.5625C5 12.0102 4.55228 11.5625 4 11.5625C3.44772 11.5625 3 12.0102 3 12.5625C3 13.1148 3.44772 13.5625 4 13.5625Z"
    stroke="currentColor" stroke-width="2" stroke-linecap="round" stroke-linejoin="round" />
</svg>
