<svg width="25" height="24" viewBox="0 0 25 24" fill="none" xmlns="http://www.w3.org/2000/svg">
<mask id="path-1-inside-1_10546_1141" fill="white">
<path fill-rule="evenodd" clip-rule="evenodd" d="M18.1568 6.34314C15.0327 3.21895 9.96734 3.21895 6.84315 6.34315C3.71895 9.46732 3.71895 14.5326 6.84315 17.6568C9.96732 20.781 15.0326 20.781 18.1568 17.6568C21.281 14.5327 21.281 9.46734 18.1568 6.34314ZM5.42893 4.92893C9.33418 1.02369 15.6658 1.02369 19.571 4.92894C23.4763 8.83418 23.4763 15.1658 19.571 19.071C15.6658 22.9763 9.33416 22.9763 5.42893 19.071C1.52369 15.1658 1.52369 8.83416 5.42893 4.92893ZM8.96477 14.1213C9.35529 13.7308 9.98846 13.7308 10.379 14.1213C11.5505 15.2929 13.45 15.2929 14.6216 14.1213C15.0121 13.7308 15.6453 13.7308 16.0358 14.1213C16.4264 14.5118 16.4264 15.145 16.0358 15.5355C14.0832 17.4882 10.9174 17.4882 8.96477 15.5355C8.57424 15.145 8.57424 14.5118 8.96477 14.1213Z"/>
<path d="M11 9.5C11 10.3284 10.4404 11 9.75 11C9.05964 11 8.5 10.3284 8.5 9.5C8.5 8.67157 9.05964 8 9.75 8C10.4404 8 11 8.67157 11 9.5Z"/>
<path d="M16.5 9.5C16.5 10.3284 15.9404 11 15.25 11C14.5596 11 14 10.3284 14 9.5C14 8.67157 14.5596 8 15.25 8C15.9404 8 16.5 8.67157 16.5 9.5Z"/>
</mask>
<path fill-rule="evenodd" clip-rule="evenodd" d="M18.1568 6.34314C15.0327 3.21895 9.96734 3.21895 6.84315 6.34315C3.71895 9.46732 3.71895 14.5326 6.84315 17.6568C9.96732 20.781 15.0326 20.781 18.1568 17.6568C21.281 14.5327 21.281 9.46734 18.1568 6.34314ZM5.42893 4.92893C9.33418 1.02369 15.6658 1.02369 19.571 4.92894C23.4763 8.83418 23.4763 15.1658 19.571 19.071C15.6658 22.9763 9.33416 22.9763 5.42893 19.071C1.52369 15.1658 1.52369 8.83416 5.42893 4.92893ZM8.96477 14.1213C9.35529 13.7308 9.98846 13.7308 10.379 14.1213C11.5505 15.2929 13.45 15.2929 14.6216 14.1213C15.0121 13.7308 15.6453 13.7308 16.0358 14.1213C16.4264 14.5118 16.4264 15.145 16.0358 15.5355C14.0832 17.4882 10.9174 17.4882 8.96477 15.5355C8.57424 15.145 8.57424 14.5118 8.96477 14.1213Z" fill="black"/>
<path d="M11 9.5C11 10.3284 10.4404 11 9.75 11C9.05964 11 8.5 10.3284 8.5 9.5C8.5 8.67157 9.05964 8 9.75 8C10.4404 8 11 8.67157 11 9.5Z" fill="black"/>
<path d="M16.5 9.5C16.5 10.3284 15.9404 11 15.25 11C14.5596 11 14 10.3284 14 9.5C14 8.67157 14.5596 8 15.25 8C15.9404 8 16.5 8.67157 16.5 9.5Z" fill="black"/>
<path d="M6.84315 6.34315L7.55025 7.05026L7.55025 7.05025L6.84315 6.34315ZM18.1568 6.34314L17.4497 7.05025L17.4497 7.05025L18.1568 6.34314ZM6.84315 17.6568L7.55025 16.9497L7.55025 16.9497L6.84315 17.6568ZM18.1568 17.6568L17.4497 16.9497L17.4497 16.9497L18.1568 17.6568ZM19.571 4.92894L18.8639 5.63604L18.8639 5.63604L19.571 4.92894ZM5.42893 4.92893L6.13604 5.63604L6.13604 5.63604L5.42893 4.92893ZM19.571 19.071L18.8639 18.3639L18.8639 18.3639L19.571 19.071ZM5.42893 19.071L6.13604 18.3639L6.13604 18.3639L5.42893 19.071ZM10.379 14.1213L11.0861 13.4142L10.379 14.1213ZM8.96477 14.1213L9.67187 14.8284H9.67188L8.96477 14.1213ZM14.6216 14.1213L15.3287 14.8284L15.3287 14.8284L14.6216 14.1213ZM16.0358 14.1213L15.3287 14.8284L15.3287 14.8284L16.0358 14.1213ZM16.0358 15.5355L15.3287 14.8284L15.3287 14.8284L16.0358 15.5355ZM8.96477 15.5355L8.25766 16.2426L8.25766 16.2426L8.96477 15.5355ZM7.55025 7.05025C10.2839 4.31658 14.7161 4.31659 17.4497 7.05025L18.8639 5.63604C15.3492 2.12132 9.65076 2.12132 6.13604 5.63604L7.55025 7.05025ZM7.55025 16.9497C4.81658 14.2161 4.81659 9.7839 7.55025 7.05026L6.13604 5.63604C2.62132 9.15074 2.62132 14.8492 6.13604 18.3639L7.55025 16.9497ZM17.4497 16.9497C14.7161 19.6834 10.2839 19.6834 7.55025 16.9497L6.13604 18.3639C9.65074 21.8787 15.3492 21.8787 18.8639 18.3639L17.4497 16.9497ZM17.4497 7.05025C20.1834 9.78392 20.1834 14.2161 17.4497 16.9497L18.8639 18.3639C22.3787 14.8492 22.3787 9.15076 18.8639 5.63604L17.4497 7.05025ZM20.2782 4.22183C15.9824 -0.073945 9.01759 -0.0739398 4.72183 4.22182L6.13604 5.63604C9.65076 2.12132 15.3492 2.12132 18.8639 5.63604L20.2782 4.22183ZM20.2781 19.7782C24.5739 15.4824 24.5739 8.51759 20.2782 4.22183L18.8639 5.63604C22.3787 9.15076 22.3787 14.8492 18.8639 18.3639L20.2781 19.7782ZM4.72182 19.7782C9.01757 24.0739 15.9824 24.0739 20.2782 19.7782L18.8639 18.3639C15.3492 21.8787 9.65074 21.8787 6.13604 18.3639L4.72182 19.7782ZM4.72183 4.22182C0.426056 8.51757 0.42606 15.4824 4.72183 19.7782L6.13604 18.3639C2.62132 14.8492 2.62132 9.15074 6.13604 5.63604L4.72183 4.22182ZM11.0861 13.4142C10.305 12.6332 9.03871 12.6332 8.25766 13.4142L9.67188 14.8284H9.67187L11.0861 13.4142ZM13.9145 13.4142C13.1335 14.1953 11.8671 14.1953 11.0861 13.4142L9.67187 14.8284C11.234 16.3905 13.7666 16.3905 15.3287 14.8284L13.9145 13.4142ZM16.7429 13.4142C15.9619 12.6332 14.6956 12.6332 13.9145 13.4142L15.3287 14.8284H15.3287L16.7429 13.4142ZM16.7429 16.2426C17.524 15.4616 17.524 14.1953 16.7429 13.4142L15.3287 14.8284V14.8284L16.7429 16.2426ZM8.25766 16.2426C10.6008 18.5858 14.3998 18.5858 16.7429 16.2426L15.3287 14.8284C13.7666 16.3905 11.234 16.3905 9.67187 14.8284L8.25766 16.2426ZM8.25766 13.4142C7.47661 14.1953 7.47661 15.4616 8.25766 16.2426L9.67187 14.8284L9.67187 14.8284L8.25766 13.4142ZM10 9.5C10 9.69246 9.93448 9.83789 9.86566 9.92048C9.79862 10.0009 9.75339 10 9.75 10V12C11.1556 12 12 10.7023 12 9.5H10ZM9.75 10C9.74661 10 9.70138 10.0009 9.63434 9.92048C9.56552 9.83789 9.5 9.69246 9.5 9.5H7.5C7.5 10.7023 8.34439 12 9.75 12V10ZM9.5 9.5C9.5 9.30754 9.56552 9.16211 9.63434 9.07952C9.70138 8.99907 9.74661 9 9.75 9V7C8.34439 7 7.5 8.29775 7.5 9.5H9.5ZM9.75 9C9.75339 9 9.79862 8.99907 9.86566 9.07952C9.93448 9.16211 10 9.30754 10 9.5H12C12 8.29775 11.1556 7 9.75 7V9ZM15.5 9.5C15.5 9.69246 15.4345 9.83789 15.3657 9.92048C15.2986 10.0009 15.2534 10 15.25 10V12C16.6556 12 17.5 10.7023 17.5 9.5H15.5ZM15.25 10C15.2466 10 15.2014 10.0009 15.1343 9.92048C15.0655 9.83789 15 9.69246 15 9.5H13C13 10.7023 13.8444 12 15.25 12V10ZM15 9.5C15 9.30754 15.0655 9.16211 15.1343 9.07952C15.2014 8.99907 15.2466 9 15.25 9V7C13.8444 7 13 8.29775 13 9.5H15ZM15.25 9C15.2534 9 15.2986 8.99907 15.3657 9.07952C15.4345 9.16211 15.5 9.30754 15.5 9.5H17.5C17.5 8.29775 16.6556 7 15.25 7V9Z" fill="#12100F" mask="url(#path-1-inside-1_10546_1141)"/>
</svg>
