<svg width="86" height="20" viewBox="0 0 86 20" fill="none" xmlns="http://www.w3.org/2000/svg">
<path d="M83.0044 14.2337C82.2076 15.7371 81.0388 16.6602 80.1357 16.6602C79.445 16.6602 78.9138 16.0799 78.9138 14.7084C78.9138 12.572 79.9763 9.24873 80.481 7.50796H72.5653L71.795 10.1719C70.6262 14.26 68.7934 16.6602 65.8981 16.6602C65.4731 16.6602 64.9684 16.5811 64.7028 16.4228C66.8809 14.8667 69.0856 12.3874 69.0856 9.93448C69.0856 7.90359 67.5981 7.11233 66.2434 7.11233C61.9934 7.11233 58.9652 12.6511 60.1074 16.1327C59.4168 16.3701 58.7793 16.6602 58.009 16.6602C57.2387 16.6602 56.8137 16.1327 56.973 15.4206C57.159 14.5765 58.2215 11.7544 58.2215 10.2246C58.2215 8.35197 56.7605 7.08595 54.5558 7.08595C54.0511 7.08595 53.4933 7.21783 52.9355 7.42883L54.3433 2.49665H51.5808L48.287 13.9963C47.7823 15.7898 46.2683 16.6602 45.0198 16.6602C43.4526 16.6602 42.8683 15.4206 43.2401 14.1809L44.4089 10.1455H47.4105L48.1808 7.50796H45.1526L46.587 2.49665H43.8245L40.2385 14.9985C39.8932 16.1854 39.0698 16.6602 38.3526 16.6602C37.2104 16.6602 36.8651 15.7371 37.1042 14.893L39.2292 7.50796C38.4854 7.27058 37.4229 7.08595 36.5995 7.08595C31.8447 7.08595 27.3557 11.2796 27.3557 15.4206C27.3557 15.4242 27.3557 15.4282 27.3557 15.4319C26.0838 16.2416 24.6083 16.6602 23.3181 16.6602C22.415 16.6602 21.9103 16.5811 21.5119 16.3701C23.7431 14.9194 26.0541 12.4929 26.0541 9.93448C26.0541 7.90359 24.5666 7.11233 23.2119 7.11233C18.9884 7.11233 16.04 12.5193 17.0228 15.9744C16.0931 16.4492 15.2431 16.6866 14.3134 16.6866C12.8524 16.6866 11.4712 16.0799 10.4087 14.8667L11.7634 10.1455C15.0571 9.88173 19.4134 7.19145 19.4134 3.89454C19.4134 1.83726 18.0322 0.703125 16.279 0.703125C13.1712 0.703125 10.8337 3.68354 9.74461 7.50796C7.72585 7.27058 6.63678 5.1078 8.23054 2.49665H5.36177C3.58207 6.42657 5.38833 9.1696 9.00085 10.1455L8.12429 13.1786C6.79615 12.361 5.76021 12.0445 4.53833 12.0445C-1.33202 12.0445 -1.57109 19.2977 4.19301 19.2977C5.86646 19.2977 7.88522 18.4273 8.94773 17.2668C10.4618 18.5856 11.9493 19.2977 13.8618 19.2977C15.3228 19.2977 16.8103 18.8757 18.3509 17.979C19.3869 18.823 20.7416 19.2977 22.6806 19.2977C24.4027 19.2977 26.125 18.9427 27.8986 17.7052C28.424 18.6233 29.3827 19.2977 30.9947 19.2977C32.3494 19.2977 33.8369 18.7175 34.9526 17.4778C35.776 18.6647 37.0245 19.2977 38.2995 19.2977C39.362 19.2977 40.451 18.8757 41.3807 18.0317C42.1245 18.823 43.4792 19.2977 44.9667 19.2977C47.2777 19.2977 49.8542 18.0845 50.7574 14.9458L51.7933 11.306C52.1121 10.2246 52.9621 9.72348 53.9449 9.72348C54.7949 9.72348 55.2465 10.1455 55.2465 10.884C55.2465 12.2555 54.0246 15.5261 54.0246 16.6866C54.0246 18.6383 55.3527 19.2977 57.1324 19.2977C58.248 19.2977 59.1246 19.2713 61.6215 18.1636C62.6309 18.9021 64.1981 19.2977 65.9778 19.2977C69.9356 19.2977 72.6981 16.6074 74.5841 10.1455H76.9747C76.5232 11.6489 76.2044 13.3105 76.2044 14.7875C76.2044 17.2668 77.1075 19.2977 79.8966 19.2977C82.0748 19.2977 85.1029 17.1086 85.8732 14.2337H83.0044ZM15.8806 3.34066C16.3853 3.34066 16.7306 3.63078 16.7306 4.05279C16.7306 5.45068 14.2337 7.2442 12.5071 7.50796C13.304 4.76492 14.9243 3.34066 15.8806 3.34066ZM4.32582 16.6602C2.068 16.6602 2.25394 14.4447 4.51176 14.4447C5.49458 14.4447 6.2649 14.7612 7.19459 15.5524C6.55709 16.2646 5.33521 16.6602 4.32582 16.6602ZM22.415 9.72348C22.9728 9.72348 23.3181 10.0664 23.3181 10.6202C23.3181 12.0973 21.3791 13.9172 19.7322 14.8403C19.1478 13.1523 20.8212 9.72348 22.415 9.72348ZM31.4729 16.6602C30.6494 16.6602 30.251 16.0799 30.251 15.2359C30.251 13.205 32.4557 9.77623 35.8291 9.72348C34.6073 13.9699 33.7838 16.6602 31.4729 16.6602ZM65.4465 9.72348C66.0043 9.72348 66.3497 10.0664 66.3497 10.6202C66.3497 12.0973 64.3309 13.9963 62.7903 14.9458C62.1262 13.3633 63.8262 9.72348 65.4465 9.72348Z" fill="#12100F"/>
</svg>
