<svg width="61" height="61" viewBox="0 0 61 61" fill="none" xmlns="http://www.w3.org/2000/svg">
<path d="M0.669922 4.98437C0.669922 2.77524 2.46078 0.984375 4.66992 0.984375H56.6699C58.8791 0.984375 60.6699 2.77524 60.6699 4.98438V56.9844C60.6699 59.1935 58.8791 60.9844 56.6699 60.9844H4.66992C2.46078 60.9844 0.669922 59.1935 0.669922 56.9844V4.98437Z" fill="#F5F1ED"/>
<path d="M24.6815 35.2995L25.3056 35.7155H25.3056L24.6815 35.2995ZM27.1451 31.6041L26.5211 31.1881L26.5211 31.1881L27.1451 31.6041ZM27.6162 31.5178L28.0521 30.9075L27.6162 31.5178ZM29.3992 32.7914L28.9632 33.4017L29.3992 32.7914ZM29.8634 32.7149L30.4721 33.1531V33.1531L29.8634 32.7149ZM32.378 29.2225L32.9866 29.6607L32.378 29.2225ZM32.9319 29.2418L33.5696 28.847L32.9319 29.2418ZM36.6878 35.3089L37.3255 34.9142V34.9142L36.6878 35.3089ZM25.3056 35.7155L27.7691 32.0202L26.5211 31.1881L24.0575 34.8834L25.3056 35.7155ZM27.1803 32.1281L28.9632 33.4017L29.8351 32.1811L28.0521 30.9075L27.1803 32.1281ZM30.4721 33.1531L32.9866 29.6607L31.7693 28.7842L29.2548 32.2767L30.4721 33.1531ZM32.2942 29.6365L36.0501 35.7037L37.3255 34.9142L33.5696 28.847L32.2942 29.6365ZM24.9589 36.5677H36.4043V35.0677H24.9589V36.5677ZM36.0501 35.7037C35.8782 35.4261 36.0779 35.0677 36.4043 35.0677V36.5677C37.2531 36.5677 37.7722 35.6359 37.3255 34.9142L36.0501 35.7037ZM32.9866 29.6607C32.8131 29.9016 32.4505 29.889 32.2942 29.6365L33.5696 28.847C33.1633 28.1906 32.2204 28.1578 31.7693 28.7842L32.9866 29.6607ZM28.9632 33.4017C29.4488 33.7485 30.1234 33.6374 30.4721 33.1531L29.2548 32.2767C29.3889 32.0904 29.6483 32.0477 29.8351 32.1811L28.9632 33.4017ZM27.7691 32.0202C27.6386 32.216 27.3718 32.2649 27.1803 32.1281L28.0521 30.9075C27.5541 30.5518 26.8605 30.6789 26.5211 31.1881L27.7691 32.0202ZM24.0575 34.8834C23.5776 35.6034 24.0936 36.5677 24.9589 36.5677V35.0677C25.2917 35.0677 25.4902 35.4386 25.3056 35.7155L24.0575 34.8834ZM29.7527 27.3177C29.7527 27.916 29.2677 28.401 28.6694 28.401V29.901C30.0961 29.901 31.2527 28.7444 31.2527 27.3177H29.7527ZM28.6694 28.401C28.0711 28.401 27.5861 27.916 27.5861 27.3177H26.0861C26.0861 28.7444 27.2427 29.901 28.6694 29.901V28.401ZM27.5861 27.3177C27.5861 26.7194 28.0711 26.2344 28.6694 26.2344V24.7344C27.2427 24.7344 26.0861 25.891 26.0861 27.3177H27.5861ZM28.6694 26.2344C29.2677 26.2344 29.7527 26.7194 29.7527 27.3177H31.2527C31.2527 25.891 30.0961 24.7344 28.6694 24.7344V26.2344Z" fill="#12100F"/>
</svg>
