<svg width="40" height="40" viewBox="0 0 40 40" fill="none" xmlns="http://www.w3.org/2000/svg">
<path d="M0 2C0 0.895431 0.895431 0 2 0H38C39.1046 0 40 0.895431 40 2V38C40 39.1046 39.1046 40 38 40H2C0.895431 40 0 39.1046 0 38V2Z" fill="#453EE1"/>
<path d="M15.1233 10.6754C15.2197 10.4732 15.3724 10.3022 15.5637 10.1826C15.755 10.063 15.9769 9.99962 16.2034 10H21.3059C21.7281 10 22.1148 10.2149 22.3282 10.5658L33.1643 28.2452C33.3865 28.6049 33.3865 29.0523 33.1777 29.4119C33.0723 29.5909 32.9213 29.7394 32.7395 29.8425C32.5577 29.9456 32.3517 29.9998 32.1419 29.9996H26.8083C26.4928 30.0009 26.1895 29.8797 25.964 29.6618C23.9807 27.7964 21.4837 26.5499 18.7858 26.0786C15.7634 25.6005 12.2032 26.254 8.69634 29.6618C8.49732 29.8537 8.23719 29.9716 7.9601 29.9955C7.68302 30.0194 7.40606 29.948 7.17626 29.7934C6.94704 29.6398 6.78084 29.4106 6.70752 29.1468C6.63421 28.8832 6.65857 28.6024 6.77624 28.3549L15.1189 10.6754H15.1233ZM18.2791 12.3201L27.4929 27.6751H30.0442L20.6303 12.3245H18.2791V12.3201ZM23.1193 24.9909L16.3323 13.671L10.9098 25.1532C13.4344 23.8113 16.3386 23.3331 19.168 23.7936C20.5903 24.0129 21.9237 24.4514 23.1193 24.9909Z" fill="white"/>
</svg>
