<svg width="40" height="40" viewBox="0 0 40 40" fill="none" xmlns="http://www.w3.org/2000/svg">
<path d="M0 2C0 0.895431 0.895431 0 2 0H38C39.1046 0 40 0.895431 40 2V38C40 39.1046 39.1046 40 38 40H2C0.895431 40 0 39.1046 0 38V2Z" fill="#F78116"/>
<path d="M15.0107 26.0645H11.6543V29.3057H8.29688V17.6758H11.6543V14.4346H15.0107V26.0645ZM18.3682 14.4346H21.7256V17.6758H25.083V14.4346H28.4395V10.8057H31.7969V22.4365H28.4404V26.0645H25.083V29.3057H21.7256V26.0645H18.3682V22.4365H15.0117V10.8057H18.3682V14.4346Z" fill="#E3DED3"/>
</svg>
