<svg width="40" height="40" viewBox="0 0 40 40" fill="none" xmlns="http://www.w3.org/2000/svg">
<g clip-path="url(#clip0_194_21498)">
<path d="M0 2C0 0.895431 0.895431 0 2 0H38C39.1046 0 40 0.895431 40 2V38C40 39.1046 39.1046 40 38 40H2C0.895431 40 0 39.1046 0 38V2Z" fill="#F5F1ED"/>
<g clip-path="url(#clip1_194_21498)">
<path d="M0.19356 31.5465H22.8944C23.5856 31.5465 24.0058 30.838 23.6373 30.294L0.936497 -3.22573C0.467079 -3.91886 -0.68457 -3.60946 -0.68457 -2.7902V30.7295C-0.68457 31.1807 -0.291422 31.5465 0.19356 31.5465Z" fill="#FFBBE4"/>
<path fill-rule="evenodd" clip-rule="evenodd" d="M0.193752 -2.78987V30.7299H22.8946L0.193752 -2.78987ZM-1.5625 -2.78987C-1.5625 -4.4284 0.740805 -5.0472 1.67964 -3.66092L24.3804 29.8589C25.1173 30.9469 24.2769 32.3639 22.8946 32.3639H0.193752C-0.7762 32.3639 -1.5625 31.6323 -1.5625 30.7299V-2.78987Z" fill="#FFBBE4"/>
<path d="M39.9183 31.3144L39.8802 22.5057C39.88 22.4712 39.837 22.4524 39.8085 22.4741L28.065 31.4237C28.0331 31.448 28.0515 31.4962 28.0927 31.4962L39.6984 31.5194C39.8201 31.5197 39.9187 31.4276 39.9183 31.3144Z" fill="#FF8AA1"/>
<path fill-rule="evenodd" clip-rule="evenodd" d="M30.4215 30.6834L39.0374 30.7008L39.0091 24.139L30.4215 30.6834ZM28.0908 32.3128C27.2256 32.311 26.8392 31.3015 27.5085 30.7914L39.252 21.8418C39.8526 21.3841 40.7551 21.7797 40.7582 22.502L40.7964 31.3107C40.7989 31.8771 40.3053 32.3372 39.6964 32.3361L28.0908 32.3128Z" fill="#FF8AA1"/>
<path d="M5.26228 -3.94726C5.17601 -3.94726 5.12345 -3.85891 5.16928 -3.7909L26.4397 27.7774C26.5096 27.8812 26.6612 27.9047 26.7636 27.8279L39.7306 18.0871C39.8339 18.0096 39.8939 17.8927 39.8939 17.7692V-1.9048C39.8939 -3.03282 38.9109 -3.94727 37.6986 -3.94727L5.26228 -3.94726Z" fill="#5A7BBB"/>
<path fill-rule="evenodd" clip-rule="evenodd" d="M5.26194 -4.76416C4.48543 -4.76416 4.01247 -3.96901 4.42491 -3.35688L25.6954 28.2115C26.0448 28.7302 26.8029 28.8482 27.3149 28.4637L40.2819 18.7229C40.5915 18.4902 40.7716 18.1397 40.7716 17.7693V-1.90472C40.7716 -3.48394 39.3955 -4.76416 37.6981 -4.76416L5.26194 -4.76416ZM6.65045 -3.13019L37.6981 -3.1302C38.4257 -3.1302 39.0153 -2.58154 39.0153 -1.90472V17.5742L26.7891 26.7585L6.65045 -3.13019Z" fill="#5A7BBB"/>
<path d="M-0.68457 35.8074C-0.68457 35.3563 -0.291422 34.9905 0.193549 34.9905H25.4353H39.0416C39.5265 34.9905 39.9197 35.3563 39.9197 35.8074V42.7518C39.9197 43.203 39.5265 43.5688 39.0416 43.5688H0.193549C-0.291422 43.5688 -0.68457 43.203 -0.68457 42.7518V35.8074Z" fill="#484843"/>
<path fill-rule="evenodd" clip-rule="evenodd" d="M-1.5625 35.8079C-1.5625 34.9054 -0.776201 34.1738 0.193747 34.1738H39.0417C40.0117 34.1738 40.7979 34.9054 40.7979 35.8079V42.7521C40.7979 43.6545 40.0117 44.3861 39.0417 44.3861H0.193747C-0.776201 44.3861 -1.5625 43.6545 -1.5625 42.7521V35.8079ZM0.193747 35.8079V42.7521H39.0417V35.8079H0.193747Z" fill="#484843"/>
</g>
</g>
<defs>
<clipPath id="clip0_194_21498">
<path d="M0 2C0 0.895431 0.895431 0 2 0H38C39.1046 0 40 0.895431 40 2V38C40 39.1046 39.1046 40 38 40H2C0.895431 40 0 39.1046 0 38V2Z" fill="white"/>
</clipPath>
<clipPath id="clip1_194_21498">
<rect width="42.425" height="49.1502" fill="white" transform="translate(-1.5625 -4.76416)"/>
</clipPath>
</defs>
</svg>
