<svg width="40" height="40" viewBox="0 0 40 40" fill="none" xmlns="http://www.w3.org/2000/svg">
<path d="M0 2C0 0.895431 0.895431 0 2 0H38C39.1046 0 40 0.895431 40 2V38C40 39.1046 39.1046 40 38 40H2C0.895431 40 0 39.1046 0 38V2Z" fill="#111420"/>
<path fill-rule="evenodd" clip-rule="evenodd" d="M27.7019 11.5H23.0169L23.8037 8.43333C23.9912 7.71 23.4678 7 22.7486 7H15.4609C13.4021 7 11.5977 8.44333 11.0636 10.5167L8.14947 21.8617C7.41564 24.705 9.47688 27.4992 12.298 27.4992H16.9831L16.1963 30.5667C16.0088 31.2892 16.5306 32 17.2514 32H24.5391C26.5979 32 28.4032 30.5567 28.9364 28.4833L31.8505 17.1383C32.5844 14.295 30.5231 11.5 27.7019 11.5ZM12.8427 11.0383C13.1615 9.79333 14.2451 8.9275 15.4788 8.9275L15.4821 8.93083H21.7579L19.7684 16.6633C19.4847 17.77 18.5209 18.5417 17.4202 18.5417H10.9168L12.8427 11.0383ZM12.3144 25.5742C10.6999 25.5742 9.52254 23.975 9.94001 22.3475C10.2254 21.2392 11.1892 20.4683 12.2883 20.4683H18.7949L17.4821 25.5725H12.3168L12.3144 25.5742ZM27.154 27.965C26.8352 29.21 25.7516 30.0758 24.5179 30.0758H18.2453L20.2324 22.3433C20.5178 21.2367 21.4815 20.465 22.5806 20.465L29.084 20.4617L27.1557 27.965H27.154ZM30.0616 16.6633C29.7771 17.77 28.8125 18.5417 27.7134 18.5417H21.2092L22.5219 13.4375H27.6848C29.2993 13.4375 30.4775 15.0375 30.0592 16.665L30.0616 16.6633Z" fill="white"/>
</svg>
