<svg width="40" height="40" viewBox="0 0 40 40" fill="none" xmlns="http://www.w3.org/2000/svg">
<path d="M0 2C0 0.895431 0.895431 0 2 0H38C39.1046 0 40 0.895431 40 2V38C40 39.1046 39.1046 40 38 40H2C0.895431 40 0 39.1046 0 38V2Z" fill="#030018"/>
<path d="M20.4736 19.9993L21.7532 21.3414L23.0327 19.9993L21.7532 18.6572L20.4736 19.9993Z" fill="#FC5101"/>
<path d="M21.1328 14.6456C22.0708 13.6595 22.3209 12.2693 21.7918 11.0186C21.4358 10.1865 20.8009 9.57075 20.0072 9.24365C19.2183 9.56594 18.5833 10.1865 18.2226 11.0186C17.6838 12.2693 17.934 13.6643 18.8816 14.6456L20.0072 15.8289L21.1328 14.6456Z" fill="#FC5101"/>
<path d="M18.7178 21.8372L19.9973 23.1793L21.2865 21.8372L19.9973 20.4951L18.7178 21.8372Z" fill="#FC5101"/>
<path d="M22.4122 10.7494C23.0568 12.2502 22.7538 13.929 21.6234 15.1123L20.4785 16.3197L21.758 17.6618L24.625 14.6554C25.5678 13.6693 25.8227 12.2695 25.284 11.0188C24.8174 9.92687 23.8698 9.20051 22.7297 9.02734H21.0317C21.6282 9.44584 22.1092 10.0327 22.4171 10.7494H22.4122Z" fill="#FC5101"/>
<path d="M25.8997 10.7542C26.549 12.2646 26.2412 13.9434 25.1108 15.1315L22.2246 18.1572L23.5041 19.4992L27.8671 14.9247C28.8532 13.8905 29.1177 12.4281 28.5501 11.1149C28.0595 9.9749 27.0589 9.20525 25.8708 9.02246H24.5095C25.1108 9.44095 25.5918 10.0278 25.8997 10.7494V10.7542Z" fill="#FC5101"/>
<path d="M14.7255 11.0281C14.1867 12.2884 14.4369 13.6785 15.3845 14.6646L18.2514 17.6711L19.531 16.329L18.3861 15.1216C17.2557 13.9335 16.9527 12.2595 17.5972 10.7587C17.9051 10.0468 18.3861 9.45993 18.9826 9.03662H17.2846C16.1542 9.20979 15.2017 9.94576 14.7303 11.0281H14.7255Z" fill="#FC5101"/>
<path d="M18.2516 18.6572L16.9624 19.9993L18.2516 21.3414L19.5311 19.9993L18.2516 18.6572Z" fill="#FC5101"/>
<path d="M21.2865 18.1619L19.9973 16.8198L18.7178 18.1619L19.9973 19.504L21.2865 18.1619Z" fill="#FC5101"/>
<path d="M25.2698 28.9706C25.8086 27.7103 25.5584 26.3202 24.6108 25.3341L21.7439 22.3276L20.4644 23.6697L21.6092 24.8819C22.7396 26.07 23.0427 27.744 22.3981 29.2448C22.0902 29.9567 21.6092 30.5436 21.0127 30.9669H22.7108C23.8412 30.7937 24.7936 30.0578 25.265 28.9754L25.2698 28.9706Z" fill="#FC5101"/>
<path d="M28.555 28.8794C29.1226 27.5662 28.8532 26.1039 27.8719 25.0697L23.509 20.4951L22.2295 21.8372L25.1157 24.8628C26.2461 26.051 26.5491 27.7298 25.9045 29.2402C25.5967 29.9617 25.1157 30.5486 24.5144 30.9671H25.8757C27.0638 30.7843 28.0644 30.0243 28.555 28.8746V28.8794Z" fill="#FC5101"/>
<path d="M18.8721 25.3532C17.9341 26.3394 17.684 27.7295 18.2131 28.9802C18.5691 29.8124 19.204 30.4281 19.9977 30.7552C20.7866 30.4329 21.4264 29.8124 21.7823 28.9802C22.3211 27.7295 22.0709 26.3345 21.1233 25.3532L19.9977 24.1699L18.8721 25.3532Z" fill="#FC5101"/>
<path d="M14.105 29.2451C13.4557 27.7347 13.7635 26.0559 14.8939 24.8677L17.7801 21.8421L16.5006 20.5L12.1376 25.0746C11.1515 26.1088 10.887 27.5711 11.4546 28.8843C11.9452 30.0243 12.9458 30.794 14.1339 30.9768H15.4952C14.8939 30.5583 14.4129 29.9714 14.105 29.2499V29.2451Z" fill="#FC5101"/>
<path d="M11.4451 11.1199C10.8775 12.4331 11.1469 13.8954 12.1282 14.9296L16.4911 19.5042L17.7707 18.1621L14.8845 15.1365C13.7541 13.9483 13.451 12.2695 14.0956 10.7591C14.4035 10.0376 14.8845 9.45072 15.4858 9.03223H14.1245C12.9363 9.21502 11.9358 9.97504 11.4451 11.1247V11.1199Z" fill="#FC5101"/>
<path d="M17.5927 29.2497C16.9481 27.7489 17.2511 26.0701 18.3816 24.8868L19.5264 23.6746L18.2469 22.3325L15.3799 25.3389C14.4371 26.325 14.1822 27.7248 14.7209 28.9755C15.1875 30.0674 16.1352 30.7938 17.2752 30.967H18.9732C18.3767 30.5485 17.8957 29.9616 17.5879 29.2449L17.5927 29.2497Z" fill="#FC5101"/>
</svg>
