<svg width="40" height="40" viewBox="0 0 40 40" fill="none" xmlns="http://www.w3.org/2000/svg">
<path d="M0 2C0 0.895431 0.895431 0 2 0H38C39.1046 0 40 0.895431 40 2V38C40 39.1046 39.1046 40 38 40H2C0.895431 40 0 39.1046 0 38V2Z" fill="#FF6702"/>
<path d="M31.5668 15.4644C30.8368 14.5338 29.7316 14 28.5339 14H10.9666C9.76893 14 8.66291 14.5338 7.93377 15.4644C7.21227 16.3843 6.97459 17.5515 7.28017 18.6656C7.90236 20.9286 9.16117 22.9783 10.9216 24.5938C13.3968 26.8652 16.5731 28 19.7494 28C22.9257 28 26.1021 26.8643 28.5772 24.5938C30.3377 22.9791 31.5965 20.9286 32.2187 18.6656C32.526 17.5515 32.2875 16.3843 31.5668 15.4644ZM11.2357 20.6779C10.6857 19.8378 10.2663 18.9204 9.99981 17.9508C9.89456 17.5664 10.0601 17.2775 10.1687 17.1397C10.3614 16.894 10.6526 16.7537 10.9675 16.7537H15.5664C15.8567 16.7537 16.0019 17.0965 15.7965 17.2974L12.239 20.7767C11.9479 21.0606 11.4572 21.0166 11.2357 20.6779ZM18.3429 24.3896C18.3429 24.7914 17.9644 25.1002 17.5629 25.0139C16.4314 24.7698 15.3355 24.3348 14.3297 23.7088C13.9817 23.4922 13.9358 23.0115 14.2278 22.7268L17.7869 19.2442C17.9924 19.0433 18.3429 19.1852 18.3429 19.4692V24.3896ZM19.7503 18.1633C18.8361 18.1633 18.0951 17.4386 18.0951 16.5445C18.0951 15.6504 18.8361 14.9256 19.7503 14.9256C20.6645 14.9256 21.4055 15.6504 21.4055 16.5445C21.4055 17.4386 20.6645 18.1633 19.7503 18.1633ZM25.1717 23.7088C24.165 24.3356 23.0692 24.7706 21.9377 25.0147C21.5362 25.101 21.1576 24.7931 21.1576 24.3904V19.47C21.1576 19.1861 21.5082 19.0441 21.7136 19.245L25.2736 22.7268C25.5648 23.0115 25.5189 23.4922 25.1717 23.7088ZM29.5008 17.9508C29.2342 18.9196 28.8149 19.8369 28.2649 20.6779C28.0433 21.0166 27.5527 21.0606 27.2616 20.7767L23.7041 17.2974C23.4987 17.0965 23.6439 16.7537 23.9342 16.7537H28.5331C28.848 16.7537 29.1392 16.8948 29.3318 17.1397C29.4405 17.2783 29.606 17.5672 29.5008 17.9508Z" fill="white"/>
</svg>
