<svg width="32" height="32" viewBox="0 0 32 32" fill="none" xmlns="http://www.w3.org/2000/svg">
  <path
    d="M22.5 19.6895H23C25.2091 19.6895 27 21.4803 27 23.6895V25H6L8.5 21.5M22.5 19.6895L25 14M22.5 19.6895H20"
    stroke="currentColor"
    strokeWidth="2"
    strokeLinecap="round"
    strokeLinejoin="round"
  />
  <path
    d="M13.0312 22L21 19.4V16.5C21 12.3579 17.6421 9 13.5 9H12.8824C9.08133 9 6 12.0813 6 15.8824C6 19.261 8.73896 22 12.1176 22H13.0312Z"
    stroke="currentColor"
    strokeWidth="2"
    strokeLinejoin="round"
  />
  <circle
    cx="25.5"
    cy="12.5"
    r="1.5"
    stroke="currentColor"
    strokeWidth="2"
    strokeLinejoin="round"
  />
  <path
    d="M14 16.501C14 16.7482 13.9483 16.9929 13.8478 17.2213C13.7472 17.4497 13.5999 17.6572 13.4142 17.832C13.2285 18.0068 13.008 18.1454 12.7654 18.24C12.5227 18.3346 12.2626 18.3833 12 18.3833C11.7374 18.3833 11.4773 18.3346 11.2346 18.24C10.992 18.1454 10.7715 18.0068 10.5858 17.832C10.4001 17.6572 10.2528 17.4497 10.1522 17.2213C10.0517 16.9929 10 16.7482 10 16.501C10 16.0684 10.0905 15.64 10.2664 15.2404C10.4423 14.8407 10.7001 14.4776 11.0251 14.1717C11.3501 13.8658 11.736 13.6232 12.1606 13.4576C12.5852 13.2921 13.0404 13.2069 13.5 13.2069C13.9596 13.2069 14.4148 13.2921 14.8394 13.4576C15.264 13.6232 15.6499 13.8658 15.9749 14.1717C16.2999 14.4776 16.5577 14.8407 16.7336 15.2404C16.9095 15.64 17 16.0684 17 16.501L16.9994 20.0011"
    stroke="currentColor"
    strokeWidth="2"
    strokeLinecap="round"
  />
</svg>
