<svg width="32" height="32" viewBox="0 0 32 32" fill="none" xmlns="http://www.w3.org/2000/svg">
<path d="M17.2837 25.9652L16.0127 27.2796M17.2837 25.9652L18.9065 25.5303C19.4189 25.393 19.9648 25.4649 20.4241 25.7301L20.8588 25.9811M17.2837 25.9652L16.3119 24.1007M16.3119 24.1007L12.2636 16.9223L3.04676 11.6009L4.49868 10.5147C5.23751 9.96193 6.25532 9.97373 6.98113 10.5435L10.3484 13.1866C11.8274 14.3475 13.9916 13.9294 14.9316 12.3011V12.3011C15.7848 10.8235 15.2785 8.93397 13.8008 8.08083L9.94776 5.85628C9.31146 5.48892 9.09345 4.67529 9.46082 4.039V4.039C9.82818 3.40271 10.6418 3.1847 11.2781 3.55206L26.8224 12.5266C27.7141 13.0414 27.5101 14.383 26.5057 14.6095L22.465 15.5208C21.9612 15.6345 21.5278 15.9535 21.2695 16.4007V16.4007C20.7585 17.2858 21.0618 18.4175 21.9469 18.9285L24.4801 20.3911C25.1653 20.7867 25.4001 21.6629 25.0045 22.3482L24.6122 23.0276L25.3208 24.4608L21.8645 22.4653L20.0472 22.9523L17.743 21.6219L16.3119 24.1007Z" stroke="#12100F" stroke-width="2" stroke-linecap="round" stroke-linejoin="round"/>
<path d="M13.404 7.85163L18 10.5" stroke="#12100F" stroke-width="2" stroke-linecap="round" stroke-linejoin="round"/>
</svg>
