<svg width="32" height="32" viewBox="0 0 32 32" fill="none" xmlns="http://www.w3.org/2000/svg">
<path d="M12.4286 15.7381L15.1775 17.0043C16.4952 17.6112 17.3393 18.9293 17.3393 20.38V20.38M12.4286 20.119H9.30357L6.96986 18.8457C5.03086 17.7877 4.27166 15.3885 5.24906 13.4076V13.4076C6.25555 11.3678 8.725 10.5301 10.7649 11.5364L17.7857 15H21.3571V13.3333L14.9731 9.9085C14.3159 9.55589 14.0847 8.72679 14.4647 8.08498V8.08498C14.8235 7.47902 15.5969 7.26468 16.2164 7.5995L27.2638 13.57C28.0254 13.9816 28.5 14.7776 28.5 15.6433V15.6433C28.5 16.9449 27.4449 18 26.1433 18H22.1515C21.057 18 19.9927 18.3591 19.122 19.0223L17.3393 20.38M12.4286 20.119H13.5V22.7463M12.4286 20.119L7.07143 24.1905L8.07178 25.0014C8.79334 25.5864 9.82265 25.5975 10.5567 25.0284L13.5 22.7463M13.5 22.7463V25H24.0357V24C24.0357 22.8954 23.1403 22 22.0357 22H17.3393V20.38" stroke="currentColor" stroke-width="2" stroke-linejoin="round"/>
</svg>
