<svg width="32" height="32" viewBox="0 0 32 32" fill="none" xmlns="http://www.w3.org/2000/svg">
<path d="M15.5 21H11C9.89543 21 9 20.1046 9 19V19C9 17.8954 9.89543 17 11 17H15" stroke="currentColor" stroke-width="2" stroke-linejoin="round"/>
<path d="M22.501 17H26.501C28.1578 17 29.501 15.6568 29.501 14V12.5C29.501 11.6715 28.8294 11 28.001 11H27.501L26.6301 9.47586C25.9127 8.22055 24.6871 7.3372 23.2694 7.05365L23.001 6.99996L21.415 5.41396C20.155 4.15403 18.001 5.04658 18.001 6.82839V11M19.001 16V21H20.501V22C20.501 22.5522 20.0533 23 19.501 23H18.0625C17.1448 23 16.3448 22.3754 16.1222 21.485L14.3116 14.2425C14.1538 13.6114 14.6312 13 15.2817 13H17" stroke="currentColor" stroke-width="2" stroke-linejoin="round"/>
<path d="M18 8H12.5C7.80558 8 4 11.8056 4 16.5V18.7736C4 22.2123 6.78766 25 10.2264 25H10.5C12.9853 25 15 22.9853 15 20.5V20.5" stroke="currentColor" stroke-width="2" stroke-linejoin="round"/>
<path d="M19 21H25C26.1046 21 27 20.1046 27 19V19C27 17.8954 26.1046 17 25 17H19" stroke="currentColor" stroke-width="2" stroke-linejoin="round"/>
<path d="M27 17H18" stroke="currentColor" stroke-width="2" stroke-linejoin="round"/>
<path d="M29.5 14H24" stroke="currentColor" stroke-width="2" stroke-linecap="round" stroke-linejoin="round"/>
</svg>
