<svg width="33" height="32" viewBox="0 0 33 32" fill="none" xmlns="http://www.w3.org/2000/svg">
<g id="Logos">
<path d="M0.296875 2C0.296875 0.895431 1.19231 0 2.29688 0H30.2969C31.4014 0 32.2969 0.895431 32.2969 2V30C32.2969 31.1046 31.4014 32 30.2969 32H2.29688C1.19231 32 0.296875 31.1046 0.296875 30V2Z" fill="url(#paint0_radial_4690_69814)"/>
<path id="Vector" d="M22.5671 21.431C22.8235 21.135 23.0588 20.8213 23.2712 20.4923L18.7773 15.9993L23.2712 11.5059C23.0587 11.1771 22.8234 10.8636 22.5671 10.5677L17.1348 15.9993L22.5671 21.431ZM23.862 12.5908C24.0383 12.9813 24.1837 13.3851 24.2969 13.7983L22.0956 15.9993L24.2969 18.2003C24.1837 18.6136 24.0383 19.0173 23.862 19.4078L20.4531 15.9993L23.862 12.5908ZM16.2966 16.8387L21.7289 22.2704C21.4332 22.527 21.1197 22.7623 20.7906 22.9745L16.2966 18.481L11.8031 22.9745C11.4741 22.7623 11.1605 22.527 10.8648 22.2704L16.2966 16.8387ZM12.8878 23.5657L16.2971 20.1567L19.706 23.5652C19.3154 23.7414 18.9116 23.8867 18.4983 24L16.2971 21.799L14.0954 24C13.6822 23.8861 13.2784 23.7402 12.8878 23.5638V23.5657ZM16.2966 15.1613L10.8648 9.72962C11.1606 9.47327 11.4742 9.23815 11.8031 9.02596L16.2966 13.519L20.7906 9.02596C21.1195 9.23815 21.4331 9.47327 21.7289 9.72962L16.2966 15.1613ZM8.73174 19.4078C8.55541 19.0173 8.41001 18.6136 8.29688 18.2003L10.4981 15.9993L8.29688 13.7983C8.41011 13.3849 8.55548 12.9811 8.73174 12.5904L12.1406 15.9993L8.73174 19.4078ZM13.8165 15.9993L9.32251 11.5059C9.53497 11.177 9.77028 10.8635 10.0267 10.5677L15.4571 15.9993L10.0249 21.431C9.76844 21.135 9.53314 20.8213 9.32067 20.4923L13.8165 15.9993ZM16.2971 11.8433L12.8878 8.4348C13.2784 8.25866 13.6821 8.11328 14.0954 8L16.2971 10.201L18.4983 8C18.9115 8.11349 19.3153 8.25886 19.706 8.4348L16.2971 11.8433Z" fill="white"/>
</g>
<defs>
<radialGradient id="paint0_radial_4690_69814" cx="0" cy="0" r="1" gradientUnits="userSpaceOnUse" gradientTransform="translate(35.1182 32.0676) scale(47.1107 47.1052)">
<stop stop-color="#02E1B3"/>
<stop offset="0.35" stop-color="#0B54FF"/>
<stop offset="0.43" stop-color="#1152FF"/>
<stop offset="0.54" stop-color="#204BFF"/>
<stop offset="0.66" stop-color="#3B40FE"/>
<stop offset="0.8" stop-color="#5F31FE"/>
<stop offset="0.93" stop-color="#8E1EFD"/>
<stop offset="1" stop-color="#A714FD"/>
</radialGradient>
</defs>
</svg>
