<svg width="20" height="20" viewBox="0 0 20 20" fill="none" xmlns="http://www.w3.org/2000/svg">
<g clip-path="url(#clip0_6466_4402)">
<rect y="0.398438" width="19.2" height="19.2" rx="9.6" fill="#FC6432"/>
<path d="M9.59961 0.816406C14.6253 0.816406 18.7 4.8904 18.7002 9.91602C18.7002 14.9418 14.6254 19.0166 9.59961 19.0166C4.574 19.0164 0.5 14.9417 0.5 9.91602C0.500211 4.89053 4.57413 0.816618 9.59961 0.816406Z" fill="url(#paint0_linear_6466_4402)" stroke="#FB30CA"/>
<path fill-rule="evenodd" clip-rule="evenodd" d="M11.2337 8.32268C11.1986 8.26241 11.2036 8.18701 11.2437 8.12674L12.9199 5.63965C12.9651 5.56931 12.9701 5.4839 12.93 5.41356C12.8898 5.33819 12.8145 5.29799 12.7342 5.29799H12.0819C12.0116 5.29799 11.9413 5.33316 11.8961 5.39848L9.93891 8.31269C9.88869 8.38802 9.80837 8.42824 9.71807 8.42824H9.47213C9.38182 8.42824 9.30151 8.38302 9.25136 8.31269L7.30415 5.39346C7.26399 5.32814 7.18866 5.29297 7.11841 5.29297H6.46601C6.38571 5.29297 6.30541 5.33819 6.27028 5.41356C6.23013 5.48892 6.24017 5.57434 6.28031 5.63965L7.95652 8.1318C7.99668 8.18701 8.00168 8.26241 7.96658 8.32268C7.93142 8.38802 7.87121 8.42318 7.80095 8.42318H5.23645C5.11098 8.42318 5.01562 8.52368 5.01562 8.6443V9.18689C5.01562 9.3125 5.116 9.40801 5.23645 9.40801H13.9638C14.0893 9.40801 14.1846 9.30751 14.1846 9.18689V8.6443C14.1846 8.52868 14.0993 8.4383 13.9889 8.42318C13.9789 8.42318 13.9688 8.42318 13.9588 8.42318H11.3993C11.329 8.42318 11.2638 8.38802 11.2337 8.32268ZM9.25636 11.5232L7.29908 14.4374C7.25892 14.5028 7.18367 14.5379 7.11341 14.5379H6.46098C6.38069 14.5379 6.30541 14.4927 6.26526 14.4224C6.22511 14.352 6.23013 14.2616 6.2753 14.1963L7.94647 11.7092C7.98662 11.6489 7.99169 11.5785 7.95652 11.5133C7.92143 11.4529 7.86116 11.4128 7.7909 11.4128H5.23645C5.116 11.4128 5.01562 11.3172 5.01562 11.1916V10.649C5.01562 10.5284 5.11098 10.4279 5.23645 10.4279H13.9438C13.9438 10.4279 13.9588 10.4279 13.9638 10.4279C14.0843 10.4279 14.1846 10.5234 14.1846 10.649V11.1916C14.1846 11.3123 14.0893 11.4128 13.9638 11.4128H11.4043C11.329 11.4128 11.2688 11.4479 11.2387 11.5133C11.2036 11.5785 11.2086 11.6489 11.2487 11.7041L12.925 14.1963C12.9651 14.2616 12.9751 14.347 12.935 14.4224C12.8949 14.4978 12.8195 14.543 12.7393 14.543H12.0868C12.0116 14.543 11.9463 14.5078 11.9062 14.4475L9.94889 11.5333C9.89875 11.458 9.81843 11.4177 9.72813 11.4177H9.48219C9.39188 11.4177 9.31157 11.463 9.26135 11.5333L9.25636 11.5232Z" fill="#12100F"/>
</g>
<rect x="0.4" y="0.798438" width="18.4" height="18.4" rx="9.2" stroke="#B1977B" stroke-opacity="0.1" stroke-width="0.8"/>
<defs>
<linearGradient id="paint0_linear_6466_4402" x1="9.6" y1="0.316406" x2="9.6" y2="19.5164" gradientUnits="userSpaceOnUse">
<stop stop-color="#FFEEFB"/>
<stop offset="1" stop-color="#F82BC6"/>
</linearGradient>
<clipPath id="clip0_6466_4402">
<rect y="0.398438" width="19.2" height="19.2" rx="9.6" fill="white"/>
</clipPath>
</defs>
</svg>
