<svg width="33" height="32" viewBox="0 0 33 32" fill="none" xmlns="http://www.w3.org/2000/svg">
<g id="icon">
<rect x="0.296875" width="32" height="32" rx="16" fill="#FC6432"/>
<g id="Group 4710">
<path id="Vector" d="M21.9665 17.1526C21.9299 17.1321 21.9468 17.0812 21.9894 17.0827C23.1078 17.1866 23.6704 15.9969 23.8264 15.4362C24.4288 13.259 22.1905 12.3568 21.4689 12.1262C21.3479 12.0872 21.2854 11.9597 21.3186 11.8389L21.7941 10.0829C21.8307 9.95555 21.7586 9.83294 21.6312 9.79633L21.1496 9.66314C21.0222 9.62653 20.8869 9.69358 20.8511 9.82116L20.3808 11.576C20.3458 11.7038 20.2081 11.7644 20.0806 11.7311L18.9395 11.4253C18.8119 11.3895 18.748 11.2732 18.7812 11.1466L19.2565 9.3881C19.2923 9.26052 19.2172 9.1305 19.0899 9.09389L18.6088 8.96168C18.4814 8.92507 18.3512 9.00091 18.3146 9.12829L17.8345 10.8706C17.7979 10.998 17.6609 11.0836 17.5343 11.0505L16.9649 10.893L15.3658 10.4645C15.2384 10.4279 15.1042 10.4754 15.0684 10.6029L14.9215 11.1759C14.8856 11.3035 14.9626 11.4266 15.0899 11.4632L16.3649 11.8156C16.4922 11.8522 16.5648 11.9823 16.5315 12.1098L14.6001 19.2777C14.5635 19.4051 14.388 19.4647 14.2604 19.4321L13.1547 19.1267C13.0456 19.0959 12.9293 19.1474 12.8776 19.2509L12.5848 19.8442C12.5184 19.9777 12.6102 20.1717 12.7527 20.2107L14.8475 20.7753C14.9749 20.8119 15.0372 20.9278 15.0041 21.0544L14.4977 22.9351C14.4611 23.0625 14.5369 23.1927 14.6643 23.2294L15.1459 23.3625C15.2733 23.3991 15.4313 23.3307 15.4671 23.2032L15.9666 21.3206C16.0032 21.1932 16.1229 21.1137 16.2503 21.147L17.3073 21.4336C17.4347 21.4702 17.5098 21.606 17.4767 21.7327L16.9716 23.6179C16.935 23.7452 16.9996 23.8741 17.1264 23.9097L17.6081 24.0429C17.7354 24.0795 17.8694 23.9898 17.906 23.8624L18.403 22.0139C18.4387 21.8838 18.5878 21.8023 18.7153 21.8414C19.6304 22.118 22.0808 22.8019 23.1776 20.5315C24.1455 18.529 22.6198 17.4872 21.9681 17.1531L21.9665 17.1526ZM18.3708 12.7274C18.4496 12.6213 18.568 12.5464 18.6895 12.5682C22.4367 13.2516 21.6639 15.0932 21.6639 15.0932C21.1394 16.9889 18.5299 16.0566 17.7977 15.7513C17.6885 15.7055 17.6286 15.5837 17.6164 15.4565L18.3716 12.7276L18.3708 12.7274ZM21.0849 19.5022C20.5516 21.431 17.4016 20.3969 16.5696 20.088C16.4545 20.0456 16.4143 19.9613 16.4484 19.8432L17.2381 16.8558C17.2715 16.7375 17.3899 16.6626 17.5105 16.6842C21.952 17.4752 21.0842 19.502 21.0842 19.502L21.0849 19.5022Z" fill="white"/>
<path id="Vector_2" d="M14.1946 16.6002L14.2696 16.3203C14.5183 15.392 14.1031 14.6626 13.1848 14.4165L10.3975 13.6697C10.1361 13.5996 10.0532 13.465 10.1189 13.2198L10.1879 12.9623C10.2393 12.7703 10.4886 12.6603 10.656 12.7051L14.8519 13.8294L15.1595 12.6813L10.9636 11.557C10.0777 11.3196 9.32024 11.7654 9.07914 12.6652L9.01014 12.9227C8.75251 13.8842 9.14452 14.5801 10.0859 14.8324L12.874 15.5794C13.1439 15.6517 13.2267 15.7805 13.1616 16.0234L13.0866 16.3033C13.0352 16.4953 12.782 16.6043 12.6116 16.5586L8.4095 15.4327L8.09981 16.5885L12.3019 17.7144C13.1917 17.9528 13.9528 17.5056 14.1954 16.6004L14.1946 16.6002Z" fill="white"/>
</g>
</g>
</svg>
