<svg width="40" height="40" viewBox="0 0 40 40" fill="none" xmlns="http://www.w3.org/2000/svg">
  <rect width="40" height="40" rx="20" fill="#FC6432" />
  <circle cx="20" cy="20" r="20" fill="#FC6432" />
  <path fill-rule="evenodd" clip-rule="evenodd" d="M23.403 16.5087C23.3299 16.3831 23.3403 16.226 23.424 16.1005L26.916 10.919C27.0102 10.7725 27.0206 10.5946 26.9369 10.448C26.8533 10.291 26.6965 10.2072 26.5292 10.2072H25.17C25.0237 10.2072 24.8773 10.2805 24.7831 10.4166L20.7056 16.4879C20.601 16.6448 20.4336 16.7286 20.2455 16.7286H19.7331C19.545 16.7286 19.3777 16.6344 19.2732 16.4879L15.2165 10.4061C15.1328 10.2701 14.9759 10.1968 14.8295 10.1968H13.4704C13.3031 10.1968 13.1358 10.291 13.0626 10.448C12.9789 10.605 12.9999 10.783 13.0835 10.919L16.5756 16.111C16.6593 16.226 16.6697 16.3831 16.5966 16.5087C16.5233 16.6448 16.3979 16.7181 16.2515 16.7181H10.9088C10.6474 16.7181 10.4487 16.9274 10.4487 17.1787V18.3091C10.4487 18.5708 10.6578 18.7698 10.9088 18.7698H29.0908C29.3522 18.7698 29.5508 18.5604 29.5508 18.3091V17.1787C29.5508 16.9378 29.3731 16.7496 29.1431 16.7181C29.1221 16.7181 29.1012 16.7181 29.0804 16.7181H23.7481C23.6017 16.7181 23.4657 16.6448 23.403 16.5087ZM19.2836 23.1765L15.2059 29.2477C15.1223 29.3838 14.9655 29.4571 14.8191 29.4571H13.4599C13.2926 29.4571 13.1358 29.3629 13.0521 29.2164C12.9685 29.0698 12.9789 28.8814 13.0731 28.7453L16.5546 23.5639C16.6383 23.4383 16.6489 23.2917 16.5756 23.1557C16.5025 23.03 16.3769 22.9463 16.2305 22.9463H10.9088C10.6578 22.9463 10.4487 22.7474 10.4487 22.4857V21.3553C10.4487 21.104 10.6474 20.8946 10.9088 20.8946H29.049C29.049 20.8946 29.0804 20.8946 29.0908 20.8946C29.3418 20.8946 29.5508 21.0936 29.5508 21.3553V22.4857C29.5508 22.737 29.3522 22.9463 29.0908 22.9463H23.7585C23.6017 22.9463 23.4763 23.0196 23.4134 23.1557C23.3403 23.2917 23.3507 23.4383 23.4344 23.5534L26.9265 28.7453C27.0102 28.8814 27.031 29.0593 26.9475 29.2164C26.8638 29.3734 26.7069 29.4676 26.5397 29.4676H25.1804C25.0237 29.4676 24.8877 29.3944 24.804 29.2687L20.7264 23.1975C20.6219 23.0405 20.4546 22.9567 20.2664 22.9567H19.7541C19.5659 22.9567 19.3986 23.0509 19.294 23.1975L19.2836 23.1765Z" fill="white" />
</svg>
