<svg width="33" height="32" viewBox="0 0 33 32" fill="none" xmlns="http://www.w3.org/2000/svg">
<g id="Logos">
<path d="M0.296875 2C0.296875 0.895431 1.19231 0 2.29688 0H30.2969C31.4014 0 32.2969 0.895431 32.2969 2V30C32.2969 31.1046 31.4014 32 30.2969 32H2.29688C1.19231 32 0.296875 31.1046 0.296875 30V2Z" fill="#FF6702"/>
<path id="Vector" d="M25.3499 12.3708C24.7659 11.6263 23.8818 11.1992 22.9236 11.1992H8.86979C7.91163 11.1992 7.02681 11.6263 6.4435 12.3708C5.8663 13.1066 5.67616 14.0404 5.92062 14.9317C6.41837 16.7421 7.42542 18.3819 8.8338 19.6743C10.8139 21.4913 13.355 22.3992 15.896 22.3992C18.4371 22.3992 20.9781 21.4907 22.9583 19.6743C24.3666 18.3825 25.3737 16.7421 25.8714 14.9317C26.1173 14.0404 25.9265 13.1066 25.3499 12.3708ZM9.08505 16.5415C8.64502 15.8694 8.30956 15.1356 8.09633 14.3598C8.01213 14.0523 8.14455 13.8212 8.23147 13.711C8.38561 13.5144 8.61853 13.4022 8.87046 13.4022H12.5496C12.7819 13.4022 12.898 13.6764 12.7336 13.8372L9.8877 16.6206C9.65478 16.8477 9.26228 16.8125 9.08505 16.5415ZM14.7708 19.5109C14.7708 19.8323 14.468 20.0794 14.1468 20.0103C13.2416 19.8151 12.3649 19.4671 11.5602 18.9663C11.2818 18.793 11.2451 18.4084 11.4787 18.1806L14.326 15.3946C14.4904 15.2338 14.7708 15.3474 14.7708 15.5746V19.5109ZM15.8967 14.5299C15.1654 14.5299 14.5725 13.9501 14.5725 13.2348C14.5725 12.5195 15.1654 11.9397 15.8967 11.9397C16.6281 11.9397 17.2209 12.5195 17.2209 13.2348C17.2209 13.9501 16.6281 14.5299 15.8967 14.5299ZM20.2339 18.9663C19.4285 19.4677 18.5518 19.8157 17.6467 20.011C17.3255 20.0801 17.0226 19.8337 17.0226 19.5116V15.5752C17.0226 15.3481 17.3031 15.2345 17.4674 15.3952L20.3154 18.1806C20.5483 18.4084 20.5116 18.793 20.2339 18.9663ZM23.6971 14.3598C23.4839 15.1349 23.1484 15.8688 22.7084 16.5415C22.5311 16.8125 22.1386 16.8477 21.9057 16.6206L19.0598 13.8372C18.8954 13.6764 19.0116 13.4022 19.2438 13.4022H22.923C23.1749 13.4022 23.4078 13.5151 23.562 13.711C23.6489 13.8219 23.7813 14.053 23.6971 14.3598Z" fill="white"/>
</g>
</svg>
