<svg width="16" height="16" viewBox="0 0 16 16" fill="none" xmlns="http://www.w3.org/2000/svg">
<rect width="16" height="16" rx="8" fill="#12100F"/>
<path d="M5.17154 5.17157C4.78101 5.5621 4.78101 6.19526 5.17154 6.58579L8.80809 10.2223L9.51519 10.9294L10.9294 9.51523L10.2223 8.80812L6.58575 5.17157C6.19523 4.78105 5.56206 4.78105 5.17154 5.17157Z" fill="white"/>
<path d="M5.87864 9.12132C5.32636 9.12132 4.87864 9.56904 4.87864 10.1213C4.87864 10.6736 5.32636 11.1213 5.87864 11.1213H10.1213C10.6736 11.1213 11.1213 10.6736 11.1213 10.1213V5.87868C11.1213 5.32639 10.6736 4.87868 10.1213 4.87868C9.569 4.87868 9.12129 5.32639 9.12129 5.87868V10.1213H5.87864V9.12132Z" fill="white"/>
</svg>
