<svg width="16" height="16" viewBox="0 0 16 16" fill="none" xmlns="http://www.w3.org/2000/svg">
<g clip-path="url(#clip0_337_21701)">
<path d="M16 8C16 3.58172 12.4183 0 8 0C3.58172 0 0 3.58172 0 8C0 12.4183 3.58172 16 8 16C12.4183 16 16 12.4183 16 8Z" fill="#12100F"/>
<path d="M6.58576 5.17157C6.19524 4.78105 5.56207 4.78105 5.17155 5.17157C4.78102 5.5621 4.78102 6.19526 5.17155 6.58579L6.58576 5.17157ZM8.8081 10.2223L9.5152 10.9294L10.9294 9.51523L10.2223 8.80812L8.8081 10.2223ZM5.87865 9.12132C5.32637 9.12132 4.87865 9.56904 4.87865 10.1213C4.87865 10.6736 5.32637 11.1213 5.87865 11.1213V9.12132ZM10.1213 10.1213V11.1213C10.6736 11.1213 11.1213 10.6736 11.1213 10.1213H10.1213ZM11.1213 5.87868C11.1213 5.32639 10.6736 4.87868 10.1213 4.87868C9.56901 4.87868 9.1213 5.32639 9.1213 5.87868H11.1213ZM5.87865 5.87868L5.17155 6.58579L8.8081 10.2223L9.5152 9.51523L10.2223 8.80812L6.58576 5.17157L5.87865 5.87868ZM5.87865 10.1213V11.1213H10.1213V10.1213V9.12132H5.87865V10.1213ZM10.1213 10.1213H11.1213C11.1213 10.0998 11.1213 10.1235 11.1213 10.1019C11.1213 10.0933 11.1213 10.0912 11.1213 10.0826C11.1213 10.04 11.1213 10.0868 11.1213 10.0442C11.1213 10.041 11.1213 10.0378 11.1213 10.0346C11.1213 10.0314 11.1213 10.0282 11.1213 10.0251C11.1213 10.0219 11.1213 10.0187 11.1213 10.0155C11.1213 10.0123 11.1213 10.0092 11.1213 10.006C11.1213 9.97226 11.1213 10.0207 11.1213 9.98701C11.1213 9.98385 11.1213 9.98069 11.1213 9.97754C11.1213 9.97438 11.1213 9.97123 11.1213 9.96808C11.1213 9.96493 11.1213 9.96178 11.1213 9.95864C11.1213 9.95549 11.1213 9.95235 11.1213 9.94921C11.1213 9.93039 11.1213 9.9492 11.1213 9.9304C11.1213 9.92727 11.1213 9.92415 11.1213 9.92102C11.1213 9.9179 11.1213 9.91478 11.1213 9.91166C11.1213 9.90854 11.1213 9.90542 11.1213 9.90231C11.1213 9.89919 11.1213 9.89608 11.1213 9.89297C11.1213 9.88468 11.1213 9.88262 11.1213 9.87435C11.1213 9.87159 11.1213 9.85852 11.1213 9.85579C11.1213 9.7734 11.1213 9.90114 11.1213 9.81883C11.1213 9.81577 11.1213 9.8127 11.1213 9.80963C11.1213 9.80657 11.1213 9.80351 11.1213 9.80045C11.1213 9.79739 11.1213 9.79433 11.1213 9.79128C11.1213 9.78822 11.1213 9.78517 11.1213 9.78212C11.1213 9.77907 11.1213 9.77602 11.1213 9.77297C11.1213 9.76993 11.1213 9.76689 11.1213 9.76385C11.1213 9.75574 11.1213 9.75371 11.1213 9.74563C11.1213 9.71333 11.1213 9.70533 11.1213 9.67332C11.1213 9.54706 11.1213 9.65643 11.1213 9.53128C11.1213 9.52835 11.1213 9.52543 11.1213 9.52251C11.1213 9.51959 11.1213 9.51667 11.1213 9.51375C11.1213 9.51084 11.1213 9.50792 11.1213 9.50501C11.1213 9.5021 11.1213 9.49919 11.1213 9.49628C11.1213 9.43414 11.1213 9.54097 11.1213 9.47885C11.1213 9.47595 11.1213 9.47305 11.1213 9.47015C11.1213 9.46726 11.1213 9.46436 11.1213 9.46147C11.1213 9.45858 11.1213 9.45569 11.1213 9.4528C11.1213 9.44991 11.1213 9.44703 11.1213 9.44414C11.1213 9.44126 11.1213 9.43837 11.1213 9.43549C11.1213 9.43261 11.1213 9.42973 11.1213 9.42686C11.1213 9.39628 11.1213 9.42294 11.1213 9.39243C11.1213 9.38957 11.1213 9.38671 11.1213 9.38385C11.1213 9.381 11.1213 9.37814 11.1213 9.37529C11.1213 9.37243 11.1213 9.36958 11.1213 9.36673C11.1213 9.36388 11.1213 9.36103 11.1213 9.35819C11.1213 9.35534 11.1213 9.3525 11.1213 9.34966C11.1213 9.34681 11.1213 9.34397 11.1213 9.34113C11.1213 9.31092 11.1213 9.35432 11.1213 9.32412C11.1213 9.30901 11.1213 9.30529 11.1213 9.29023C11.1213 9.26031 11.1213 9.28638 11.1213 9.25652C11.1213 9.22542 11.1213 9.15352 11.1213 9.12327C11.1213 9.10863 11.1213 9.10493 11.1213 9.09034C11.1213 9.0876 11.1213 9.08487 11.1213 9.08213C11.1213 9.0794 11.1213 9.07666 11.1213 9.07393C11.1213 9.0712 11.1213 9.06847 11.1213 9.06574C11.1213 9.06301 11.1213 9.06028 11.1213 9.05756C11.1213 9.02847 11.1213 9.0703 11.1213 9.04122C11.1213 9.0385 11.1213 9.03578 11.1213 9.03307C11.1213 9.03035 11.1213 9.02763 11.1213 9.02492C11.1213 8.99601 11.1213 9.02129 11.1213 8.99242C11.1213 8.93508 11.1213 8.98497 11.1213 8.92781C11.1213 8.87071 11.1213 8.92063 11.1213 8.8637C11.1213 8.83526 11.1213 8.86022 11.1213 8.83182C11.1213 8.81769 11.1213 8.81416 11.1213 8.80006C11.1213 8.74375 11.1213 8.82468 11.1213 8.7684C11.1213 8.76577 11.1213 8.76314 11.1213 8.7605C11.1213 8.75787 11.1213 8.75524 11.1213 8.75261C11.1213 8.73858 11.1213 8.75087 11.1213 8.73685C11.1213 8.73422 11.1213 8.7316 11.1213 8.72898C11.1213 8.72635 11.1213 8.72373 11.1213 8.72111C11.1213 8.67919 11.1213 8.7473 11.1213 8.7054C11.1213 8.69145 11.1213 8.70365 11.1213 8.68971C11.1213 8.68709 11.1213 8.68448 11.1213 8.68187C11.1213 8.67926 11.1213 8.67665 11.1213 8.67404C11.1213 8.64621 11.1213 8.63932 11.1213 8.6116C11.1213 8.609 11.1213 8.60641 11.1213 8.60382C11.1213 8.60122 11.1213 8.59863 11.1213 8.59604C11.1213 8.59345 11.1213 8.59086 11.1213 8.58827C11.1213 8.58568 11.1213 8.58309 11.1213 8.5805C11.1213 8.57792 11.1213 8.57533 11.1213 8.57274C11.1213 8.57016 11.1213 8.56757 11.1213 8.56499C11.1213 8.5624 11.1213 8.55982 11.1213 8.55723C11.1213 8.55465 11.1213 8.55207 11.1213 8.54949C11.1213 8.54691 11.1213 8.54433 11.1213 8.54175C11.1213 8.53917 11.1213 8.53659 11.1213 8.53401C11.1213 8.53143 11.1213 8.52885 11.1213 8.52628C11.1213 8.5237 11.1213 8.52112 11.1213 8.51855C11.1213 8.51597 11.1213 8.5134 11.1213 8.51082C11.1213 8.50825 11.1213 8.50568 11.1213 8.5031C11.1213 8.50053 11.1213 8.49796 11.1213 8.49539C11.1213 8.49282 11.1213 8.49025 11.1213 8.48768C11.1213 8.48511 11.1213 8.48254 11.1213 8.47997C11.1213 8.4774 11.1213 8.47484 11.1213 8.47227C11.1213 8.4697 11.1213 8.46714 11.1213 8.46457C11.1213 8.462 11.1213 8.45944 11.1213 8.45688C11.1213 8.45431 11.1213 8.45175 11.1213 8.44918C11.1213 8.44662 11.1213 8.44406 11.1213 8.4415C11.1213 8.43894 11.1213 8.43638 11.1213 8.43382C11.1213 8.43125 11.1213 8.42869 11.1213 8.42614C11.1213 8.42358 11.1213 8.42102 11.1213 8.41846C11.1213 8.4159 11.1213 8.41334 11.1213 8.41079C11.1213 8.40823 11.1213 8.40567 11.1213 8.40312C11.1213 8.40056 11.1213 8.39801 11.1213 8.39545C11.1213 8.3929 11.1213 8.39035 11.1213 8.38779C11.1213 8.38524 11.1213 8.38269 11.1213 8.38013C11.1213 8.37758 11.1213 8.37503 11.1213 8.37248C11.1213 8.36993 11.1213 8.36738 11.1213 8.36483C11.1213 8.36228 11.1213 8.35973 11.1213 8.35718C11.1213 8.35463 11.1213 8.35208 11.1213 8.34953C11.1213 8.34698 11.1213 8.34444 11.1213 8.34189C11.1213 8.33934 11.1213 8.33679 11.1213 8.33425C11.1213 8.3317 11.1213 8.32916 11.1213 8.32661C11.1213 8.32407 11.1213 8.32152 11.1213 8.31898C11.1213 8.31643 11.1213 8.31389 11.1213 8.31135C11.1213 8.3088 11.1213 8.30626 11.1213 8.30372C11.1213 8.30117 11.1213 8.29863 11.1213 8.29609C11.1213 8.29355 11.1213 8.29101 11.1213 8.28847C11.1213 8.28592 11.1213 8.28338 11.1213 8.28084C11.1213 8.2783 11.1213 8.27577 11.1213 8.27323C11.1213 8.27069 11.1213 8.26815 11.1213 8.26561C11.1213 8.26307 11.1213 8.26053 11.1213 8.25799C11.1213 8.25546 11.1213 8.25292 11.1213 8.25038C11.1213 8.24785 11.1213 8.24531 11.1213 8.24277C11.1213 8.24024 11.1213 8.2377 11.1213 8.23517C11.1213 8.23263 11.1213 8.23009 11.1213 8.22756C11.1213 8.22502 11.1213 8.22249 11.1213 8.21996C11.1213 8.21742 11.1213 8.21489 11.1213 8.21235C11.1213 8.20982 11.1213 8.20729 11.1213 8.20475C11.1213 8.20222 11.1213 8.19969 11.1213 8.19715C11.1213 8.19462 11.1213 8.19209 11.1213 8.18956C11.1213 8.18703 11.1213 8.18449 11.1213 8.18196C11.1213 8.17943 11.1213 8.1769 11.1213 8.17437C11.1213 8.17184 11.1213 8.16931 11.1213 8.16678C11.1213 8.16425 11.1213 8.16172 11.1213 8.15919C11.1213 8.15666 11.1213 8.15413 11.1213 8.1516C11.1213 8.14907 11.1213 8.14654 11.1213 8.14401C11.1213 8.14148 11.1213 8.13895 11.1213 8.13642C11.1213 8.13389 11.1213 8.13137 11.1213 8.12884C11.1213 8.12631 11.1213 8.12378 11.1213 8.12125C11.1213 8.11873 11.1213 8.1162 11.1213 8.11367C11.1213 8.11114 11.1213 8.10861 11.1213 8.10609C11.1213 8.10356 11.1213 8.10103 11.1213 8.09851C11.1213 8.09598 11.1213 8.09345 11.1213 8.09093C11.1213 8.0884 11.1213 8.08587 11.1213 8.08335C11.1213 8.08082 11.1213 8.07829 11.1213 8.07577C11.1213 8.07324 11.1213 8.07071 11.1213 8.06819C11.1213 8.06566 11.1213 8.06314 11.1213 8.06061C11.1213 8.05808 11.1213 8.05556 11.1213 8.05303C11.1213 8.05051 11.1213 8.04798 11.1213 8.04546C11.1213 8.04293 11.1213 8.0404 11.1213 8.03788C11.1213 8.03535 11.1213 8.03283 11.1213 8.0303C11.1213 8.02778 11.1213 8.02525 11.1213 8.02273C11.1213 8.0202 11.1213 8.01768 11.1213 8.01515C11.1213 8.01263 11.1213 8.0101 11.1213 8.00758C11.1213 8.00505 11.1213 8.00253 11.1213 8C11.1213 7.99747 11.1213 7.99495 11.1213 7.99242C11.1213 7.9899 11.1213 7.98737 11.1213 7.98485C11.1213 7.98232 11.1213 7.9798 11.1213 7.97727C11.1213 7.97475 11.1213 7.97222 11.1213 7.9697C11.1213 7.96717 11.1213 7.96465 11.1213 7.96212C11.1213 7.9596 11.1213 7.95707 11.1213 7.95454C11.1213 7.95202 11.1213 7.94949 11.1213 7.94697C11.1213 7.94444 11.1213 7.94192 11.1213 7.93939C11.1213 7.93686 11.1213 7.93434 11.1213 7.93181C11.1213 7.92929 11.1213 7.92676 11.1213 7.92423C11.1213 7.92171 11.1213 7.91918 11.1213 7.91665C11.1213 7.91413 11.1213 7.9116 11.1213 7.90907C11.1213 7.90655 11.1213 7.90402 11.1213 7.90149C11.1213 7.89897 11.1213 7.89644 11.1213 7.89391C11.1213 7.89139 11.1213 7.88886 11.1213 7.88633C11.1213 7.8838 11.1213 7.88127 11.1213 7.87875C11.1213 7.87622 11.1213 7.87369 11.1213 7.87116C11.1213 7.86863 11.1213 7.86611 11.1213 7.86358C11.1213 7.86105 11.1213 7.85852 11.1213 7.85599C11.1213 7.85346 11.1213 7.85093 11.1213 7.8484C11.1213 7.84587 11.1213 7.84334 11.1213 7.84081C11.1213 7.83828 11.1213 7.83575 11.1213 7.83322C11.1213 7.83069 11.1213 7.82816 11.1213 7.82563C11.1213 7.8231 11.1213 7.82057 11.1213 7.81804C11.1213 7.81551 11.1213 7.81297 11.1213 7.81044C11.1213 7.80791 11.1213 7.80538 11.1213 7.80285C11.1213 7.80031 11.1213 7.79778 11.1213 7.79525C11.1213 7.79271 11.1213 7.79018 11.1213 7.78765C11.1213 7.78511 11.1213 7.78258 11.1213 7.78004C11.1213 7.77751 11.1213 7.77498 11.1213 7.77244C11.1213 7.76991 11.1213 7.76737 11.1213 7.76483C11.1213 7.7623 11.1213 7.75976 11.1213 7.75723C11.1213 7.75469 11.1213 7.75215 11.1213 7.74962C11.1213 7.74708 11.1213 7.74454 11.1213 7.74201C11.1213 7.73947 11.1213 7.73693 11.1213 7.73439C11.1213 7.73185 11.1213 7.72931 11.1213 7.72677C11.1213 7.72423 11.1213 7.7217 11.1213 7.71916C11.1213 7.71662 11.1213 7.71408 11.1213 7.71153C11.1213 7.70899 11.1213 7.70645 11.1213 7.70391C11.1213 7.70137 11.1213 7.69883 11.1213 7.69628C11.1213 7.69374 11.1213 7.6912 11.1213 7.68865C11.1213 7.68611 11.1213 7.68357 11.1213 7.68102C11.1213 7.67848 11.1213 7.67593 11.1213 7.67339C11.1213 7.67084 11.1213 7.6683 11.1213 7.66575C11.1213 7.66321 11.1213 7.66066 11.1213 7.65811C11.1213 7.65556 11.1213 7.65302 11.1213 7.65047C11.1213 7.64792 11.1213 7.64537 11.1213 7.64282C11.1213 7.64027 11.1213 7.63772 11.1213 7.63517C11.1213 7.63262 11.1213 7.63007 11.1213 7.62752C11.1213 7.62497 11.1213 7.62242 11.1213 7.61987C11.1213 7.61731 11.1213 7.61476 11.1213 7.61221C11.1213 7.60965 11.1213 7.6071 11.1213 7.60455C11.1213 7.60199 11.1213 7.59944 11.1213 7.59688C11.1213 7.59433 11.1213 7.59177 11.1213 7.58921C11.1213 7.58666 11.1213 7.5841 11.1213 7.58154C11.1213 7.57898 11.1213 7.57642 11.1213 7.57386C11.1213 7.57131 11.1213 7.56875 11.1213 7.56618C11.1213 7.56362 11.1213 7.56106 11.1213 7.5585C11.1213 7.55594 11.1213 7.55338 11.1213 7.55082C11.1213 7.54825 11.1213 7.54569 11.1213 7.54312C11.1213 7.54056 11.1213 7.538 11.1213 7.53543C11.1213 7.53286 11.1213 7.5303 11.1213 7.52773C11.1213 7.52516 11.1213 7.5226 11.1213 7.52003C11.1213 7.51746 11.1213 7.51489 11.1213 7.51232C11.1213 7.50975 11.1213 7.50718 11.1213 7.50461C11.1213 7.50204 11.1213 7.49947 11.1213 7.4969C11.1213 7.49432 11.1213 7.49175 11.1213 7.48918C11.1213 7.4866 11.1213 7.48403 11.1213 7.48145C11.1213 7.47888 11.1213 7.4763 11.1213 7.47372C11.1213 7.47115 11.1213 7.46857 11.1213 7.46599C11.1213 7.46341 11.1213 7.46083 11.1213 7.45825C11.1213 7.45567 11.1213 7.45309 11.1213 7.45051C11.1213 7.44793 11.1213 7.44535 11.1213 7.44277C11.1213 7.44018 11.1213 7.4376 11.1213 7.43501C11.1213 7.43243 11.1213 7.42984 11.1213 7.42726C11.1213 7.42467 11.1213 7.42208 11.1213 7.4195C11.1213 7.41691 11.1213 7.41432 11.1213 7.41173C11.1213 7.40914 11.1213 7.40655 11.1213 7.40396C11.1213 7.40137 11.1213 7.39878 11.1213 7.39618C11.1213 7.39359 11.1213 7.391 11.1213 7.3884C11.1213 7.36068 11.1213 7.35379 11.1213 7.32596C11.1213 7.32335 11.1213 7.32074 11.1213 7.31813C11.1213 7.31552 11.1213 7.31291 11.1213 7.31029C11.1213 7.29635 11.1213 7.30855 11.1213 7.2946C11.1213 7.28064 11.1213 7.29286 11.1213 7.27889C11.1213 7.27627 11.1213 7.27365 11.1213 7.27102C11.1213 7.2684 11.1213 7.26578 11.1213 7.26315C11.1213 7.24913 11.1213 7.26142 11.1213 7.24739C11.1213 7.23337 11.1213 7.24563 11.1213 7.2316C11.1213 7.20347 11.1213 7.22811 11.1213 7.19994C11.1213 7.18584 11.1213 7.18231 11.1213 7.16818C11.1213 7.08291 11.1213 7.22161 11.1213 7.1363C11.1213 7.07936 11.1213 7.12929 11.1213 7.07219C11.1213 7.01469 11.1213 7.0975 11.1213 7.03995C11.1213 7.01109 11.1213 7.03648 11.1213 7.00758C11.1213 6.97871 11.1213 7.00399 11.1213 6.97508C11.1213 6.94605 11.1213 6.97152 11.1213 6.94244C11.1213 6.93972 11.1213 6.93699 11.1213 6.93426C11.1213 6.93153 11.1213 6.9288 11.1213 6.92607C11.1213 6.92334 11.1213 6.9206 11.1213 6.91787C11.1213 6.91513 11.1213 6.9124 11.1213 6.90966C11.1213 6.89507 11.1213 6.89137 11.1213 6.87673C11.1213 6.81808 11.1213 6.91887 11.1213 6.86021C11.1213 6.85746 11.1213 6.8547 11.1213 6.85194C11.1213 6.84918 11.1213 6.84642 11.1213 6.84366C11.1213 6.78463 11.1213 6.8695 11.1213 6.81042C11.1213 6.75116 11.1213 6.80297 11.1213 6.74348C11.1213 6.71362 11.1213 6.73969 11.1213 6.70977C11.1213 6.69471 11.1213 6.69099 11.1213 6.67588C11.1213 6.61553 11.1213 6.70222 11.1213 6.64181C11.1213 6.63897 11.1213 6.63612 11.1213 6.63327C11.1213 6.63042 11.1213 6.62757 11.1213 6.62471C11.1213 6.59424 11.1213 6.63806 11.1213 6.60757C11.1213 6.60471 11.1213 6.60184 11.1213 6.59898C11.1213 6.59611 11.1213 6.59325 11.1213 6.59038C11.1213 6.57508 11.1213 6.58846 11.1213 6.57314C11.1213 6.57027 11.1213 6.56739 11.1213 6.56451C11.1213 6.56163 11.1213 6.55874 11.1213 6.55586C11.1213 6.55297 11.1213 6.55009 11.1213 6.5472C11.1213 6.54431 11.1213 6.54142 11.1213 6.53853C11.1213 6.53564 11.1213 6.53274 11.1213 6.52985C11.1213 6.52695 11.1213 6.52405 11.1213 6.52115C11.1213 6.4901 11.1213 6.53479 11.1213 6.50372C11.1213 6.50081 11.1213 6.4979 11.1213 6.49499C11.1213 6.49208 11.1213 6.48916 11.1213 6.48625C11.1213 6.48333 11.1213 6.48041 11.1213 6.47749C11.1213 6.47457 11.1213 6.47165 11.1213 6.46872C11.1213 6.40608 11.1213 6.46103 11.1213 6.39812C11.1213 6.36652 11.1213 6.41194 11.1213 6.38034C11.1213 6.34861 11.1213 6.39425 11.1213 6.3625C11.1213 6.35953 11.1213 6.35655 11.1213 6.35357C11.1213 6.35058 11.1213 6.3476 11.1213 6.34462C11.1213 6.31266 11.1213 6.35865 11.1213 6.32668C11.1213 6.29467 11.1213 6.28667 11.1213 6.25437C11.1213 6.25437 11.1213 6.21796 11.1213 6.21788C11.1213 6.21483 11.1213 6.21178 11.1213 6.20872C11.1213 6.20567 11.1213 6.20261 11.1213 6.19955C11.1213 6.17501 11.1213 6.20572 11.1213 6.18117C11.1213 6.16477 11.1213 6.16069 11.1213 6.14421C11.1213 6.12778 11.1213 6.12354 11.1213 6.10703C11.1213 6.10392 11.1213 6.10081 11.1213 6.09769C11.1213 6.09458 11.1213 6.09146 11.1213 6.08834C11.1213 6.08522 11.1213 6.0821 11.1213 6.07898C11.1213 6.07585 11.1213 6.07273 11.1213 6.0696C11.1213 6.05498 11.1213 6.06543 11.1213 6.05079C11.1213 6.04765 11.1213 6.04451 11.1213 6.04136C11.1213 6.03822 11.1213 6.03507 11.1213 6.03192C11.1213 6.02877 11.1213 6.02562 11.1213 6.02246C11.1213 6.01931 11.1213 6.01615 11.1213 6.01299C11.1213 5.97927 11.1213 6.02774 11.1213 5.994C11.1213 5.98977 11.1213 5.97918 11.1213 5.97494C11.1213 5.97176 11.1213 5.96857 11.1213 5.96539C11.1213 5.9622 11.1213 5.95901 11.1213 5.95582C11.1213 5.93027 11.1213 5.94301 11.1213 5.91738C11.1213 5.90022 11.1213 5.91524 11.1213 5.89806C11.1213 5.88515 11.1213 5.89162 11.1213 5.87868H10.1213H9.1213C9.1213 5.90023 9.1213 5.87653 9.1213 5.89806C9.1213 5.90666 9.1213 5.90881 9.1213 5.91738C9.1213 5.96004 9.1213 5.91324 9.1213 5.95582C9.1213 5.95901 9.1213 5.9622 9.1213 5.96539C9.1213 5.96857 9.1213 5.97176 9.1213 5.97494C9.1213 5.97918 9.1213 5.98977 9.1213 5.994C9.1213 5.99717 9.1213 6.00034 9.1213 6.0035C9.1213 6.00667 9.1213 6.00983 9.1213 6.01299C9.1213 6.02984 9.1213 6.01509 9.1213 6.03192C9.1213 6.04034 9.1213 6.06126 9.1213 6.0696C9.1213 6.07273 9.1213 6.07585 9.1213 6.07898C9.1213 6.0821 9.1213 6.08522 9.1213 6.08834C9.1213 6.10081 9.1213 6.09458 9.1213 6.10703C9.1213 6.1564 9.1213 6.09492 9.1213 6.14421C9.1213 6.2266 9.1213 6.09886 9.1213 6.18116C9.1213 6.31264 9.1213 6.34187 9.1213 6.46872C9.1213 6.59264 9.1213 6.62348 9.1213 6.74348C9.1213 6.75842 9.1213 6.76215 9.1213 6.77704C9.1213 6.82173 9.1213 6.76579 9.1213 6.81042C9.1213 6.82523 9.1213 6.8289 9.1213 6.84366C9.1213 6.84642 9.1213 6.84918 9.1213 6.85194C9.1213 6.8547 9.1213 6.85746 9.1213 6.86021C9.1213 6.88955 9.1213 6.84741 9.1213 6.87673C9.1213 6.93087 9.1213 6.9542 9.1213 7.00758C9.1213 7.23468 9.1213 7.29375 9.1213 7.51232C9.1213 7.51489 9.1213 7.51746 9.1213 7.52003C9.1213 7.5226 9.1213 7.52516 9.1213 7.52773C9.1213 7.5303 9.1213 7.53286 9.1213 7.53543C9.1213 7.538 9.1213 7.54056 9.1213 7.54312C9.1213 7.54569 9.1213 7.54825 9.1213 7.55082C9.1213 7.55338 9.1213 7.55594 9.1213 7.5585C9.1213 7.56106 9.1213 7.56362 9.1213 7.56619C9.1213 7.56875 9.1213 7.57131 9.1213 7.57386C9.1213 7.57642 9.1213 7.57898 9.1213 7.58154C9.1213 7.5841 9.1213 7.58666 9.1213 7.58921C9.1213 7.59177 9.1213 7.59433 9.1213 7.59688C9.1213 7.59944 9.1213 7.60199 9.1213 7.60455C9.1213 7.6071 9.1213 7.60965 9.1213 7.61221C9.1213 7.61476 9.1213 7.61731 9.1213 7.61987C9.1213 7.62242 9.1213 7.62497 9.1213 7.62752C9.1213 7.63007 9.1213 7.63262 9.1213 7.63517C9.1213 7.63772 9.1213 7.64027 9.1213 7.64282C9.1213 7.64537 9.1213 7.64792 9.1213 7.65047C9.1213 7.65302 9.1213 7.65556 9.1213 7.65811C9.1213 7.66066 9.1213 7.66321 9.1213 7.66575C9.1213 7.6683 9.1213 7.67084 9.1213 7.67339C9.1213 7.67593 9.1213 7.67848 9.1213 7.68102C9.1213 7.68357 9.1213 7.68611 9.1213 7.68865C9.1213 7.6912 9.1213 7.69374 9.1213 7.69628C9.1213 7.69883 9.1213 7.70137 9.1213 7.70391C9.1213 7.70645 9.1213 7.70899 9.1213 7.71153C9.1213 7.71407 9.1213 7.71662 9.1213 7.71916C9.1213 7.7217 9.1213 7.72424 9.1213 7.72677C9.1213 7.72931 9.1213 7.73185 9.1213 7.73439C9.1213 7.73693 9.1213 7.73947 9.1213 7.742C9.1213 7.74454 9.1213 7.74708 9.1213 7.74962C9.1213 7.75215 9.1213 7.75469 9.1213 7.75723C9.1213 7.75976 9.1213 7.7623 9.1213 7.76483C9.1213 7.76737 9.1213 7.76991 9.1213 7.77244C9.1213 7.77498 9.1213 7.77751 9.1213 7.78004C9.1213 7.78258 9.1213 7.78511 9.1213 7.78765C9.1213 7.79018 9.1213 7.79271 9.1213 7.79525C9.1213 7.79778 9.1213 7.80031 9.1213 7.80285C9.1213 7.80538 9.1213 7.80791 9.1213 7.81044C9.1213 7.81297 9.1213 7.81551 9.1213 7.81804C9.1213 7.82057 9.1213 7.8231 9.1213 7.82563C9.1213 7.82816 9.1213 7.83069 9.1213 7.83322C9.1213 7.83575 9.1213 7.83828 9.1213 7.84081C9.1213 7.84334 9.1213 7.84587 9.1213 7.8484C9.1213 7.85093 9.1213 7.85346 9.1213 7.85599C9.1213 7.85852 9.1213 7.86105 9.1213 7.86358C9.1213 7.86611 9.1213 7.86863 9.1213 7.87116C9.1213 7.87369 9.1213 7.87622 9.1213 7.87875C9.1213 7.88127 9.1213 7.8838 9.1213 7.88633C9.1213 7.88886 9.1213 7.89139 9.1213 7.89391C9.1213 7.89644 9.1213 7.89897 9.1213 7.90149C9.1213 7.90402 9.1213 7.90655 9.1213 7.90907C9.1213 7.9116 9.1213 7.91413 9.1213 7.91665C9.1213 7.91918 9.1213 7.92171 9.1213 7.92423C9.1213 7.92676 9.1213 7.92929 9.1213 7.93181C9.1213 7.93434 9.1213 7.93686 9.1213 7.93939C9.1213 7.94192 9.1213 7.94444 9.1213 7.94697C9.1213 7.94949 9.1213 7.95202 9.1213 7.95454C9.1213 7.95707 9.1213 7.9596 9.1213 7.96212C9.1213 7.96465 9.1213 7.96717 9.1213 7.9697C9.1213 7.97222 9.1213 7.97475 9.1213 7.97727C9.1213 7.9798 9.1213 7.98232 9.1213 7.98485C9.1213 7.98737 9.1213 7.9899 9.1213 7.99242C9.1213 7.99495 9.1213 7.99747 9.1213 8C9.1213 8.00253 9.1213 8.00505 9.1213 8.00758C9.1213 8.0101 9.1213 8.01263 9.1213 8.01515C9.1213 8.01768 9.1213 8.0202 9.1213 8.02273C9.1213 8.02525 9.1213 8.02778 9.1213 8.0303C9.1213 8.03283 9.1213 8.03535 9.1213 8.03788C9.1213 8.0404 9.1213 8.04293 9.1213 8.04546C9.1213 8.04798 9.1213 8.05051 9.1213 8.05303C9.1213 8.05556 9.1213 8.05808 9.1213 8.06061C9.1213 8.06314 9.1213 8.06566 9.1213 8.06819C9.1213 8.07071 9.1213 8.07324 9.1213 8.07577C9.1213 8.07829 9.1213 8.08082 9.1213 8.08335C9.1213 8.08587 9.1213 8.0884 9.1213 8.09093C9.1213 8.09345 9.1213 8.09598 9.1213 8.09851C9.1213 8.10103 9.1213 8.10356 9.1213 8.10609C9.1213 8.10861 9.1213 8.11114 9.1213 8.11367C9.1213 8.1162 9.1213 8.11873 9.1213 8.12125C9.1213 8.12378 9.1213 8.12631 9.1213 8.12884C9.1213 8.13137 9.1213 8.13389 9.1213 8.13642C9.1213 8.13895 9.1213 8.14148 9.1213 8.14401C9.1213 8.14654 9.1213 8.14907 9.1213 8.1516C9.1213 8.15413 9.1213 8.15666 9.1213 8.15919C9.1213 8.16172 9.1213 8.16425 9.1213 8.16678C9.1213 8.16931 9.1213 8.17184 9.1213 8.17437C9.1213 8.1769 9.1213 8.17943 9.1213 8.18196C9.1213 8.18449 9.1213 8.18703 9.1213 8.18956C9.1213 8.19209 9.1213 8.19462 9.1213 8.19715C9.1213 8.19969 9.1213 8.20222 9.1213 8.20475C9.1213 8.20729 9.1213 8.20982 9.1213 8.21235C9.1213 8.21489 9.1213 8.21742 9.1213 8.21996C9.1213 8.22249 9.1213 8.22502 9.1213 8.22756C9.1213 8.23009 9.1213 8.23263 9.1213 8.23517C9.1213 8.2377 9.1213 8.24024 9.1213 8.24277C9.1213 8.24531 9.1213 8.24785 9.1213 8.25038C9.1213 8.25292 9.1213 8.25546 9.1213 8.258C9.1213 8.26053 9.1213 8.26307 9.1213 8.26561C9.1213 8.26815 9.1213 8.27069 9.1213 8.27323C9.1213 8.27576 9.1213 8.2783 9.1213 8.28084C9.1213 8.28338 9.1213 8.28593 9.1213 8.28847C9.1213 8.29101 9.1213 8.29355 9.1213 8.29609C9.1213 8.29863 9.1213 8.30117 9.1213 8.30372C9.1213 8.30626 9.1213 8.3088 9.1213 8.31135C9.1213 8.31389 9.1213 8.31643 9.1213 8.31898C9.1213 8.32152 9.1213 8.32407 9.1213 8.32661C9.1213 8.32916 9.1213 8.3317 9.1213 8.33425C9.1213 8.33679 9.1213 8.33934 9.1213 8.34189C9.1213 8.34444 9.1213 8.34698 9.1213 8.34953C9.1213 8.35208 9.1213 8.35463 9.1213 8.35718C9.1213 8.35973 9.1213 8.36228 9.1213 8.36483C9.1213 8.36738 9.1213 8.36993 9.1213 8.37248C9.1213 8.37503 9.1213 8.37758 9.1213 8.38013C9.1213 8.38269 9.1213 8.38524 9.1213 8.38779C9.1213 8.39035 9.1213 8.3929 9.1213 8.39545C9.1213 8.39801 9.1213 8.40056 9.1213 8.40312C9.1213 8.40567 9.1213 8.40823 9.1213 8.41079C9.1213 8.41334 9.1213 8.4159 9.1213 8.41846C9.1213 8.42102 9.1213 8.42358 9.1213 8.42614C9.1213 8.42869 9.1213 8.43125 9.1213 8.43381C9.1213 8.43638 9.1213 8.43894 9.1213 8.4415C9.1213 8.44406 9.1213 8.44662 9.1213 8.44918C9.1213 8.45175 9.1213 8.45431 9.1213 8.45688C9.1213 8.45944 9.1213 8.462 9.1213 8.46457C9.1213 8.46714 9.1213 8.4697 9.1213 8.47227C9.1213 8.47484 9.1213 8.4774 9.1213 8.47997C9.1213 8.48254 9.1213 8.48511 9.1213 8.48768C9.1213 8.70651 9.1213 8.76506 9.1213 8.99242C9.1213 9.2239 9.1213 9.28557 9.1213 9.53128C9.1213 9.78259 9.1213 9.85011 9.1213 10.1213H10.1213Z" fill="white"/>
</g>
<defs>
<clipPath id="clip0_337_21701">
<rect width="16" height="16" fill="white"/>
</clipPath>
</defs>
</svg>
