<svg width="16" height="16" viewBox="0 0 16 16" fill="none" xmlns="http://www.w3.org/2000/svg">
<rect width="16" height="16" rx="8" fill="#12100F"/>
<path d="M5.17157 9.41425C4.78105 9.80477 4.78105 10.4379 5.17157 10.8285C5.5621 11.219 6.19526 11.219 6.58579 10.8285L5.17157 9.41425ZM10.2223 7.19191L10.9294 6.48481L9.51523 5.07059L8.80812 5.7777L10.2223 7.19191ZM9.12132 10.1214C9.12132 10.6736 9.56904 11.1214 10.1213 11.1214C10.6736 11.1214 11.1213 10.6736 11.1213 10.1214L9.12132 10.1214ZM10.1213 5.87872L11.1213 5.87871C11.1213 5.32643 10.6736 4.87872 10.1213 4.87871L10.1213 5.87872ZM5.87868 4.87871C5.32639 4.87871 4.87868 5.32643 4.87868 5.87871C4.87868 6.431 5.32639 6.87871 5.87868 6.87871V4.87871ZM6.58579 10.8285L10.2223 7.19191L8.80812 5.7777L5.17157 9.41425L6.58579 10.8285ZM11.1213 10.1214L11.1213 5.87871L9.12132 5.87872L9.12132 10.1214L11.1213 10.1214ZM10.1213 4.87871C9.72283 4.87872 9.32266 4.87871 8.99242 4.87871C8.98971 4.87871 8.98701 4.87871 8.98431 4.87871C8.98161 4.87871 8.97891 4.87871 8.97622 4.87871C8.94521 4.87871 8.99104 4.87871 8.96005 4.87871C8.95736 4.87871 8.95467 4.87871 8.95198 4.87872C8.94929 4.87872 8.9466 4.87872 8.94391 4.87872C8.94123 4.87872 8.93854 4.87871 8.93586 4.87871C8.93317 4.87871 8.93049 4.87871 8.92781 4.87872C8.92543 4.87872 8.91411 4.87871 8.91174 4.87871C8.90906 4.87872 8.90638 4.87871 8.90371 4.87871C8.90104 4.87871 8.89837 4.87872 8.89569 4.87872C8.85476 4.87872 8.9206 4.87871 8.87968 4.87871C8.87702 4.87872 8.87435 4.87872 8.87169 4.87872C8.86902 4.87872 8.86636 4.87872 8.8637 4.87871C8.81674 4.87872 8.87875 4.87871 8.83182 4.87871C8.82917 4.87872 8.82652 4.87871 8.82387 4.87872C8.82122 4.87872 8.81857 4.87872 8.81593 4.87871C8.81328 4.87871 8.81063 4.87871 8.80799 4.87871C8.80534 4.87872 8.8027 4.87871 8.80006 4.87872C8.79742 4.87871 8.79477 4.87871 8.79213 4.87872C8.78949 4.87872 8.78685 4.87871 8.78422 4.87871C8.78158 4.87871 8.77894 4.87872 8.77631 4.87871C8.77367 4.87871 8.77103 4.87871 8.7684 4.87872C8.73542 4.87871 8.7698 4.87872 8.73685 4.87871C8.66093 4.87871 8.78128 4.87872 8.7054 4.87871C8.70101 4.87871 8.6784 4.87872 8.67404 4.87871C8.6687 4.87872 8.64809 4.87872 8.64277 4.87872C8.62378 4.87872 8.63056 4.87871 8.6116 4.87871C8.58967 4.87871 8.6024 4.87872 8.5805 4.87871C8.55987 4.87871 8.57009 4.87872 8.54949 4.87872C8.52752 4.87872 8.54049 4.87872 8.51855 4.87871C8.51597 4.87871 8.5134 4.87871 8.51082 4.87871C8.50825 4.87872 8.50568 4.87872 8.5031 4.87871C8.4823 4.87871 8.50848 4.87872 8.48768 4.87872C8.48001 4.87872 8.43372 4.87871 8.42614 4.87871C8.42336 4.87872 8.39821 4.87871 8.39545 4.87871C8.39538 4.87872 8.36488 4.87871 8.36483 4.87871C8.34566 4.87871 8.3534 4.87871 8.33425 4.87871C8.24747 4.87872 8.39048 4.87872 8.30372 4.87872C8.27567 4.87871 8.27077 4.87871 8.24277 4.87872C8.22286 4.87871 8.14103 4.87871 8.12125 4.87872C8.08085 4.87872 8.04036 4.87872 8 4.87871C7.95964 4.87872 7.91915 4.87871 7.87875 4.87872C7.8439 4.87872 7.85291 4.87872 7.81804 4.87871C7.77018 4.87872 7.80512 4.87871 7.75723 4.87872C7.72923 4.87871 7.72433 4.87871 7.69628 4.87872C7.69374 4.87871 7.6912 4.87871 7.68865 4.87872C7.68611 4.87871 7.68357 4.87872 7.68102 4.87872C7.67593 4.87872 7.67084 4.87872 7.66575 4.87871C7.6466 4.87872 7.65434 4.87872 7.63517 4.87871C7.62352 4.87871 7.61621 4.87871 7.60455 4.87871C7.52317 4.87871 7.67059 4.87872 7.58921 4.87871C7.58666 4.87872 7.5841 4.87871 7.58154 4.87871C7.57898 4.87872 7.57642 4.87872 7.57386 4.87871C7.56628 4.87871 7.51999 4.87871 7.51232 4.87871C7.49738 4.87872 7.40375 4.87871 7.3884 4.87871C7.38238 4.87871 7.3321 4.87871 7.32596 4.87871C7.29776 4.87871 7.29148 4.87871 7.26315 4.87871C7.22755 4.87871 7.23568 4.87871 7.19994 4.87871C7.17703 4.87871 7.19113 4.87871 7.16818 4.87871C7.15619 4.87871 7.16425 4.87871 7.15225 4.87871C7.1496 4.87872 7.14694 4.87872 7.14428 4.87871C7.14162 4.87871 7.13896 4.87871 7.1363 4.87871C7.07473 4.87871 7.06982 4.87872 7.00758 4.87871C6.95769 4.87872 6.99252 4.87871 6.94244 4.87871C6.93971 4.87872 6.93699 4.87871 6.93426 4.87871C6.93153 4.87871 6.9288 4.87872 6.92607 4.87872C6.92334 4.87872 6.9206 4.87871 6.91787 4.87871C6.91513 4.87871 6.9124 4.87871 6.90966 4.87871C6.90692 4.87871 6.90418 4.87871 6.90144 4.87871C6.8987 4.87871 6.89596 4.87871 6.89321 4.87871C6.88943 4.87871 6.88053 4.87871 6.87673 4.87871C6.79334 4.87871 6.94362 4.87871 6.86021 4.87872C6.85746 4.87871 6.8547 4.87871 6.85194 4.87871C6.84918 4.87871 6.84642 4.87871 6.84366 4.87871C6.8156 4.87871 6.83853 4.87872 6.81042 4.87871C6.80765 4.87872 6.80487 4.87871 6.80209 4.87871C6.79931 4.87872 6.79653 4.87871 6.79375 4.87871C6.76943 4.87871 6.80136 4.87871 6.77704 4.87871C6.77425 4.87871 6.77146 4.87871 6.76866 4.87871C6.76587 4.87872 6.76308 4.87871 6.76028 4.87871C6.75748 4.87872 6.75469 4.87871 6.75189 4.87871C6.74909 4.87871 6.74629 4.87872 6.74348 4.87871C6.68611 4.87871 6.73347 4.87871 6.67588 4.87871C6.67304 4.87871 6.67021 4.87871 6.66738 4.87871C6.66454 4.87871 6.66171 4.87871 6.65887 4.87871C6.6341 4.87872 6.66659 4.87871 6.64181 4.87871C6.63521 4.87872 6.61423 4.87871 6.60757 4.87871C6.55495 4.87871 6.5914 4.87871 6.53853 4.87871C6.51534 4.87871 6.49217 4.87871 6.46872 4.87871C6.45339 4.87871 6.20112 4.87871 6.18116 4.87871C6.10991 4.87871 6.21555 4.87871 6.14421 4.87871C6.11716 4.87871 6.13416 4.87871 6.10703 4.87871C6.02194 4.87871 6.11733 4.87871 6.03192 4.87871C6.02877 4.87871 6.02562 4.87871 6.02246 4.87871C6.01931 4.87871 6.01615 4.87871 6.01299 4.87871C5.94837 4.87871 6.05864 4.87871 5.994 4.87871C5.93225 4.87871 6.01765 4.87871 5.95582 4.87871C5.92222 4.87871 5.97025 4.87871 5.93663 4.87871C5.93472 4.87871 5.91931 4.87871 5.91738 4.87871C5.90267 4.87871 5.9128 4.87871 5.89806 4.87871C5.88993 4.87871 5.88683 4.87871 5.87868 4.87871V6.87871C5.88011 6.87871 5.89665 6.87871 5.89806 6.87871C5.89954 6.87871 5.91593 6.87871 5.91738 6.87871C5.91931 6.87871 5.93472 6.87871 5.93663 6.87871C5.93915 6.87871 5.95332 6.87871 5.95582 6.87871C6.01765 6.87871 5.93225 6.87871 5.994 6.87871C6.01547 6.87871 6.01053 6.87871 6.03192 6.87871C6.05716 6.87871 6.08212 6.87871 6.10703 6.87871C6.11064 6.87871 6.14068 6.87871 6.14421 6.87871C6.1878 6.87871 6.13766 6.87871 6.18116 6.87871C6.26093 6.87871 6.13819 6.87871 6.21788 6.87871C6.22093 6.87871 6.22398 6.87871 6.22703 6.87871C6.23007 6.87871 6.23311 6.87871 6.23615 6.87871C6.23919 6.87871 6.24223 6.87871 6.24527 6.87871C6.24831 6.87871 6.25134 6.87871 6.25437 6.87871C6.25986 6.87871 6.32148 6.87871 6.32668 6.87871C6.35839 6.87871 6.36668 6.87871 6.39812 6.87871C6.49478 6.87871 6.37233 6.87871 6.46872 6.87871C6.49644 6.87871 6.45855 6.87871 6.48625 6.87871C6.49917 6.87871 6.49082 6.87871 6.50372 6.87871C6.5116 6.87871 6.53072 6.87871 6.53853 6.87871C6.54142 6.87871 6.54431 6.87871 6.5472 6.87871C6.55009 6.87871 6.55297 6.87871 6.55586 6.87871C6.55874 6.87871 6.56163 6.87871 6.56451 6.87871C6.56739 6.87871 6.57027 6.87871 6.57314 6.87871C6.57602 6.87871 6.57889 6.87871 6.58177 6.87871C6.58464 6.87871 6.58751 6.87871 6.59038 6.87871C6.59474 6.87871 6.60322 6.87871 6.60757 6.87871C6.61043 6.87871 6.61329 6.87871 6.61615 6.87871C6.619 6.87871 6.62186 6.87871 6.62471 6.87871C6.65032 6.87871 6.61622 6.87871 6.64181 6.87871C6.64418 6.87871 6.67356 6.87871 6.67588 6.87871C6.69532 6.87871 6.72427 6.87871 6.74348 6.87871C6.75472 6.87871 6.76585 6.87871 6.77704 6.87871C6.77982 6.87871 6.78261 6.87871 6.7854 6.87871C6.78818 6.87871 6.79097 6.87871 6.79375 6.87871C6.81319 6.87871 6.791 6.87871 6.81042 6.87871C6.86569 6.87871 6.78844 6.87871 6.84366 6.87871C6.84642 6.87871 6.84918 6.87872 6.85194 6.87871C6.8547 6.87871 6.85746 6.87871 6.86021 6.87871C6.86297 6.87871 6.86572 6.87871 6.86848 6.87871C6.87123 6.87871 6.87398 6.87871 6.87673 6.87871C6.88053 6.87871 6.88943 6.87871 6.89321 6.87871C6.89596 6.87871 6.8987 6.87871 6.90144 6.87871C6.90418 6.87871 6.90692 6.87871 6.90966 6.87871C6.96035 6.87871 6.8918 6.87871 6.94244 6.87871C7.03028 6.87871 6.91993 6.87871 7.00758 6.87871C7.08735 6.87871 6.9926 6.87871 7.07219 6.87871C7.11137 6.87871 7.09728 6.87871 7.1363 6.87871C7.23776 6.87871 7.16226 6.87871 7.26315 6.87871C7.33807 6.87871 7.43918 6.87872 7.51232 6.87871C7.54879 6.87871 7.72182 6.87871 7.75723 6.87871C7.81891 6.87871 7.75639 6.87871 7.81804 6.87871C7.82365 6.87871 7.87316 6.87871 7.87875 6.87871C7.91915 6.87871 7.95964 6.87871 8 6.87871C8.04036 6.87871 8.08085 6.87871 8.12125 6.87871C8.1561 6.87871 8.14709 6.87871 8.18196 6.87871C8.22845 6.87871 8.16585 6.87871 8.21235 6.87871C8.22249 6.87871 8.23263 6.87871 8.24277 6.87871C8.24531 6.87871 8.24785 6.87871 8.25038 6.87871C8.25292 6.87871 8.25546 6.87871 8.25799 6.87871C8.2617 6.87871 8.26952 6.87871 8.27323 6.87871C8.33266 6.87872 8.22902 6.87871 8.28847 6.87871C8.28952 6.87871 8.30266 6.87872 8.30372 6.87871C8.35791 6.87871 8.26477 6.87871 8.31898 6.87871C8.32152 6.87872 8.32407 6.87871 8.32661 6.87871C8.32916 6.87871 8.3317 6.87871 8.33425 6.87871C8.3534 6.87872 8.34566 6.87872 8.36483 6.87871C8.37648 6.87871 8.38378 6.87871 8.39545 6.87871C8.45776 6.87871 8.34848 6.87871 8.41079 6.87871C8.41334 6.87872 8.4159 6.87871 8.41846 6.87871C8.42102 6.87872 8.42358 6.87872 8.42614 6.87871C8.432 6.87872 8.45099 6.87871 8.45688 6.87871C8.49543 6.87871 8.4491 6.87871 8.48768 6.87871C8.53196 6.87871 8.45881 6.87871 8.5031 6.87871C8.52344 6.87871 8.4982 6.87871 8.51855 6.87871C8.54049 6.87872 8.52752 6.87872 8.54949 6.87871C8.61807 6.87871 8.51189 6.87872 8.5805 6.87871C8.6101 6.87871 8.58197 6.87871 8.6116 6.87871C8.65087 6.87871 8.69709 6.87872 8.73685 6.87871C8.83984 6.87871 8.76013 6.87872 8.8637 6.87871C8.86708 6.87871 8.92427 6.87871 8.92781 6.87872C8.97774 6.87871 8.94231 6.87871 8.99242 6.87871C9.00197 6.87872 8.99909 6.87871 9.00865 6.87871C9.02433 6.87872 9.00922 6.87872 9.02492 6.87871C9.02763 6.87871 9.03035 6.87871 9.03307 6.87871C9.03578 6.87871 9.0385 6.87872 9.04122 6.87871C9.05743 6.87872 9.04134 6.87872 9.05756 6.87872C9.06604 6.87871 9.11459 6.87872 9.12327 6.87872C9.20894 6.87871 9.10369 6.87871 9.18957 6.87872C9.20036 6.87871 9.19545 6.87872 9.20625 6.87872C9.20903 6.87872 9.21182 6.87871 9.2146 6.87871C9.21739 6.87871 9.22017 6.87872 9.22296 6.87872C9.23485 6.87872 9.22782 6.87871 9.23972 6.87872C9.24252 6.87872 9.24531 6.87871 9.24811 6.87872C9.25091 6.87872 9.25371 6.87872 9.25652 6.87871C9.34391 6.87871 9.30411 6.87871 9.39243 6.87871C9.39529 6.87871 9.39815 6.87871 9.40102 6.87872C9.40388 6.87871 9.40675 6.87871 9.40962 6.87872C9.41592 6.87871 9.42054 6.87871 9.42686 6.87872C9.43753 6.87872 9.43345 6.87871 9.44414 6.87871C9.44702 6.87872 9.44991 6.87871 9.4528 6.87871C9.45569 6.87872 9.45858 6.87872 9.46147 6.87871C9.49404 6.87871 9.44626 6.87872 9.47885 6.87872C9.49675 6.87872 9.47836 6.87872 9.49628 6.87871C9.50918 6.87871 9.50083 6.87872 9.51375 6.87872C9.51667 6.87872 9.51959 6.87871 9.52251 6.87872C9.52543 6.87871 9.52835 6.87872 9.53128 6.87871C9.60168 6.87871 9.74381 6.87872 9.81883 6.87872C9.9029 6.87871 9.80859 6.87872 9.89297 6.87871C9.9339 6.87871 9.92682 6.87871 9.96808 6.87871C10.0898 6.87872 9.99823 6.87871 10.1213 6.87871L10.1213 4.87871Z" fill="white"/>
</svg>
