<svg width="24" height="24" viewBox="0 0 24 24" fill="none" xmlns="http://www.w3.org/2000/svg">
  <path fill-rule="evenodd" clip-rule="evenodd"
    d="M3 10.9605C3 6.00838 7.03283 2 12 2C16.9672 2 21 6.00838 21 10.9605C21 14.2861 19.3361 17.2778 17.4617 19.4097C16.5195 20.4814 15.5035 21.3601 14.5738 21.9769C14.1091 22.2853 13.6556 22.5351 13.2345 22.71C12.8235 22.8809 12.397 23 12 23C11.603 23 11.1765 22.8809 10.7655 22.71C10.3444 22.5351 9.8909 22.2853 9.42618 21.9769C8.4965 21.3601 7.48053 20.4814 6.53831 19.4097C4.6639 17.2778 3 14.2861 3 10.9605ZM7.38195 9.92737C10.156 9.83264 10.8406 11.2375 10.9727 13.1176C11.008 13.6207 10.622 14.0554 10.118 14.0726C7.34396 14.1673 6.65931 12.7624 6.52727 10.8824C6.49194 10.3793 6.87792 9.94458 7.38195 9.92737ZM16.618 9.92737C13.844 9.83264 13.1593 11.2376 13.0273 13.1176C12.9919 13.6207 13.3779 14.0554 13.882 14.0726C16.656 14.1673 17.3406 12.7624 17.4727 10.8824C17.508 10.3793 17.122 9.94458 16.618 9.92737Z"
    fill="currentColor" />
</svg>

