<svg width="24" height="24" viewBox="0 0 24 24" fill="none" xmlns="http://www.w3.org/2000/svg">
  <path fill-rule="evenodd" clip-rule="evenodd"
    d="M20.25 9.99682H20V16.5612C20.5502 16.7149 21.0025 17.1325 21.1894 17.6934L21.5228 18.6934C21.9005 19.8266 21.0571 20.9968 19.8626 20.9968H4.13743C2.94295 20.9968 2.0995 19.8266 2.47723 18.6934L2.81056 17.6934C2.99754 17.1325 3.44981 16.7149 4 16.5612V9.99682H3.75C2.7835 9.99682 2 9.21332 2 8.24682V7.78507C2 7.12483 2.37159 6.52079 2.96089 6.22308L11.2109 2.0552C11.7071 1.80452 12.2929 1.80452 12.7891 2.0552L21.0391 6.22308C21.6284 6.52079 22 7.12483 22 7.78507V8.24682C22 9.21332 21.2165 9.99682 20.25 9.99682ZM16 9.99682H18.5V16.4968H16V9.99682ZM8 16.4968H5.5V9.99682H8V16.4968ZM9.5 16.4968V9.99682H14.5V16.4968H9.5Z"
    fill="currentColor" />
</svg>

