<svg width="24" height="24" viewBox="0 0 24 24" fill="none" xmlns="http://www.w3.org/2000/svg">
  <path
    d="M5.00004 3.00001L19 3C20.1046 3 21 3.89543 21 5L21 12H15.874C15.4177 12 15.0193 12.3089 14.9056 12.7507C14.5725 14.0449 13.3965 15 12 15C10.6035 15 9.42755 14.0449 9.09446 12.7507C8.98073 12.3089 8.58231 12 8.12603 12H3.00003L3.00004 5C3.00005 3.89543 3.89548 3.00001 5.00004 3.00001Z"
    fill="currentColor" />
  <path
    d="M3.00003 14L3 19C2.99999 20.1046 3.89543 21 5 21H19C20.1046 21 21 20.1046 21 19L21 14H16.5836C15.8122 15.7655 14.0512 17 12 17C9.94878 17 8.18784 15.7655 7.41638 14H3.00003Z"
    fill="currentColor" />
</svg>

