<svg width="24" height="24" viewBox="0 0 24 24" fill="none" xmlns="http://www.w3.org/2000/svg">
  <path fill-rule="evenodd" clip-rule="evenodd"
    d="M22.5 11.5V18.25C22.5 19.2165 21.7165 20 20.75 20H19.25C18.2835 20 17.5 19.2165 17.5 18.25V17.9286H6.5V18.25C6.5 19.2165 5.7165 20 4.75 20H3.25C2.2835 20 1.5 19.2165 1.5 18.25V11.5H0.75C0.335786 11.5 0 11.1642 0 10.75C0 10.3358 0.335786 10 0.75 10H1.83431L5.07025 4.8225C5.39004 4.31083 5.95087 4 6.55425 4H17.4458C18.0491 4 18.61 4.31083 18.9297 4.8225L22.1657 10H23.25C23.6642 10 24 10.3358 24 10.75C24 11.1642 23.6642 11.5 23.25 11.5H22.5ZM5 13.0357C5 12.6215 5.33579 12.2857 5.75 12.2857H7.75C8.16421 12.2857 8.5 12.6215 8.5 13.0357C8.5 13.4499 8.16421 13.7857 7.75 13.7857H5.75C5.33579 13.7857 5 13.4499 5 13.0357ZM15.5 13.0357C15.5 12.6215 15.8358 12.2857 16.25 12.2857H18.25C18.6642 12.2857 19 12.6215 19 13.0357C19 13.4499 18.6642 13.7857 18.25 13.7857H16.25C15.8358 13.7857 15.5 13.4499 15.5 13.0357Z"
    fill="currentColor" />
</svg>

