<svg width="24" height="24" viewBox="0 0 24 24" fill="none" xmlns="http://www.w3.org/2000/svg">
  <path fill-rule="evenodd" clip-rule="evenodd"
    d="M6.90492 3.14264C5.79221 2.89194 5 3.83352 5 4.75279V6.98811C5 7.04911 4.97304 7.13424 4.89392 7.21872C4.45772 7.68447 4.0843 8.21015 3.78735 8.78233C3.70395 8.94304 3.57392 9.0028 3.48534 9.0028H2.75C1.7835 9.0028 1 9.7863 1 10.7528V13.2528C1 14.2193 1.7835 15.0028 2.75 15.0028H3.48534C3.57392 15.0028 3.70395 15.0626 3.78735 15.2233C4.0843 15.7954 4.45772 16.3211 4.89392 16.7869C4.97303 16.8713 5 16.9565 5 17.0175V19.2528C5 20.2193 5.7835 21.0028 6.75 21.0028H9.25C10.2165 21.0028 11 20.2193 11 19.2528C11 19.1147 11.1119 19.0028 11.25 19.0028H12.75C12.8881 19.0028 13 19.1147 13 19.2528C13 20.2193 13.7835 21.0028 14.75 21.0028H17.25C18.2165 21.0028 19 20.2193 19 19.2528V17.0259C19 16.9648 19.0271 16.8795 19.1065 16.7949C19.4265 16.4544 19.7128 16.0816 19.9602 15.682C20.3448 15.8866 20.7839 16.0028 21.25 16.0028C22.7688 16.0028 24 14.7716 24 13.2528C24 12.6032 23.7738 12.0044 23.3965 11.5337C23.1374 11.2105 22.6654 11.1585 22.3422 11.4176C22.0191 11.6767 21.9671 12.1487 22.2262 12.4719C22.3978 12.686 22.5 12.9565 22.5 13.2528C22.5 13.9432 21.9404 14.5028 21.25 14.5028C21.0156 14.5028 20.7965 14.4386 20.6089 14.3263C20.8649 13.5985 21.004 12.8162 21.004 12.0028C21.004 8.1368 17.87 5.00279 14.004 5.00279H10.1402C9.06657 3.85047 7.82595 3.35015 6.90492 3.14264ZM8.25 12.0027C8.94036 12.0027 9.5 11.443 9.5 10.7527C9.5 10.0623 8.94036 9.50269 8.25 9.50269C7.55964 9.50269 7 10.0623 7 10.7527C7 11.443 7.55964 12.0027 8.25 12.0027Z"
    fill="currentColor" />
</svg>

