<svg width="24" height="24" viewBox="0 0 24 24" fill="none" xmlns="http://www.w3.org/2000/svg">
  <path
    d="M14.0008 4.50276C13.1724 4.50276 12.5008 5.17433 12.5008 6.00276C12.5008 6.83119 13.1724 7.50276 14.0008 7.50276C14.8292 7.50276 15.5008 6.83119 15.5008 6.00276C15.5008 5.17433 14.8292 4.50276 14.0008 4.50276Z"
    fill="currentColor" />
  <path
    d="M11.0008 6.00276C11.0008 5.45906 11.1454 4.94914 11.3983 4.50938L6.68454 5.31746C7.27431 8.99361 9.24593 12.208 12.0498 14.411C12.3511 12.5002 14.0053 11.039 16.0008 11.039C17.4564 11.039 18.7303 11.8165 19.4301 12.9788L20.7511 5.27294C20.9552 4.08269 19.9209 3.04837 18.7306 3.25242L15.9567 3.72795C16.596 4.27812 17.0008 5.09316 17.0008 6.00276C17.0008 7.65962 15.6576 9.00276 14.0008 9.00276C12.3439 9.00276 11.0008 7.65962 11.0008 6.00276Z"
    fill="currentColor" />
  <path
    d="M17.4968 17.0765L17.7619 16.8135C18.219 16.3597 18.5008 15.733 18.5008 15.039C18.5008 13.6583 17.3815 12.539 16.0008 12.539C14.6201 12.539 13.5008 13.6583 13.5008 15.039V15.4149C14.7259 16.1568 16.0696 16.7224 17.4968 17.0765Z"
    fill="currentColor" />
  <path
    d="M18.4326 18.7977C11.6531 17.7039 6.29964 12.3504 5.20581 5.57095L3.62314 5.84227C2.6732 6.00512 1.99295 6.93022 2.23465 7.92142C3.02629 11.1678 4.6902 14.2452 7.22428 16.7793C9.75836 19.3134 12.8357 20.9773 16.0821 21.7689C17.0733 22.0106 17.9984 21.3304 18.1613 20.3804L18.4326 18.7977Z"
    fill="currentColor" />
</svg>

