<svg width="24" height="24" viewBox="0 0 24 24" fill="none" xmlns="http://www.w3.org/2000/svg">
  <path fill-rule="evenodd" clip-rule="evenodd"
    d="M4.92894 4.92893C8.83418 1.02369 15.1658 1.02369 19.0711 4.92894C22.9763 8.83418 22.9763 15.1658 19.0711 19.0711C15.1658 22.9763 8.83416 22.9763 4.92894 19.0711C1.02369 15.1658 1.02369 8.83416 4.92894 4.92893ZM9.25 11C9.94036 11 10.5 10.3284 10.5 9.5C10.5 8.67157 9.94036 8 9.25 8C8.55964 8 8 8.67157 8 9.5C8 10.3284 8.55964 11 9.25 11ZM16 9.5C16 10.3284 15.4404 11 14.75 11C14.0596 11 13.5 10.3284 13.5 9.5C13.5 8.67157 14.0596 8 14.75 8C15.4404 8 16 8.67157 16 9.5ZM9.70221 14.2981C9.40931 14.0052 8.93444 14.0052 8.64155 14.2981C8.34865 14.591 8.34865 15.0659 8.64154 15.3588C10.4965 17.2138 13.5041 17.2138 15.3591 15.3588C15.6519 15.0659 15.6519 14.591 15.3591 14.2981C15.0662 14.0052 14.5913 14.0052 14.2984 14.2981C13.0292 15.5673 10.9714 15.5673 9.70221 14.2981Z"
    fill="currentColor" />
</svg>

