<svg width="4" height="4" viewBox="0 0 8 8" fill="none"
    xmlns="http://www.w3.org/2000/svg">
    <path d="M5 1C5 0.447715 4.55228 0 4 0C3.44772 0 3 0.447715 3 1H5ZM3 6.14286V7.14286H5V6.14286H3ZM1.70711 3.29289C1.31658 2.90237 0.683417 2.90237 0.292893 3.29289C-0.0976311 3.68342 -0.0976311 4.31658 0.292893 4.70711L1.70711 3.29289ZM4 7L3.29289 7.70711C3.68342 8.09763 4.31658 8.09763 4.70711 7.70711L4 7ZM7.70711 4.70711C8.09763 4.31658 8.09763 3.68342 7.70711 3.29289C7.31658 2.90237 6.68342 2.90237 6.29289 3.29289L7.70711 4.70711ZM3 1V6.14286H5V1H3ZM0.292893 4.70711L3.29289 7.70711L4.70711 6.29289L1.70711 3.29289L0.292893 4.70711ZM4.70711 7.70711C4.72235 7.69187 4.70559 7.70863 4.72081 7.6934C4.72689 7.68732 4.72841 7.6858 4.73447 7.67974C4.76464 7.64957 4.73154 7.68267 4.76165 7.65256C4.76391 7.65031 4.76616 7.64805 4.76842 7.6458C4.77067 7.64354 4.77292 7.64129 4.77517 7.63904C4.77742 7.63679 4.77967 7.63454 4.78192 7.6323C4.78416 7.63005 4.78641 7.62781 4.78865 7.62557C4.81251 7.6017 4.77823 7.63598 4.80208 7.61213C4.80431 7.6099 4.80655 7.60767 4.80878 7.60544C4.81101 7.60321 4.81324 7.60098 4.81547 7.59875C4.81769 7.59652 4.81992 7.5943 4.82214 7.59207C4.82437 7.58985 4.82659 7.58763 4.82881 7.58541C4.84212 7.5721 4.82881 7.5854 4.84211 7.57211C4.84432 7.5699 4.84653 7.56768 4.84874 7.56548C4.85095 7.56327 4.85316 7.56106 4.85536 7.55885C4.85757 7.55665 4.85977 7.55444 4.86197 7.55224C4.86417 7.55004 4.86637 7.54784 4.86857 7.54564C4.87444 7.53978 4.87589 7.53832 4.88174 7.53247C4.88369 7.53052 4.89293 7.52128 4.89487 7.51935C4.95312 7.46109 4.8628 7.55142 4.921 7.49322C4.92317 7.49105 4.92534 7.48888 4.9275 7.48671C4.92967 7.48454 4.93183 7.48238 4.934 7.48022C4.93616 7.47805 4.93832 7.47589 4.94048 7.47373C4.94264 7.47157 4.9448 7.46941 4.94696 7.46725C4.94912 7.4651 4.95127 7.46294 4.95342 7.46079C4.95558 7.45864 4.95773 7.45648 4.95988 7.45433C4.96561 7.4486 4.96704 7.44717 4.97276 7.44145C4.9956 7.41861 5.00126 7.41296 5.02389 7.39033C5.11317 7.30104 5.03583 7.37838 5.12433 7.28988C5.1264 7.28782 5.12847 7.28575 5.13053 7.28368C5.1326 7.28162 5.13466 7.27955 5.13672 7.27749C5.13878 7.27543 5.14085 7.27337 5.14291 7.27131C5.14496 7.26925 5.14702 7.26719 5.14908 7.26513C5.19302 7.2212 5.11748 7.29674 5.1614 7.25281C5.16345 7.25076 5.1655 7.24871 5.16755 7.24666C5.1696 7.24462 5.17165 7.24257 5.17369 7.24052C5.17574 7.23848 5.17778 7.23643 5.17982 7.23439C5.18186 7.23235 5.18391 7.23031 5.18595 7.22827C5.18798 7.22623 5.19002 7.22419 5.19206 7.22215C5.1941 7.22012 5.19613 7.21808 5.19817 7.21605C5.21979 7.19443 5.20093 7.21328 5.22251 7.1917C5.22453 7.18968 5.22655 7.18766 5.22858 7.18564C5.2306 7.18362 5.23261 7.1816 5.23463 7.17958C5.23665 7.17756 5.23867 7.17555 5.24068 7.17353C5.2427 7.17152 5.24471 7.1695 5.24672 7.16749C5.24874 7.16548 5.25075 7.16347 5.25276 7.16146C5.25477 7.15945 5.25677 7.15744 5.25878 7.15543C5.28015 7.13407 5.24946 7.16476 5.27081 7.1434C5.2815 7.13272 5.28413 7.13009 5.29477 7.11944C5.31593 7.09828 5.2975 7.11672 5.31862 7.0956C5.3406 7.07361 5.39145 7.02277 5.41284 7.00138C5.42319 6.99103 5.4258 6.98841 5.43612 6.97809C5.43806 6.97616 5.43999 6.97422 5.44192 6.97229C5.44386 6.97036 5.44579 6.96842 5.44772 6.96649C5.44965 6.96456 5.45158 6.96263 5.45351 6.9607C5.45544 6.95877 5.45737 6.95684 5.4593 6.95491C5.47987 6.93435 5.45029 6.96392 5.47085 6.94336C5.47277 6.94144 5.4747 6.93952 5.47662 6.9376C5.47854 6.93567 5.48046 6.93375 5.48238 6.93183C5.50282 6.91139 5.48495 6.92927 5.50536 6.90885C5.54591 6.86831 5.51062 6.90359 5.55105 6.86317C5.59142 6.82279 5.55612 6.85809 5.59638 6.81784C5.61649 6.79773 5.59884 6.81538 5.61892 6.79529C5.62892 6.7853 5.63141 6.7828 5.64138 6.77283C5.6812 6.73302 5.62397 6.79024 5.66376 6.75045C5.66563 6.74859 5.66749 6.74673 5.66935 6.74486C5.67121 6.743 5.67307 6.74114 5.67493 6.73928C5.68485 6.72936 5.67616 6.73806 5.68608 6.72814C5.68793 6.72628 5.68979 6.72443 5.69164 6.72257C5.6935 6.72072 5.69535 6.71886 5.6972 6.71701C5.72684 6.68737 5.67868 6.73553 5.70832 6.7059C5.71818 6.69603 5.70955 6.70466 5.71941 6.6948C5.72126 6.69296 5.72311 6.69111 5.72495 6.68926C5.7268 6.68742 5.72864 6.68557 5.73049 6.68373C5.75017 6.66404 5.75504 6.65917 5.77464 6.63957C5.77648 6.63774 5.77831 6.6359 5.78014 6.63407C5.78198 6.63224 5.78381 6.6304 5.78564 6.62857C5.78748 6.62674 5.78931 6.62491 5.79114 6.62308C5.79297 6.62124 5.7948 6.61941 5.79663 6.61758C5.79846 6.61575 5.80029 6.61393 5.80212 6.6121C5.80395 6.61027 5.80577 6.60844 5.8076 6.60661C5.80943 6.60478 5.81126 6.60296 5.81308 6.60113C5.81491 6.5993 5.81674 6.59748 5.81856 6.59565C5.82039 6.59383 5.82221 6.592 5.82403 6.59018C5.82586 6.58836 5.82768 6.58653 5.82951 6.58471C5.83133 6.58289 5.83315 6.58106 5.83497 6.57924C5.8368 6.57742 5.83862 6.5756 5.84044 6.57378C5.84226 6.57195 5.84408 6.57013 5.8459 6.56831C5.84772 6.56649 5.84954 6.56467 5.85136 6.56286C5.85318 6.56104 5.855 6.55922 5.85681 6.5574C5.85863 6.55558 5.86045 6.55376 5.86227 6.55195C5.86408 6.55013 5.8659 6.54831 5.86772 6.5465C5.86953 6.54468 5.87135 6.54287 5.87316 6.54105C5.87498 6.53924 5.87679 6.53742 5.87861 6.53561C5.88042 6.53379 5.88223 6.53198 5.88405 6.53017C5.88586 6.52835 5.88767 6.52654 5.88949 6.52473C5.8913 6.52292 5.89311 6.5211 5.89492 6.51929C5.89673 6.51748 5.89854 6.51567 5.90035 6.51386C5.90216 6.51205 5.90397 6.51024 5.90578 6.50843C5.90759 6.50662 5.9094 6.50481 5.91121 6.503C5.91302 6.50119 5.91483 6.49939 5.91664 6.49758C5.91844 6.49577 5.92025 6.49396 5.92206 6.49216C5.92387 6.49035 5.92567 6.48854 5.92748 6.48673C5.92929 6.48493 5.93109 6.48312 5.9329 6.48132C5.9347 6.47951 5.93651 6.47771 5.93831 6.4759C5.94012 6.4741 5.94192 6.47229 5.94373 6.47049C5.94553 6.46868 5.94733 6.46688 5.94914 6.46508C5.95094 6.46327 5.95274 6.46147 5.95455 6.45967C5.95635 6.45787 5.95815 6.45606 5.95995 6.45426C5.96175 6.45246 5.96355 6.45066 5.96536 6.44886C5.96716 6.44706 5.96896 6.44526 5.97076 6.44346C5.97256 6.44166 5.97436 6.43986 5.97616 6.43806C5.97796 6.43626 5.97976 6.43446 5.98156 6.43266C5.98336 6.43086 5.98515 6.42906 5.98695 6.42726C5.98875 6.42546 5.99055 6.42366 5.99235 6.42187C5.99415 6.42007 5.99594 6.41827 5.99774 6.41647C5.99954 6.41468 6.00133 6.41288 6.00313 6.41108C6.00493 6.40929 6.00672 6.40749 6.00852 6.40569C6.01032 6.4039 6.01211 6.4021 6.01391 6.40031C6.0157 6.39851 6.0175 6.39672 6.01929 6.39492C6.02109 6.39313 6.02288 6.39133 6.02468 6.38954C6.02647 6.38774 6.02827 6.38595 6.03006 6.38415C6.03185 6.38236 6.03365 6.38057 6.03544 6.37877C6.03723 6.37698 6.03903 6.37519 6.04082 6.37339C6.04261 6.3716 6.04441 6.36981 6.0462 6.36802C6.04799 6.36622 6.04978 6.36443 6.05158 6.36264C6.05337 6.36085 6.05516 6.35906 6.05695 6.35726C6.05874 6.35547 6.06053 6.35368 6.06232 6.35189C6.06412 6.3501 6.06591 6.34831 6.0677 6.34652C6.06949 6.34473 6.07128 6.34294 6.07307 6.34115C6.07486 6.33935 6.07665 6.33756 6.07844 6.33577C6.08023 6.33398 6.08202 6.33219 6.08381 6.3304C6.0856 6.32862 6.08739 6.32683 6.08918 6.32504C6.09097 6.32325 6.09276 6.32146 6.09454 6.31967C6.09633 6.31788 6.09812 6.31609 6.09991 6.3143C6.1017 6.31251 6.10349 6.31073 6.10528 6.30894C6.10707 6.30715 6.10885 6.30536 6.11064 6.30357C6.11243 6.30178 6.11422 6.3 6.116 6.29821C6.11779 6.29642 6.11958 6.29463 6.12137 6.29285C6.12316 6.29106 6.12494 6.28927 6.12673 6.28748C6.12852 6.2857 6.1303 6.28391 6.13209 6.28212C6.13388 6.28033 6.13567 6.27855 6.13745 6.27676C6.13924 6.27497 6.14103 6.27319 6.14281 6.2714C6.1446 6.26961 6.14639 6.26783 6.14817 6.26604C6.14996 6.26425 6.15175 6.26247 6.15353 6.26068C6.15532 6.2589 6.1571 6.25711 6.15889 6.25532C6.16068 6.25354 6.16246 6.25175 6.16425 6.24996C6.16604 6.24818 6.16782 6.24639 6.16961 6.24461C6.17139 6.24282 6.17318 6.24103 6.17496 6.23925C6.17675 6.23746 6.17854 6.23568 6.18032 6.23389C6.18211 6.23211 6.18389 6.23032 6.18568 6.22853C6.18747 6.22675 6.18925 6.22496 6.19104 6.22318C6.19282 6.22139 6.19461 6.21961 6.19639 6.21782C6.19818 6.21603 6.19996 6.21425 6.20175 6.21246C6.20354 6.21068 6.20532 6.20889 6.20711 6.20711C6.20889 6.20532 6.21068 6.20354 6.21246 6.20175C6.21425 6.19996 6.21603 6.19818 6.21782 6.19639C6.21961 6.19461 6.22139 6.19282 6.22318 6.19104C6.22496 6.18925 6.22675 6.18747 6.22853 6.18568C6.23032 6.18389 6.23211 6.18211 6.23389 6.18032C6.23568 6.17854 6.23746 6.17675 6.23925 6.17496C6.24103 6.17318 6.24282 6.17139 6.24461 6.16961C6.24639 6.16782 6.24818 6.16604 6.24996 6.16425C6.25175 6.16246 6.25354 6.16068 6.25532 6.15889C6.25711 6.1571 6.2589 6.15532 6.26068 6.15353C6.26247 6.15175 6.26425 6.14996 6.26604 6.14817C6.26783 6.14639 6.26961 6.1446 6.2714 6.14281C6.27319 6.14103 6.27497 6.13924 6.27676 6.13745C6.27855 6.13567 6.28033 6.13388 6.28212 6.13209C6.28391 6.1303 6.2857 6.12852 6.28748 6.12673C6.28927 6.12494 6.29106 6.12316 6.29285 6.12137C6.29463 6.11958 6.29642 6.11779 6.29821 6.116C6.3 6.11422 6.30178 6.11243 6.30357 6.11064C6.30536 6.10885 6.30715 6.10707 6.30894 6.10528C6.31073 6.10349 6.31251 6.1017 6.3143 6.09991C6.31609 6.09812 6.31788 6.09633 6.31967 6.09454C6.32146 6.09276 6.32325 6.09097 6.32504 6.08918C6.32683 6.08739 6.32862 6.0856 6.3304 6.08381C6.33219 6.08202 6.33398 6.08023 6.33577 6.07844C6.33756 6.07665 6.33935 6.07486 6.34115 6.07307C6.34294 6.07128 6.34473 6.06949 6.34652 6.0677C6.34831 6.06591 6.3501 6.06412 6.35189 6.06232C6.35368 6.06053 6.35547 6.05874 6.35726 6.05695C6.35906 6.05516 6.36085 6.05337 6.36264 6.05158C6.36443 6.04978 6.36622 6.04799 6.36802 6.0462C6.36981 6.04441 6.3716 6.04261 6.37339 6.04082C6.37519 6.03903 6.37698 6.03723 6.37877 6.03544C6.38057 6.03365 6.38236 6.03185 6.38415 6.03006C6.38595 6.02827 6.38774 6.02647 6.38954 6.02468C6.39133 6.02288 6.39313 6.02109 6.39492 6.01929C6.39672 6.0175 6.39851 6.0157 6.40031 6.01391C6.4021 6.01211 6.4039 6.01032 6.40569 6.00852C6.40749 6.00672 6.40929 6.00493 6.41108 6.00313C6.41288 6.00133 6.41468 5.99954 6.41647 5.99774C6.41827 5.99594 6.42007 5.99415 6.42187 5.99235C6.42366 5.99055 6.42546 5.98875 6.42726 5.98695C6.42906 5.98515 6.43086 5.98336 6.43266 5.98156C6.43446 5.97976 6.43626 5.97796 6.43806 5.97616C6.43986 5.97436 6.44166 5.97256 6.44346 5.97076C6.44526 5.96896 6.44706 5.96716 6.44886 5.96536C6.45066 5.96355 6.45246 5.96175 6.45426 5.95995C6.45606 5.95815 6.45787 5.95635 6.45967 5.95455C6.46147 5.95274 6.46327 5.95094 6.46508 5.94914C6.46688 5.94733 6.46868 5.94553 6.47049 5.94373C6.47229 5.94192 6.4741 5.94012 6.4759 5.93831C6.47771 5.93651 6.47951 5.9347 6.48132 5.9329C6.48312 5.93109 6.48493 5.92929 6.48673 5.92748C6.48854 5.92567 6.49035 5.92387 6.49216 5.92206C6.49396 5.92025 6.49577 5.91844 6.49758 5.91664C6.49939 5.91483 6.50119 5.91302 6.503 5.91121C6.50481 5.9094 6.50662 5.90759 6.50843 5.90578C6.51024 5.90397 6.51205 5.90216 6.51386 5.90035C6.51567 5.89854 6.51748 5.89673 6.51929 5.89492C6.5211 5.89311 6.52292 5.8913 6.52473 5.88949C6.52654 5.88767 6.52835 5.88586 6.53017 5.88405C6.53198 5.88223 6.53379 5.88042 6.53561 5.87861C6.53742 5.87679 6.53924 5.87498 6.54105 5.87316C6.54287 5.87135 6.54468 5.86953 6.5465 5.86772C6.54831 5.8659 6.55013 5.86408 6.55195 5.86227C6.55376 5.86045 6.55558 5.85863 6.5574 5.85681C6.55922 5.855 6.56104 5.85318 6.56286 5.85136C6.56467 5.84954 6.56649 5.84772 6.56831 5.8459C6.57013 5.84408 6.57195 5.84226 6.57378 5.84044C6.5756 5.83862 6.57742 5.8368 6.57924 5.83497C6.58106 5.83315 6.58289 5.83133 6.58471 5.82951C6.58653 5.82768 6.58836 5.82586 6.59018 5.82403C6.592 5.82221 6.59383 5.82039 6.59565 5.81856C6.59748 5.81674 6.5993 5.81491 6.60113 5.81308C6.60296 5.81126 6.60478 5.80943 6.60661 5.8076C6.60844 5.80577 6.61027 5.80395 6.6121 5.80212C6.61393 5.80029 6.61575 5.79846 6.61758 5.79663C6.61941 5.7948 6.62124 5.79297 6.62308 5.79114C6.62491 5.78931 6.62674 5.78748 6.62857 5.78564C6.6304 5.78381 6.63224 5.78198 6.63407 5.78014C6.6359 5.77831 6.63774 5.77648 6.63957 5.77464C6.65917 5.75504 6.66404 5.75017 6.68373 5.73049C6.68557 5.72864 6.68742 5.7268 6.68926 5.72495C6.69111 5.72311 6.69296 5.72126 6.6948 5.71941C6.70466 5.70955 6.69603 5.71818 6.7059 5.70832C6.71577 5.69844 6.70713 5.70708 6.71701 5.6972C6.71886 5.69535 6.72072 5.6935 6.72257 5.69164C6.72443 5.68979 6.72628 5.68793 6.72814 5.68608C6.73806 5.67616 6.72936 5.68485 6.73928 5.67493C6.7492 5.66502 6.74053 5.67368 6.75045 5.66376C6.77034 5.64388 6.75292 5.6613 6.77283 5.64138C6.7828 5.63141 6.7853 5.62892 6.79529 5.61892C6.85559 5.55862 6.75751 5.6567 6.81784 5.59638C6.85809 5.55612 6.82279 5.59142 6.86317 5.55105C6.90383 5.51038 6.84527 5.56894 6.88596 5.52825C6.90637 5.50784 6.88842 5.5258 6.90885 5.50536C6.92927 5.48495 6.91139 5.50282 6.93183 5.48238C6.95236 5.46185 6.93435 5.47986 6.95491 5.4593C6.95684 5.45737 6.95877 5.45544 6.9607 5.45351C6.96263 5.45158 6.96456 5.44965 6.96649 5.44772C6.96842 5.44579 6.97036 5.44386 6.97229 5.44192C6.97422 5.43999 6.97616 5.43806 6.97809 5.43612C6.98841 5.4258 6.99103 5.42319 7.00138 5.41284C7.04285 5.37137 6.97158 5.44264 7.01306 5.40116C7.01501 5.39921 7.01696 5.39726 7.01891 5.39531C7.02086 5.39335 7.02281 5.3914 7.02477 5.38945C7.0665 5.34771 7.00649 5.40772 7.04826 5.36595C7.09017 5.32404 7.05354 5.36068 7.0956 5.31862C7.11672 5.2975 7.09828 5.31593 7.11944 5.29477C7.13009 5.28413 7.13272 5.2815 7.1434 5.27081C7.18608 5.22814 7.12477 5.28944 7.16749 5.24672C7.1695 5.24471 7.17152 5.2427 7.17353 5.24068C7.17555 5.23867 7.17756 5.23665 7.17958 5.23463C7.20113 5.21309 7.17015 5.24407 7.1917 5.22251C7.19373 5.22049 7.19575 5.21846 7.19778 5.21644C7.1998 5.21441 7.20183 5.21238 7.20386 5.21035C7.21468 5.19954 7.20522 5.20899 7.21605 5.19817C7.21808 5.19613 7.22012 5.1941 7.22215 5.19206C7.22419 5.19002 7.22623 5.18798 7.22827 5.18595C7.23031 5.18391 7.23235 5.18186 7.23439 5.17982C7.23643 5.17778 7.23848 5.17574 7.24052 5.17369C7.24257 5.17165 7.24462 5.1696 7.24666 5.16755C7.24871 5.1655 7.25076 5.16345 7.25281 5.1614C7.27477 5.13945 7.24317 5.17105 7.26513 5.14908C7.26719 5.14702 7.26925 5.14496 7.27131 5.14291C7.27337 5.14085 7.27543 5.13878 7.27749 5.13672C7.27955 5.13466 7.28162 5.1326 7.28368 5.13053C7.28575 5.12847 7.28782 5.1264 7.28988 5.12433C7.33418 5.08003 7.29532 5.11889 7.33981 5.0744C7.36215 5.05207 7.33003 5.08418 7.35238 5.06183C7.37482 5.0394 7.34255 5.07167 7.36499 5.04922C7.3671 5.04712 7.3692 5.04501 7.37131 5.0429C7.37342 5.04079 7.37553 5.03868 7.37764 5.03657C7.40023 5.01398 7.36772 5.04649 7.39033 5.02389C7.41296 5.00126 7.41861 4.9956 7.44145 4.97276C7.44145 4.97276 7.4672 4.94701 7.46725 4.94696C7.46941 4.9448 7.47157 4.94264 7.47373 4.94048C7.47589 4.93832 7.47805 4.93616 7.48022 4.934C7.49757 4.91665 7.47585 4.93836 7.49322 4.921C7.50481 4.9094 7.50769 4.90652 7.51935 4.89487C7.53097 4.88325 7.53397 4.88025 7.54564 4.86857C7.54784 4.86637 7.55004 4.86417 7.55224 4.86197C7.55444 4.85977 7.55665 4.85757 7.55885 4.85536C7.56106 4.85316 7.56327 4.85095 7.56548 4.84874C7.56768 4.84653 7.5699 4.84432 7.57211 4.84211C7.58245 4.83177 7.57505 4.83916 7.58541 4.82881C7.58763 4.82659 7.58985 4.82437 7.59207 4.82214C7.5943 4.81992 7.59652 4.81769 7.59875 4.81547C7.60098 4.81324 7.60321 4.81101 7.60544 4.80878C7.60767 4.80655 7.6099 4.80431 7.61213 4.80208C7.63598 4.77823 7.6017 4.81251 7.62557 4.78865C7.62855 4.78566 7.63604 4.77817 7.63904 4.77517C7.64129 4.77292 7.64354 4.77067 7.6458 4.76842C7.64805 4.76616 7.65031 4.76391 7.65256 4.76165C7.67063 4.74359 7.66162 4.7526 7.67974 4.73447C7.69187 4.72234 7.68125 4.73296 7.6934 4.72081C7.70253 4.71168 7.69796 4.71625 7.70711 4.70711L6.29289 3.29289C6.27765 3.30813 6.29441 3.29137 6.27919 3.3066C6.27311 3.31268 6.27159 3.3142 6.26553 3.32026C6.23536 3.35043 6.26846 3.31733 6.23835 3.34744C6.23609 3.3497 6.23384 3.35195 6.23158 3.3542C6.22933 3.35646 6.22708 3.35871 6.22483 3.36096C6.22183 3.36396 6.21434 3.37145 6.21135 3.37443C6.20911 3.37668 6.20687 3.37892 6.20463 3.38116C6.20239 3.38339 6.20016 3.38563 6.19792 3.38787C6.18601 3.39978 6.19644 3.38935 6.18454 3.40125C6.17858 3.40721 6.16379 3.42199 6.15789 3.42789C6.15568 3.4301 6.15347 3.43232 6.15126 3.43453C6.14905 3.43673 6.14685 3.43894 6.14464 3.44115C6.13583 3.44996 6.14023 3.44556 6.13143 3.45436C6.09651 3.48927 6.13999 3.4458 6.10513 3.48065C6.04688 3.53891 6.1372 3.44858 6.079 3.50678C5.98604 3.59975 5.96537 3.62042 5.87567 3.71012C5.78805 3.79774 5.76624 3.81954 5.68138 3.9044C5.67082 3.91497 5.66818 3.9176 5.65766 3.92813C5.62606 3.95973 5.66561 3.92017 5.63405 3.95174C5.62358 3.96221 5.62099 3.9648 5.61055 3.97523C5.6086 3.97719 5.60665 3.97914 5.60469 3.98109C5.60274 3.98304 5.60079 3.98499 5.59884 3.98694C5.5781 4.00769 5.6079 3.97789 5.58716 3.99862C5.54888 4.0369 5.53239 4.0534 5.49464 4.09115C5.33406 4.25173 5.29228 4.2935 5.13773 4.44805C5.13592 4.44987 5.1341 4.45169 5.13228 4.4535C5.13047 4.45532 5.12865 4.45713 5.12684 4.45895C5.12502 4.46076 5.12321 4.46258 5.12139 4.46439C5.11958 4.46621 5.11777 4.46802 5.11595 4.46983C5.11414 4.47165 5.11233 4.47346 5.11052 4.47527C5.1087 4.47708 5.10689 4.4789 5.10508 4.48071C5.10327 4.48252 5.10146 4.48433 5.09965 4.48614C5.09784 4.48795 5.09603 4.48976 5.09422 4.49157C5.09241 4.49338 5.0906 4.49519 5.08879 4.497C5.08698 4.49881 5.08517 4.50061 5.08336 4.50242C5.08156 4.50423 5.07975 4.50604 5.07794 4.50785C5.07613 4.50965 5.07433 4.51146 5.07252 4.51327C5.07071 4.51507 5.06891 4.51688 5.0671 4.51868C5.0653 4.52049 5.06349 4.52229 5.06169 4.5241C5.05988 4.5259 5.05808 4.52771 5.05627 4.52951C5.05447 4.53132 5.05267 4.53312 5.05086 4.53492C5.04906 4.53673 5.04726 4.53853 5.04546 4.54033C5.04365 4.54213 5.04185 4.54394 5.04005 4.54574C5.03825 4.54754 5.03645 4.54934 5.03464 4.55114C5.03284 4.55294 5.03104 4.55474 5.02924 4.55654C5.02744 4.55834 5.02564 4.56014 5.02384 4.56194C5.02204 4.56374 5.02024 4.56554 5.01844 4.56734C5.01664 4.56914 5.01485 4.57094 5.01305 4.57274C5.01125 4.57454 5.00945 4.57634 5.00765 4.57813C5.00586 4.57993 5.00406 4.58173 5.00226 4.58353C5.00046 4.58532 4.99867 4.58712 4.99687 4.58892C4.99507 4.59071 4.99328 4.59251 4.99148 4.59431C4.98968 4.5961 4.98789 4.5979 4.98609 4.59969C4.9843 4.60149 4.9825 4.60328 4.98071 4.60508C4.97891 4.60687 4.97712 4.60867 4.97532 4.61046C4.97353 4.61226 4.97173 4.61405 4.96994 4.61585C4.96815 4.61764 4.96635 4.61943 4.96456 4.62123C4.96277 4.62302 4.96097 4.62481 4.95918 4.62661C4.95739 4.6284 4.95559 4.63019 4.9538 4.63198C4.95201 4.63378 4.95022 4.63557 4.94843 4.63736C4.94663 4.63915 4.94484 4.64095 4.94305 4.64274C4.94126 4.64453 4.93947 4.64632 4.93768 4.64811C4.93588 4.6499 4.93409 4.65169 4.9323 4.65348C4.93051 4.65527 4.92872 4.65707 4.92693 4.65886C4.92514 4.66065 4.92335 4.66244 4.92156 4.66423C4.91977 4.66602 4.91798 4.66781 4.91619 4.6696C4.9144 4.67139 4.91261 4.67317 4.91082 4.67496C4.90903 4.67675 4.90724 4.67854 4.90546 4.68033C4.90367 4.68212 4.90188 4.68391 4.90009 4.6857C4.8983 4.68749 4.89651 4.68927 4.89472 4.69106C4.89294 4.69285 4.89115 4.69464 4.88936 4.69643C4.88757 4.69822 4.88578 4.7 4.884 4.70179C4.88221 4.70358 4.88042 4.70537 4.87863 4.70715C4.87684 4.70894 4.87506 4.71073 4.87327 4.71252C4.87148 4.7143 4.8697 4.71609 4.86791 4.71788C4.86612 4.71967 4.86433 4.72145 4.86255 4.72324C4.86076 4.72503 4.85897 4.72681 4.85719 4.7286C4.8554 4.73039 4.85361 4.73217 4.85183 4.73396C4.85004 4.73575 4.84825 4.73753 4.84647 4.73932C4.84468 4.7411 4.8429 4.74289 4.84111 4.74468C4.83932 4.74646 4.83754 4.74825 4.83575 4.75004C4.83397 4.75182 4.83218 4.75361 4.83039 4.75539C4.82861 4.75718 4.82682 4.75897 4.82504 4.76075C4.82325 4.76254 4.82146 4.76432 4.81968 4.76611C4.81789 4.76789 4.81611 4.76968 4.81432 4.77147C4.81254 4.77325 4.81075 4.77504 4.80896 4.77682C4.80718 4.77861 4.80539 4.78039 4.80361 4.78218C4.80182 4.78397 4.80004 4.78575 4.79825 4.78754C4.79646 4.78932 4.79468 4.79111 4.79289 4.79289C4.79111 4.79468 4.78932 4.79646 4.78754 4.79825C4.78575 4.80004 4.78397 4.80182 4.78218 4.80361C4.78039 4.80539 4.77861 4.80718 4.77682 4.80896C4.77504 4.81075 4.77325 4.81254 4.77147 4.81432C4.76968 4.81611 4.76789 4.81789 4.76611 4.81968C4.76432 4.82146 4.76254 4.82325 4.76075 4.82504C4.75897 4.82682 4.75718 4.82861 4.75539 4.83039C4.75361 4.83218 4.75182 4.83397 4.75004 4.83575C4.74825 4.83754 4.74646 4.83932 4.74468 4.84111C4.74289 4.8429 4.7411 4.84468 4.73932 4.84647C4.73753 4.84825 4.73575 4.85004 4.73396 4.85183C4.73217 4.85361 4.73039 4.8554 4.7286 4.85719C4.72681 4.85897 4.72503 4.86076 4.72324 4.86255C4.72145 4.86433 4.71967 4.86612 4.71788 4.86791C4.71609 4.8697 4.7143 4.87148 4.71252 4.87327C4.71073 4.87506 4.70894 4.87684 4.70715 4.87863C4.70537 4.88042 4.70358 4.88221 4.70179 4.884C4.7 4.88578 4.69822 4.88757 4.69643 4.88936C4.69464 4.89115 4.69285 4.89294 4.69106 4.89472C4.68927 4.89651 4.68749 4.8983 4.6857 4.90009C4.68391 4.90188 4.68212 4.90367 4.68033 4.90546C4.67854 4.90724 4.67675 4.90903 4.67496 4.91082C4.67317 4.91261 4.67139 4.9144 4.6696 4.91619C4.66781 4.91798 4.66602 4.91977 4.66423 4.92156C4.66244 4.92335 4.66065 4.92514 4.65886 4.92693C4.65707 4.92872 4.65527 4.93051 4.65348 4.9323C4.65169 4.93409 4.6499 4.93588 4.64811 4.93768C4.64632 4.93947 4.64453 4.94126 4.64274 4.94305C4.64095 4.94484 4.63915 4.94663 4.63736 4.94843C4.63557 4.95022 4.63378 4.95201 4.63198 4.9538C4.63019 4.95559 4.6284 4.95739 4.62661 4.95918C4.62481 4.96097 4.62302 4.96277 4.62123 4.96456C4.61943 4.96635 4.61764 4.96815 4.61585 4.96994C4.61405 4.97173 4.61226 4.97353 4.61046 4.97532C4.60867 4.97712 4.60687 4.97891 4.60508 4.98071C4.60328 4.9825 4.60149 4.9843 4.59969 4.98609C4.5979 4.98789 4.5961 4.98968 4.59431 4.99148C4.59251 4.99328 4.59071 4.99507 4.58892 4.99687C4.58712 4.99867 4.58532 5.00046 4.58353 5.00226C4.58173 5.00406 4.57993 5.00586 4.57813 5.00765C4.57634 5.00945 4.57454 5.01125 4.57274 5.01305C4.57094 5.01485 4.56914 5.01664 4.56734 5.01844C4.56554 5.02024 4.56374 5.02204 4.56194 5.02384C4.56014 5.02564 4.55834 5.02744 4.55654 5.02924C4.55474 5.03104 4.55294 5.03284 4.55114 5.03464C4.54934 5.03645 4.54754 5.03825 4.54574 5.04005C4.54394 5.04185 4.54213 5.04365 4.54033 5.04546C4.53853 5.04726 4.53673 5.04906 4.53492 5.05086C4.53312 5.05267 4.53132 5.05447 4.52951 5.05627C4.52771 5.05808 4.5259 5.05988 4.5241 5.06169C4.52229 5.06349 4.52049 5.0653 4.51868 5.0671C4.51688 5.06891 4.51507 5.07071 4.51327 5.07252C4.51146 5.07433 4.50965 5.07613 4.50785 5.07794C4.50604 5.07975 4.50423 5.08156 4.50242 5.08336C4.50061 5.08517 4.49881 5.08698 4.497 5.08879C4.49519 5.0906 4.49338 5.09241 4.49157 5.09422C4.48976 5.09603 4.48795 5.09784 4.48614 5.09965C4.48433 5.10146 4.48252 5.10327 4.48071 5.10508C4.4789 5.10689 4.47708 5.1087 4.47527 5.11052C4.47346 5.11233 4.47165 5.11414 4.46983 5.11595C4.46802 5.11777 4.46621 5.11958 4.46439 5.12139C4.46258 5.12321 4.46076 5.12502 4.45895 5.12684C4.45713 5.12865 4.45532 5.13047 4.4535 5.13228C4.45169 5.1341 4.44987 5.13592 4.44805 5.13773C4.29332 5.29247 4.25192 5.33387 4.09115 5.49464C3.92746 5.65832 3.88386 5.70193 3.71012 5.87567C3.53242 6.05337 3.48467 6.10112 3.29289 6.29289L4.70711 7.70711Z" fill="white"/>
</svg>
