<svg width="8" height="8" viewBox="0 0 8 8" fill="none"
    xmlns="http://www.w3.org/2000/svg">
    <path d="M3 7C3 7.55228 3.44771 8 4 8C4.55228 8 5 7.55228 5 7L3 7ZM5 1.85714L5 0.857144L3 0.857144L3 1.85714L5 1.85714ZM6.29289 4.70711C6.68342 5.09763 7.31658 5.09763 7.70711 4.70711C8.09763 4.31658 8.09763 3.68342 7.70711 3.29289L6.29289 4.70711ZM4 1L4.70711 0.292893C4.31658 -0.0976307 3.68342 -0.0976308 3.29289 0.292893L4 1ZM0.292893 3.29289C-0.0976312 3.68342 -0.0976312 4.31658 0.292893 4.70711C0.683417 5.09763 1.31658 5.09763 1.70711 4.70711L0.292893 3.29289ZM5 7L5 1.85714L3 1.85714L3 7L5 7ZM7.70711 3.29289L4.70711 0.292893L3.29289 1.70711L6.29289 4.70711L7.70711 3.29289ZM3.29289 0.292893C3.01112 0.574667 2.72816 0.857629 2.49464 1.09115C2.49273 1.09306 2.49082 1.09497 2.48891 1.09688C2.487 1.09879 2.48509 1.1007 2.48318 1.1026C2.46126 1.12453 2.49367 1.09212 2.47175 1.11404C2.46985 1.11594 2.46794 1.11784 2.46604 1.11974C2.46414 1.12165 2.46224 1.12355 2.46034 1.12545C2.45844 1.12735 2.45654 1.12924 2.45464 1.13114C2.45275 1.13304 2.45085 1.13494 2.44895 1.13683C2.44727 1.13852 2.43926 1.14652 2.43759 1.1482C2.4357 1.15009 2.4338 1.15198 2.43191 1.15387C2.43002 1.15576 2.42813 1.15765 2.42625 1.15954C2.3973 1.18848 2.44386 1.14193 2.41492 1.17086C2.41304 1.17275 2.41115 1.17463 2.40927 1.17652C2.40739 1.1784 2.4055 1.18028 2.40362 1.18216C2.37041 1.21537 2.41426 1.17152 2.38108 1.20471C2.37921 1.20658 2.37733 1.20845 2.37546 1.21033C2.37359 1.2122 2.37171 1.21407 2.36984 1.21595C2.36797 1.21782 2.3661 1.21969 2.36423 1.22156C2.36236 1.22343 2.36049 1.2253 2.35862 1.22717C2.35675 1.22903 2.35488 1.2309 2.35302 1.23277C2.35115 1.23464 2.34928 1.2365 2.34742 1.23837C2.34555 1.24023 2.34369 1.2421 2.34182 1.24396C2.33996 1.24583 2.3381 1.24769 2.33624 1.24955C2.31291 1.27287 2.33722 1.24856 2.31392 1.27186C2.26024 1.32554 2.34534 1.24044 2.29168 1.2941C2.28858 1.29721 2.27259 1.31319 2.26951 1.31627C2.26573 1.32005 2.25116 1.33463 2.2474 1.33838C2.23397 1.35181 2.23877 1.34702 2.22536 1.36043C2.20985 1.37593 2.21886 1.36693 2.20337 1.38242C2.18878 1.397 2.19601 1.38978 2.18144 1.40435C2.16591 1.41988 2.17508 1.41071 2.15956 1.42622C2.15774 1.42805 2.15592 1.42987 2.1541 1.43169C2.15228 1.43351 2.15046 1.43533 2.14864 1.43714C2.13393 1.45185 2.15244 1.43335 2.13773 1.44805C2.13231 1.45348 2.09958 1.4862 2.09422 1.49157C2.09226 1.49353 2.07447 1.51132 2.07252 1.51327C2.07247 1.51332 2.0509 1.53488 2.05086 1.53492C2.03731 1.54847 2.04278 1.543 2.02924 1.55654C1.96788 1.6179 2.069 1.51679 2.00765 1.57813C1.98782 1.59796 1.98435 1.60143 1.96456 1.62123C1.95048 1.63531 1.89262 1.69317 1.87863 1.70715C1.85006 1.73572 1.82143 1.76436 1.79289 1.79289C1.76436 1.82143 1.73572 1.85006 1.70715 1.87863C1.68252 1.90327 1.68888 1.8969 1.66423 1.92156C1.63039 1.9554 1.6551 1.93069 1.62123 1.96456C1.60143 1.98435 1.59796 1.98782 1.57813 2.00765C1.57634 2.00945 1.57454 2.01125 1.57274 2.01305C1.57094 2.01485 1.56914 2.01664 1.56734 2.01844C1.56374 2.02204 1.56015 2.02564 1.55654 2.02924C1.543 2.04278 1.54848 2.03731 1.53492 2.05086C1.52668 2.0591 1.52152 2.06427 1.51327 2.07252C1.45573 2.13006 1.55996 2.02582 1.50242 2.08336C1.50062 2.08517 1.49881 2.08698 1.497 2.08879C1.49519 2.0906 1.49338 2.09241 1.49157 2.09422C1.4862 2.09958 1.45348 2.13231 1.44805 2.13773C1.43749 2.1483 1.37128 2.21451 1.36043 2.22536C1.35617 2.22962 1.32062 2.26517 1.31628 2.26951C1.29634 2.28945 1.29189 2.2939 1.27186 2.31392C1.24669 2.3391 1.25244 2.33335 1.22717 2.35862C1.21096 2.37482 1.22094 2.36485 1.20471 2.38108C1.19623 2.38956 1.20193 2.38386 1.19345 2.39234C1.19157 2.39422 1.18969 2.3961 1.18781 2.39798C1.18593 2.39986 1.18405 2.40174 1.18217 2.40362C1.13863 2.44716 1.13516 2.45063 1.09115 2.49464C1.05587 2.52992 1.0805 2.50529 1.04509 2.5407C1.04316 2.54263 1.04123 2.54456 1.0393 2.54649C1.03737 2.54842 1.03544 2.55035 1.03351 2.55228C1.03158 2.55421 1.02964 2.55614 1.02771 2.55808C1.02578 2.56001 1.02384 2.56194 1.02191 2.56388C1.01997 2.56582 1.01803 2.56775 1.0161 2.56969C1.01416 2.57163 1.01222 2.57357 1.01028 2.57551C1.0076 2.57818 1.00131 2.58448 0.998623 2.58716C0.939655 2.64613 1.04592 2.53987 0.986943 2.59884C0.984993 2.60079 0.983043 2.60274 0.981092 2.60469C0.979141 2.60665 0.977188 2.6086 0.975234 2.61055C0.955399 2.63039 0.971609 2.61418 0.951737 2.63405C0.949774 2.63601 0.94781 2.63798 0.945845 2.63994C0.94388 2.64191 0.941914 2.64387 0.939946 2.64584C0.922752 2.66303 0.945331 2.64046 0.928127 2.65766C0.926155 2.65963 0.924181 2.6616 0.922207 2.66358C0.920232 2.66555 0.918256 2.66753 0.916279 2.66951C0.914302 2.67148 0.912324 2.67346 0.910345 2.67544C0.908365 2.67742 0.906384 2.6794 0.904402 2.68138C0.863836 2.72195 0.897324 2.68846 0.856596 2.72919C0.854595 2.73119 0.852591 2.7332 0.850586 2.7352C0.848582 2.7372 0.846576 2.73921 0.844569 2.74122C0.827058 2.75873 0.850031 2.73575 0.832509 2.75328C0.827844 2.75794 0.813005 2.77278 0.808296 2.77749C0.771089 2.8147 0.796861 2.78893 0.759477 2.82631C0.743079 2.84271 0.726699 2.85909 0.710116 2.87567C0.699276 2.88651 0.520891 3.0649 0.506783 3.079C0.456395 3.12939 0.531098 3.05469 0.480655 3.10513C0.461522 3.12426 0.473548 3.11224 0.454359 3.13143C0.394196 3.19159 0.461646 3.12414 0.401252 3.18453C0.399024 3.18676 0.396795 3.18899 0.394564 3.19122C0.392333 3.19345 0.3901 3.19569 0.387865 3.19792C0.34217 3.24362 0.420145 3.16564 0.374434 3.21135C0.330772 3.25501 0.391161 3.19463 0.347438 3.23835C0.323679 3.26211 0.357645 3.22814 0.333871 3.25192C0.332518 3.25327 0.321627 3.26416 0.320258 3.26553C0.309855 3.27593 0.317018 3.26877 0.306599 3.27919C0.30085 3.28494 0.298658 3.28713 0.292893 3.29289L1.70711 4.70711C1.70812 4.70609 1.71982 4.6944 1.72081 4.6934C1.72186 4.69236 1.73344 4.68077 1.73447 4.67974C1.73584 4.67837 1.74673 4.66748 1.74808 4.66613C1.74987 4.66435 1.75988 4.65433 1.76165 4.65256C1.80537 4.60884 1.74499 4.66923 1.78865 4.62557C1.80383 4.61038 1.80034 4.61387 1.81547 4.59875C1.83331 4.5809 1.85096 4.56325 1.86857 4.54564C1.87113 4.54309 1.89237 4.52184 1.89487 4.51935C1.92569 4.48853 1.89023 4.52398 1.921 4.49322C1.9774 4.43681 1.89061 4.5236 1.94696 4.46725C1.94912 4.4651 1.95127 4.46294 1.95342 4.46079C1.95558 4.45864 1.95773 4.45648 1.95988 4.45433C1.96203 4.45218 1.96418 4.45004 1.96633 4.44789C1.96847 4.44574 1.97062 4.4436 1.97276 4.44145C1.97664 4.43757 2.02022 4.394 2.02389 4.39033C2.04632 4.3679 2.05218 4.36204 2.0744 4.33981C2.14276 4.27146 2.05617 4.35804 2.12433 4.28988C2.14393 4.27028 2.11714 4.29708 2.13672 4.27749C2.14586 4.26835 2.13995 4.27426 2.14908 4.26513C2.15465 4.25957 2.16817 4.24604 2.17369 4.24052C2.17574 4.23848 2.17778 4.23643 2.17982 4.23439C2.18186 4.23235 2.18391 4.23031 2.18595 4.22827C2.18798 4.22623 2.19002 4.22419 2.19206 4.22215C2.1941 4.22012 2.19613 4.21808 2.19817 4.21605C2.2002 4.21401 2.20223 4.21198 2.20426 4.20995C2.2063 4.20792 2.20833 4.20589 2.21035 4.20386C2.21344 4.20077 2.21944 4.19478 2.22251 4.1917C2.22453 4.18968 2.22655 4.18766 2.22857 4.18564C2.2306 4.18362 2.23261 4.1816 2.23463 4.17958C2.25274 4.16148 2.22863 4.18559 2.24672 4.16749C2.2484 4.16581 2.26918 4.14504 2.27081 4.1434C2.28456 4.12965 2.30503 4.10919 2.31862 4.0956C2.32656 4.08765 2.33443 4.07978 2.34234 4.07187C2.34431 4.0699 2.34628 4.06793 2.34825 4.06596C2.35022 4.06399 2.35219 4.06202 2.35416 4.06005C2.36791 4.04631 2.35221 4.062 2.36595 4.04826C2.40503 4.00918 2.3504 4.06381 2.38945 4.02477C2.3914 4.02281 2.39335 4.02086 2.39531 4.01891C2.39726 4.01696 2.39921 4.01501 2.40116 4.01306C2.40311 4.01111 2.40505 4.00916 2.407 4.00721C2.40895 4.00527 2.41089 4.00332 2.41284 4.00138C2.41552 3.99869 2.42182 3.9924 2.42449 3.98972C2.42643 3.98778 2.42837 3.98584 2.43031 3.9839C2.43225 3.98197 2.43418 3.98003 2.43612 3.97809C2.47196 3.94225 2.42349 3.99072 2.4593 3.95491C2.52141 3.8928 2.44338 3.97083 2.50536 3.90885C2.56176 3.85245 2.49477 3.91945 2.55105 3.86317C2.57875 3.83546 2.56879 3.84542 2.59638 3.81783C2.66812 3.74609 2.61474 3.79948 2.68608 3.72814C2.73905 3.67516 2.81055 3.60367 2.86227 3.55195C2.88805 3.52616 3.01041 3.40381 3.03544 3.37877C3.07906 3.33516 3.03485 3.37936 3.07844 3.33577C3.08241 3.33181 3.11742 3.29679 3.12137 3.29285C3.14994 3.26428 3.17857 3.23564 3.20711 3.20711C3.23564 3.17857 3.26428 3.14994 3.29285 3.12137C3.31748 3.09673 3.31112 3.1031 3.33577 3.07844C3.36865 3.04557 3.32438 3.08983 3.35726 3.05695C3.36443 3.04979 3.3716 3.04261 3.37877 3.03544C3.38057 3.03365 3.38236 3.03185 3.38415 3.03006C3.38595 3.02827 3.38774 3.02647 3.38954 3.02468C3.39216 3.02206 3.39768 3.01653 3.40031 3.01391C3.44234 2.97188 3.36905 3.04516 3.41108 3.00313C3.41183 3.00238 3.42112 2.9931 3.42187 2.99235C3.46019 2.95402 3.39433 3.01988 3.43266 2.98156C3.43446 2.97976 3.43626 2.97796 3.43806 2.97616C3.43986 2.97436 3.44166 2.97256 3.44346 2.97076C3.457 2.95722 3.45152 2.96269 3.46508 2.94914C3.47332 2.9409 3.47848 2.93573 3.48673 2.92748C3.53079 2.88342 3.45352 2.9607 3.49758 2.91664C3.49939 2.91483 3.50119 2.91302 3.503 2.91121C3.50481 2.9094 3.50662 2.90759 3.50843 2.90578C3.51258 2.90164 3.526 2.88821 3.53017 2.88405C3.55743 2.85678 3.52467 2.88955 3.55195 2.86227C3.58326 2.83095 3.53154 2.88268 3.56286 2.85136C3.57724 2.83698 3.55939 2.85482 3.57378 2.84044C3.58929 2.82492 3.58012 2.83409 3.59565 2.81856C3.64415 2.77007 3.56907 2.84514 3.61758 2.79663C3.63851 2.7757 3.61862 2.79559 3.63957 2.77464C3.66734 2.74687 3.70002 2.71419 3.72814 2.68608C3.80097 2.61325 3.7446 2.66962 3.81784 2.59638C3.82022 2.59399 3.86066 2.55355 3.86317 2.55105C3.89848 2.51574 3.87342 2.54079 3.90885 2.50536C3.91561 2.49861 3.91357 2.50065 3.92033 2.49388C3.93142 2.48279 3.92074 2.49348 3.93183 2.48238C3.93375 2.48046 3.93567 2.47854 3.9376 2.47662C3.93952 2.4747 3.94144 2.47278 3.94336 2.47085C3.95483 2.45939 3.94344 2.47077 3.95491 2.4593C3.96091 2.4533 3.99524 2.41898 4.00138 2.41284C4.06196 2.35226 3.98754 2.42668 4.04826 2.36595C4.05589 2.35832 4.05242 2.3618 4.06005 2.35416C4.06202 2.35219 4.06399 2.35022 4.06596 2.34825C4.06793 2.34628 4.0699 2.34431 4.07187 2.34234C4.08028 2.33394 4.07531 2.33891 4.08372 2.33049C4.0857 2.32852 4.08768 2.32654 4.08966 2.32456C4.09164 2.32258 4.09362 2.3206 4.0956 2.31862C4.15739 2.25682 4.12925 2.28496 4.1917 2.22251C4.19373 2.22049 4.19575 2.21846 4.19778 2.21644C4.1998 2.21441 4.20183 2.21238 4.20386 2.21035C4.20831 2.2059 4.21158 2.20263 4.21605 2.19817C4.22359 2.19062 4.22071 2.1935 4.22827 2.18595C4.23031 2.18391 4.23235 2.18186 4.23439 2.17982C4.23643 2.17778 4.23848 2.17574 4.24052 2.17369C4.26355 2.15066 4.22977 2.18444 4.25281 2.1614C4.26547 2.14875 4.25247 2.16175 4.26513 2.14908C4.27426 2.13995 4.26835 2.14586 4.27749 2.13672C4.27955 2.13466 4.28162 2.1326 4.28368 2.13053C4.28575 2.12846 4.28782 2.1264 4.28988 2.12433C4.33967 2.07455 4.44017 1.97405 4.49322 1.921C4.55266 1.86155 4.48597 1.92824 4.54564 1.86857C4.57458 1.83963 4.56958 1.84464 4.59875 1.81547C4.68481 1.7294 4.62007 1.79415 4.70711 1.70711L3.29289 0.292893Z" fill="white"/>
</svg>
