<svg width="25" height="25" viewBox="0 0 25 25" fill="none" xmlns="http://www.w3.org/2000/svg">
  <path
    d="M15.0508 4.83152C14.1243 4.45651 13.1117 4.25 12.0508 4.25C7.6325 4.25 4.05078 7.83172 4.05078 12.25C4.05078 15.4131 5.88655 18.1475 8.55078 19.4458M9.05078 15.25V20.25H4.05078"
    stroke="currentColor" stroke-width="2" stroke-linecap="round" stroke-linejoin="round" />
  <path
    d="M13.0508 21.25C13.6031 21.25 14.0508 20.8023 14.0508 20.25C14.0508 19.6977 13.6031 19.25 13.0508 19.25C12.4985 19.25 12.0508 19.6977 12.0508 20.25C12.0508 20.8023 12.4985 21.25 13.0508 21.25Z"
    fill="currentColor" />
  <path
    d="M21.0508 11.25C21.0508 10.6977 20.6031 10.25 20.0508 10.25C19.4985 10.25 19.0508 10.6977 19.0508 11.25C19.0508 11.8023 19.4985 12.25 20.0508 12.25C20.6031 12.25 21.0508 11.8023 21.0508 11.25Z"
    fill="currentColor" />
  <path
    d="M19.9802 14.5179C20.4585 14.7941 20.6224 15.4057 20.3463 15.884C20.0701 16.3623 19.4585 16.5261 18.9802 16.25C18.502 15.9738 18.3381 15.3623 18.6142 14.884C18.8904 14.4057 19.502 14.2418 19.9802 14.5179Z"
    fill="currentColor" />
  <path
    d="M17.4184 19.5442C17.8967 19.2681 18.0606 18.6565 17.7844 18.1782C17.5083 17.6999 16.8967 17.536 16.4184 17.8121C15.9401 18.0883 15.7762 18.6999 16.0524 19.1782C16.3285 19.6565 16.9401 19.8203 17.4184 19.5442Z"
    fill="currentColor" />
  <path
    d="M18.9777 8.24998C18.4994 8.52612 17.8878 8.36225 17.6117 7.88396C17.3356 7.40566 17.4994 6.79407 17.9777 6.51793C18.456 6.24179 19.0676 6.40566 19.3438 6.88396C19.6199 7.36225 19.456 7.97384 18.9777 8.24998Z"
    fill="currentColor" />
</svg>

