<svg xmlns="http://www.w3.org/2000/svg" width="24" height="24" fill="none" viewBox="0 0 24 24">
  <path fill="currentColor" d="m3.651 16.868.991.132-.99-.132Zm15.698 0 .991-.132-.99.132Zm-1.056-7.92-.991.132.991-.133Zm-13.586 0-.991-.133.991.132ZM.265 7.037a1 1 0 1 0 1.954.426L.265 7.037Zm3.96-3.647a1 1 0 0 0-1.532-1.286L4.224 3.39Zm16.082-1.286a1 1 0 0 0-1.53 1.286l1.53-1.286Zm.475 5.359a1 1 0 0 0 1.954-.427l-1.954.427Zm-3.48 1.616L18.358 17l1.982-.264-1.056-7.92-1.982.264ZM18.358 17H4.642v2h13.716v-2ZM4.642 17l1.056-7.92-1.982-.265-1.056 7.92L4.642 17Zm0 0-1.982-.264A2 2 0 0 0 4.642 19v-2Zm13.716 0v2a2 2 0 0 0 1.982-2.264L18.358 17ZM11.5 4a5.853 5.853 0 0 1 5.802 5.08l1.982-.265A7.853 7.853 0 0 0 11.5 2v2Zm0-2a7.853 7.853 0 0 0-7.784 6.815l1.982.265A5.853 5.853 0 0 1 11.5 4V2Zm3.066 15.644C14.01 19.1 12.797 20 11.5 20v2c2.281 0 4.143-1.568 4.934-3.644l-1.868-.712ZM11.5 20c-1.297 0-2.51-.9-3.065-2.356l-1.87.712C7.358 20.432 9.22 22 11.5 22v-2ZM2.22 7.464A9.464 9.464 0 0 1 4.224 3.39l-1.53-1.286a11.464 11.464 0 0 0-2.43 4.932l1.955.427ZM18.776 3.39a9.465 9.465 0 0 1 2.006 4.073l1.954-.427a11.465 11.465 0 0 0-2.429-4.932l-1.53 1.286Z"/>
</svg>
