<svg xmlns="http://www.w3.org/2000/svg" width="16" height="16" fill="none" viewBox="0 0 16 16">
  <path fill="currentColor" d="m2.458 11.394.74.12-.74-.12Zm11.084 0-.74.12.74-.12Zm-.905-5.612.74-.12-.74.12Zm-9.274 0-.74-.12.74.12ZM.867 4.628a.75.75 0 1 0 1.443.411L.867 4.628Zm3.06-2.252a.75.75 0 1 0-1.034-1.088l1.033 1.088Zm9.18-1.088a.75.75 0 0 0-1.033 1.088l1.033-1.088Zm.583 3.751a.75.75 0 0 0 1.443-.411l-1.443.411Zm-1.794.863.905 5.611 1.481-.239-.905-5.611-1.48.239Zm.988 5.515H3.116v1.5h9.768v-1.5Zm-9.686.096.905-5.611-1.48-.24-.906 5.612 1.481.24Zm-.082-.096c.051 0 .09.046.082.096l-1.48-.239a1.417 1.417 0 0 0 1.398 1.643v-1.5Zm9.685.096a.083.083 0 0 1 .083-.096v1.5c.872 0 1.537-.781 1.398-1.643l-1.48.24ZM8 2.583a3.947 3.947 0 0 1 3.896 3.319l1.481-.24A5.447 5.447 0 0 0 8 1.084v1.5Zm0-1.5a5.447 5.447 0 0 0-5.377 4.58l1.48.239A3.947 3.947 0 0 1 8 2.583v-1.5ZM9.966 11.9c-.36.945-1.142 1.518-1.966 1.518v1.5c1.562 0 2.83-1.073 3.367-2.483L9.966 11.9ZM8 13.418c-.824 0-1.606-.573-1.966-1.518l-1.402.535c.538 1.41 1.806 2.483 3.368 2.483v-1.5ZM2.31 5.039a5.915 5.915 0 0 1 1.616-2.663L2.893 1.288a7.415 7.415 0 0 0-2.026 3.34l1.443.411Zm9.764-2.663a5.914 5.914 0 0 1 1.616 2.663l1.443-.411a7.415 7.415 0 0 0-2.026-3.34l-1.033 1.088Z"/>
</svg>
