<svg width="40" height="40" viewBox="0 0 40 40" fill="none" xmlns="http://www.w3.org/2000/svg">
<rect width="40" height="40" rx="20" fill="#F59300"/>
<path d="M27.4575 17.2929C27.7957 15.06 26.0748 13.8597 23.7217 13.0589L24.485 10.0342L22.6214 9.5754L21.8783 12.5204C21.3883 12.3998 20.8851 12.286 20.3851 12.1732L21.1335 9.20884L19.271 8.75L18.5071 11.7736C18.1016 11.6824 17.7035 11.5922 17.3171 11.4973L17.3192 11.4879L14.7491 10.8539L14.2533 12.8203C14.2533 12.8203 15.636 13.1334 15.6068 13.1528C16.3616 13.339 16.498 13.8324 16.4752 14.2236L15.6058 17.6694C15.6578 17.6825 15.7252 17.7014 15.7995 17.7308C15.7374 17.7156 15.6711 17.6988 15.6026 17.6825L14.3839 22.5096C14.2915 22.7361 14.0574 23.0759 13.5298 22.9469C13.5484 22.9736 12.1752 22.6129 12.1752 22.6129L11.25 24.7204L13.6752 25.3177C14.1264 25.4294 14.5686 25.5463 15.0038 25.6564L14.2326 28.7158L16.0941 29.1746L16.8579 26.1478C17.3664 26.2841 17.8601 26.41 18.3431 26.5285L17.582 29.5412L19.4456 30L20.2169 26.9465C23.3948 27.5406 25.7844 27.3009 26.7903 24.4614C27.6009 22.175 26.75 20.8562 25.0779 19.9961C26.2956 19.7187 27.2128 18.9274 27.4575 17.2929ZM23.1994 23.1918C22.6235 25.4782 18.7269 24.2422 17.4636 23.9322L18.487 19.8792C19.7503 20.1907 23.8014 20.8074 23.1994 23.1918ZM23.7759 17.2599C23.2504 19.3396 20.0072 18.2829 18.9551 18.0239L19.883 14.3479C20.935 14.607 24.3231 15.0904 23.7759 17.2599Z" fill="white"/>
</svg>
