<svg xmlns="http://www.w3.org/2000/svg" width="16" height="16" fill="none" viewBox="0 0 16 16">
  <path fill="currentColor" d="M11.98 6.922c.166-1.156-.682-1.777-1.84-2.191l.376-1.566-.918-.238-.366 1.525a37.27 37.27 0 0 0-.735-.18l.369-1.534-.917-.238-.376 1.565c-.2-.047-.396-.094-.586-.143v-.005L5.724 3.59 5.48 4.608s.68.162.666.172c.372.096.439.352.427.554l-.428 1.784a.739.739 0 0 1 .096.032l-.097-.025-.6 2.499c-.046.117-.16.293-.42.226.009.014-.668-.173-.668-.173L4 10.767l1.194.31c.222.057.44.118.654.175l-.38 1.583.917.238.376-1.567c.25.07.493.136.731.197l-.375 1.56.918.237.38-1.58c1.564.307 2.74.183 3.236-1.287.399-1.184-.02-1.866-.843-2.311.6-.144 1.05-.554 1.171-1.4ZM9.882 9.976c-.284 1.183-2.202.543-2.824.383l.504-2.098c.622.161 2.616.48 2.32 1.715Zm.284-3.07c-.26 1.076-1.856.529-2.374.395l.457-1.903c.518.134 2.186.384 1.917 1.507Z"/>
</svg>
