<svg xmlns="http://www.w3.org/2000/svg" width="24" height="24" fill="none" viewBox="0 0 24 24">
  <path fill="currentColor" d="M17.966 9.834c.27-1.786-1.106-2.746-2.989-3.387l.611-2.42-1.49-.367-.595 2.356a62.896 62.896 0 0 0-1.195-.277l.599-2.372L11.417 3l-.611 2.419a50.413 50.413 0 0 1-.952-.221l.001-.008L7.8 4.683l-.396 1.573s1.106.25 1.082.266c.604.15.713.544.695.857l-.695 2.757c.041.01.095.025.155.049l-.158-.039-.975 3.862c-.074.18-.261.453-.683.35.015.02-1.084-.268-1.084-.268L5 15.776l1.94.478c.361.09.715.183 1.063.271l-.617 2.448 1.49.367.61-2.422c.407.11.802.21 1.188.305l-.608 2.41 1.49.367.618-2.443c2.542.476 4.454.284 5.258-1.988.649-1.829-.032-2.884-1.37-3.572.974-.222 1.708-.855 1.904-2.163Zm-3.407 4.72c-.46 1.829-3.577.84-4.588.592l.819-3.243c1.01.25 4.251.743 3.77 2.65Zm.462-4.746c-.42 1.664-3.015.818-3.857.611l.742-2.94c.842.207 3.553.593 3.115 2.329Z"/>
</svg>
