<svg xmlns="http://www.w3.org/2000/svg" width="24" height="24" fill="none" viewBox="0 0 24 24">
  <path stroke="currentColor" stroke-linecap="round" stroke-linejoin="round" stroke-width="2" d="M16 10H5.868a.863.863 0 0 0-.868.857v6.286c0 .473.389.857.868.857h5.5m2.895-8V7.429C14.263 5.535 12.708 4 10.79 4 8.87 4 7.316 5.535 7.316 7.429V10"/>
  <path fill="currentColor" fill-rule="evenodd" d="M20.423 15.1c-.114-1.094-1.151-1.461-2.473-1.58L17.948 12l-1.02.001.003 1.482-.2-.002a18.401 18.401 0 0 0-.603.002l-.003-1.48h-1.048l.003 1.482-2.08.002.003 1.013s.765-.02.743 0c.415.006.55.222.58.402l-.008 1.725.005 2.424c-.02.12-.104.301-.386.303.014.008-.753-.008-.753-.008l-.17 1.105 2.029.037.003 1.512 1.012-.001-.002-1.512c.164.005.329.002.488 0h.004c.118-.001.232-.003.341-.001l.003 1.512 1.015-.001-.003-1.512c1.723-.08 2.929-.461 3.08-1.926.124-1.169-.477-1.695-1.464-1.92.611-.267.981-.741.903-1.539Zm-4.239 1.307-.044-.002v-1.563c.05 0 .113 0 .187-.002.621-.012 1.96-.04 1.962.784-.002.866-1.575.804-2.105.783Zm.03 2.55-.077-.002v-1.563l.206-.001c.735-.009 2.376-.027 2.368.802.009.858-1.844.79-2.497.765Z" clip-rule="evenodd"/>
</svg>
