<svg width="24" height="24" viewBox="0 0 24 24" fill="none" xmlns="http://www.w3.org/2000/svg">
<path d="M9.5 20H4.5C3.94772 20 3.5 19.5523 3.5 19V5C3.5 4.44772 3.94772 4 4.5 4H18.5C19.0523 4 19.5 4.44772 19.5 5V9" stroke="currentColor" stroke-width="2" stroke-linecap="round" stroke-linejoin="round"/>
<path d="M11.251 9.3127L11.4772 10.2868C11.2279 10.3447 10.9659 10.3048 10.7452 10.1754L11.251 9.3127ZM8.8596 8.3188L8.60078 9.28473L8.60078 9.28473L8.8596 8.3188ZM15.2709 7.35266C15.8089 7.22774 16.3462 7.56259 16.4712 8.10056C16.5961 8.63853 16.2612 9.17591 15.7233 9.30083L15.2709 7.35266ZM6.2915 7.98386L6.2982 8.98383C6.03557 8.98559 5.78279 8.88396 5.59447 8.7009L6.2915 7.98386ZM10.7452 10.1754C10.1048 9.79993 9.38448 9.49472 8.60078 9.28473L9.11842 7.35288C10.0737 7.60885 10.9604 7.98312 11.7567 8.45003L10.7452 10.1754ZM15.7233 9.30083L11.4772 10.2868L11.0248 8.33861L15.2709 7.35266L15.7233 9.30083ZM4.43336 4.78296L6.98853 7.26681L5.59447 8.7009L3.0393 6.21704L4.43336 4.78296ZM8.60078 9.28473C7.81703 9.07472 7.04052 8.97886 6.2982 8.98383L6.2848 6.98388C7.20799 6.97769 8.16307 7.09689 9.11842 7.35288L8.60078 9.28473Z" fill="currentColor"/>
<path d="M8.63556 13.3456C8.45221 14.0299 8.76583 14.7084 9.33604 14.8612C9.90626 15.014 10.5171 14.5832 10.7005 13.8989C10.8838 13.2147 10.5702 12.5361 10 12.3833C9.42979 12.2305 8.8189 12.6614 8.63556 13.3456Z" fill="currentColor"/>
<path d="M3.18842 11.83C3.00507 12.5143 3.31869 13.1928 3.88891 13.3456C4.45912 13.4984 5.07001 13.0676 5.25335 12.3833C5.4367 11.699 5.12308 11.0205 4.55286 10.8677C3.98265 10.7149 3.37177 11.1458 3.18842 11.83Z" fill="currentColor"/>
<path d="M5.30406 15.4955C5.18183 15.9516 5.63744 16.4701 6.3217 16.6534C7.00596 16.8367 7.65975 16.6156 7.78198 16.1594C7.90421 15.7032 7.4486 15.1848 6.76434 15.0015C6.08008 14.8181 5.42629 15.0393 5.30406 15.4955Z" fill="currentColor"/>
<path d="M14.2143 14.8889V13.2222C14.2143 11.9949 15.2376 11 16.5 11C16.8153 11 17.1156 11.0621 17.3889 11.1743M16.5 17.6667V18.2222M13.0714 21H19.9286C20.2442 21 20.5 20.7513 20.5 20.4444V15.4444C20.5 15.1376 20.2442 14.8889 19.9286 14.8889H13.0714C12.7558 14.8889 12.5 15.1376 12.5 15.4444V20.4444C12.5 20.7513 12.7558 21 13.0714 21Z" stroke="currentColor" stroke-width="2" stroke-linecap="round" stroke-linejoin="round"/>
</svg>
