<svg width="25" height="24" viewBox="0 0 25 24" fill="none" xmlns="http://www.w3.org/2000/svg">
  <path
    d="M12.5 22C18.0228 22 22.5 17.5228 22.5 12C22.5 6.47717 18.0228 2 12.5 2C6.97715 2 2.5 6.47717 2.5 12C2.5 17.5228 6.97715 22 12.5 22Z"
    stroke="currentColor" stroke-width="2" stroke-linecap="round" stroke-linejoin="round" />
  <path
    d="M16.7398 7.76001L14.9358 13.171C14.8376 13.4656 14.6722 13.7333 14.4526 13.9528C14.233 14.1724 13.9653 14.3378 13.6708 14.436L8.25977 16.24L10.0638 10.829C10.1619 10.5344 10.3274 10.2668 10.5469 10.0472C10.7665 9.82762 11.0342 9.66219 11.3288 9.56401L16.7398 7.76001Z"
    stroke="currentColor" stroke-width="2" stroke-linecap="round" stroke-linejoin="round" />
</svg>

