<svg width="16" height="16" viewBox="0 0 16 16" fill="none" xmlns="http://www.w3.org/2000/svg">
<path d="M12.2488 4.3116L12.6238 3.66209V3.66209L12.2488 4.3116ZM12.4928 5.22229L13.1423 5.59729L12.4928 5.22229ZM14.689 8.5819L15.3385 8.2069L14.689 8.5819ZM14.4449 9.49258L14.0699 8.84306L14.4449 9.49258ZM3.00016 2.5835H8.00016V1.0835H3.00016V2.5835ZM7.91683 2.50016V11.0002H9.41683V2.50016H7.91683ZM3.0835 11.0002V2.50016H1.5835V11.0002H3.0835ZM5.50016 13.4168C4.16547 13.4168 3.0835 12.3349 3.0835 11.0002H1.5835C1.5835 13.1633 3.33705 14.9168 5.50016 14.9168V13.4168ZM7.91683 11.0002C7.91683 12.3349 6.83485 13.4168 5.50016 13.4168V14.9168C7.66328 14.9168 9.41683 13.1633 9.41683 11.0002H7.91683ZM3.00016 1.0835C2.21776 1.0835 1.5835 1.71776 1.5835 2.50016H3.0835C3.0835 2.54619 3.04619 2.5835 3.00016 2.5835V1.0835ZM11.8433 4.84729L7.59328 12.2085L8.89232 12.9585L13.1423 5.59729L11.8433 4.84729ZM14.0699 8.84306L6.70873 13.0931L7.45873 14.3921L14.8199 10.1421L14.0699 8.84306ZM14.0394 8.9569C14.0164 8.91704 14.0301 8.86607 14.0699 8.84306L14.8199 10.1421C15.4975 9.7509 15.7297 8.88448 15.3385 8.2069L14.0394 8.9569ZM8.22231 2.85294L11.8738 4.96112L12.6238 3.66209L8.97231 1.55391L8.22231 2.85294ZM8.00016 2.5835C7.96637 2.5835 7.93866 2.56329 7.92592 2.5377L9.2687 1.86915C9.03761 1.40502 8.55712 1.0835 8.00016 1.0835V2.5835ZM7.92592 2.5377C7.91988 2.52555 7.91683 2.51214 7.91683 2.50016H9.41683C9.41683 2.27497 9.36374 2.06003 9.2687 1.86915L7.92592 2.5377ZM11.9314 5.30572L14.0394 8.9569L15.3385 8.2069L13.2305 4.55572L11.9314 5.30572ZM11.8738 4.96112C11.8445 4.94422 11.8306 4.91286 11.8324 4.88432L13.3295 4.97712C13.3616 4.4595 13.1062 3.94063 12.6238 3.66209L11.8738 4.96112ZM11.8324 4.88432C11.8332 4.87078 11.8373 4.85765 11.8433 4.84729L13.1423 5.59729C13.2549 5.40238 13.3163 5.18982 13.3295 4.97712L11.8324 4.88432ZM5.91683 11.0002C5.91683 11.2303 5.73028 11.4168 5.50016 11.4168V12.9168C6.55871 12.9168 7.41683 12.0587 7.41683 11.0002H5.91683ZM5.50016 11.4168C5.27004 11.4168 5.0835 11.2303 5.0835 11.0002H3.5835C3.5835 12.0587 4.44162 12.9168 5.50016 12.9168V11.4168ZM5.0835 11.0002C5.0835 10.77 5.27004 10.5835 5.50016 10.5835V9.0835C4.44162 9.0835 3.5835 9.94162 3.5835 11.0002H5.0835ZM5.50016 10.5835C5.73028 10.5835 5.91683 10.77 5.91683 11.0002H7.41683C7.41683 9.94162 6.55871 9.0835 5.50016 9.0835V10.5835Z" fill="currentColor"/>
</svg>
