<svg xmlns="http://www.w3.org/2000/svg" width="16" height="16" fill="none" viewBox="0 0 16 16">
  <path fill="currentColor" fill-rule="evenodd" d="M1.333 8a6.667 6.667 0 0 1 7.428-6.624.667.667 0 0 1 .586.746 1.667 1.667 0 0 0 1.43 1.863c.297.04.532.274.571.572a1.667 1.667 0 0 0 2.235 1.338.667.667 0 0 1 .88.461A6.667 6.667 0 1 1 1.333 8ZM8 2.667a5.333 5.333 0 1 0 5.29 4.652 3 3 0 0 1-3.162-2.115 3.002 3.002 0 0 1-2.11-2.537H8Z" clip-rule="evenodd"/>
  <path fill="currentColor" d="M6.667 5.667a1 1 0 1 1-2 0 1 1 0 0 1 2 0Zm2.667 2a1 1 0 1 1-2 0 1 1 0 0 1 2 0ZM12 9.333a.667.667 0 1 1-1.333 0 .667.667 0 0 1 1.333 0ZM8.667 11a1 1 0 1 1-2 0 1 1 0 0 1 2 0ZM5.333 9.333a.667.667 0 1 1-1.333 0 .667.667 0 0 1 1.333 0Z"/>
</svg>
