<svg xmlns="http://www.w3.org/2000/svg" width="16" height="16" fill="none" viewBox="0 0 16 16">
  <path fill="currentColor" d="M8.831 6.173a.75.75 0 0 0 1.31-.73l-1.31.73ZM8 8.008l-.24.71.24-.71Zm-.831 1.835a.75.75 0 1 0-1.31.73l1.31-.73ZM8.75 4a.75.75 0 1 0-1.5 0h1.5Zm-1.5 8a.75.75 0 0 0 1.5 0h-1.5ZM8 4.25c-.588 0-1.19.132-1.66.502-.498.393-.748.974-.748 1.649h1.5c0-.283.09-.402.177-.47.114-.09.342-.18.731-.18v-1.5Zm2.142 1.193C9.738 4.719 8.964 4.25 8 4.25v1.5c.45 0 .707.2.831.423l1.31-.73Zm-4.55.958c0 .79.327 1.345.83 1.715.429.316.98.482 1.337.603l.482-1.421c-.457-.155-.734-.245-.93-.39-.124-.09-.219-.2-.219-.507h-1.5ZM8 11.766c.588 0 1.19-.131 1.66-.502.498-.392.748-.974.748-1.648h-1.5c0 .283-.09.402-.177.47-.114.09-.342.18-.731.18v1.5Zm-2.142-1.193c.404.725 1.178 1.193 2.142 1.193v-1.5c-.45 0-.707-.2-.831-.423l-1.31.73Zm4.55-.957c0-.79-.327-1.346-.83-1.716-.429-.316-.98-.481-1.337-.602l-.482 1.42c.457.155.734.246.93.39.124.09.219.2.219.508h1.5ZM8.75 5V4h-1.5v1h1.5Zm-1.5 6.016V12h1.5v-.984h-1.5Zm6-3.016c0 2.9-2.35 5.25-5.25 5.25v1.5A6.75 6.75 0 0 0 14.75 8h-1.5ZM8 13.25A5.25 5.25 0 0 1 2.75 8h-1.5A6.75 6.75 0 0 0 8 14.75v-1.5ZM2.75 8C2.75 5.1 5.1 2.75 8 2.75v-1.5A6.75 6.75 0 0 0 1.25 8h1.5ZM8 2.75c2.9 0 5.25 2.35 5.25 5.25h1.5A6.75 6.75 0 0 0 8 1.25v1.5Z"/>
</svg>
