<svg xmlns="http://www.w3.org/2000/svg" width="16" height="16" fill="none" viewBox="0 0 16 16">
  <g clip-path="url(#a)">
    <path fill="currentColor" d="M8 3.333A.667.667 0 1 0 8 2a.667.667 0 0 0 0 1.333Zm0 5.334a.667.667 0 1 0 0-1.334.667.667 0 0 0 0 1.334ZM8 14a.667.667 0 1 0 0-1.333A.667.667 0 0 0 8 14Z"/>
    <path stroke="currentColor" stroke-linecap="round" stroke-linejoin="round" stroke-width="1.5" d="M8 3.333A.667.667 0 1 0 8 2a.667.667 0 0 0 0 1.333Zm0 5.334a.667.667 0 1 0 0-1.334.667.667 0 0 0 0 1.334ZM8 14a.667.667 0 1 0 0-1.333A.667.667 0 0 0 8 14Z"/>
  </g>
  <defs>
    <clipPath id="a">
      <path fill="#fff" d="M0 0h16v16H0z"/>
    </clipPath>
  </defs>
</svg>
