<svg width="16" height="16" viewBox="0 0 16 16" fill="none" xmlns="http://www.w3.org/2000/svg">
<path d="M8.00016 8.66659C8.36835 8.66659 8.66683 8.36811 8.66683 7.99992C8.66683 7.63173 8.36835 7.33325 8.00016 7.33325C7.63197 7.33325 7.3335 7.63173 7.3335 7.99992C7.3335 8.36811 7.63197 8.66659 8.00016 8.66659Z" fill="currentColor"/>
<path d="M13.5002 8.66659C13.8684 8.66659 14.1668 8.36811 14.1668 7.99992C14.1668 7.63173 13.8684 7.33325 13.5002 7.33325C13.132 7.33325 12.8335 7.63173 12.8335 7.99992C12.8335 8.36811 13.132 8.66659 13.5002 8.66659Z" fill="currentColor"/>
<path d="M2.50016 8.66659C2.86835 8.66659 3.16683 8.36811 3.16683 7.99992C3.16683 7.63173 2.86835 7.33325 2.50016 7.33325C2.13197 7.33325 1.8335 7.63173 1.8335 7.99992C1.8335 8.36811 2.13197 8.66659 2.50016 8.66659Z" fill="currentColor"/>
<path d="M8.00016 8.66659C8.36835 8.66659 8.66683 8.36811 8.66683 7.99992C8.66683 7.63173 8.36835 7.33325 8.00016 7.33325C7.63197 7.33325 7.3335 7.63173 7.3335 7.99992C7.3335 8.36811 7.63197 8.66659 8.00016 8.66659Z" stroke="currentColor" stroke-width="1.5" stroke-linecap="round" stroke-linejoin="round"/>
<path d="M13.5002 8.66659C13.8684 8.66659 14.1668 8.36811 14.1668 7.99992C14.1668 7.63173 13.8684 7.33325 13.5002 7.33325C13.132 7.33325 12.8335 7.63173 12.8335 7.99992C12.8335 8.36811 13.132 8.66659 13.5002 8.66659Z" stroke="currentColor" stroke-width="1.5" stroke-linecap="round" stroke-linejoin="round"/>
<path d="M2.50016 8.66659C2.86835 8.66659 3.16683 8.36811 3.16683 7.99992C3.16683 7.63173 2.86835 7.33325 2.50016 7.33325C2.13197 7.33325 1.8335 7.63173 1.8335 7.99992C1.8335 8.36811 2.13197 8.66659 2.50016 8.66659Z" stroke="currentColor" stroke-width="1.5" stroke-linecap="round" stroke-linejoin="round"/>
</svg>
