<svg xmlns="http://www.w3.org/2000/svg" width="16" height="16" fill="none" viewBox="0 0 16 16">
  <g clip-path="url(#a)">
    <path stroke="currentColor" stroke-linecap="round" stroke-linejoin="round" stroke-width="1.5" d="M8.666 3.333h-6A.667.667 0 0 0 2 4v8c0 .368.298.667.667.667h10.666A.667.667 0 0 0 14 12V8.667M1.999 6a9.956 9.956 0 0 0 6 2c.924 0 1.818-.125 2.667-.36M15.333 4a2 2 0 1 1-4 0 2 2 0 0 1 4 0Z"/>
  </g>
  <defs>
    <clipPath id="a">
      <path fill="#fff" d="M0 0h16v16H0z"/>
    </clipPath>
  </defs>
</svg>
