<svg width="24" height="24" viewBox="0 0 24 24" fill="none" xmlns="http://www.w3.org/2000/svg">
<path fill-rule="evenodd" clip-rule="evenodd" d="M4.92894 5.55393C8.83418 1.64869 15.1658 1.64869 19.0711 5.55394C22.9763 9.45918 22.9763 15.7908 19.0711 19.6961C15.1658 23.6013 8.83416 23.6013 4.92894 19.6961C1.02369 15.7908 1.02369 9.45916 4.92894 5.55393ZM9.25 11.625C9.94036 11.625 10.5 10.9534 10.5 10.125C10.5 9.29657 9.94036 8.625 9.25 8.625C8.55964 8.625 8 9.29657 8 10.125C8 10.9534 8.55964 11.625 9.25 11.625ZM16 10.125C16 10.9534 15.4404 11.625 14.75 11.625C14.0596 11.625 13.5 10.9534 13.5 10.125C13.5 9.29657 14.0596 8.625 14.75 8.625C15.4404 8.625 16 9.29657 16 10.125ZM9.70221 14.9231C9.40931 14.6302 8.93444 14.6302 8.64155 14.9231C8.34865 15.216 8.34865 15.6909 8.64154 15.9838C10.4965 17.8388 13.5041 17.8388 15.3591 15.9838C15.6519 15.6909 15.6519 15.216 15.3591 14.9231C15.0662 14.6302 14.5913 14.6302 14.2984 14.9231C13.0292 16.1923 10.9714 16.1923 9.70221 14.9231Z" fill="currentColor"/>
</svg>

