<svg width="16" height="16" viewBox="0 0 16 16" fill="none" xmlns="http://www.w3.org/2000/svg">
<path d="M0.825657 7.34816C0.630612 7.71357 0.768726 8.16792 1.13414 8.36296C1.49956 8.55801 1.95391 8.4199 2.14895 8.05448L0.825657 7.34816ZM13.8508 8.05455C14.0458 8.41997 14.5002 8.55808 14.8656 8.36304C15.231 8.16799 15.3691 7.71365 15.1741 7.34823L13.8508 8.05455ZM2.14895 8.05448C3.66279 5.21831 5.88665 3.91649 7.99986 3.9165C10.1131 3.91652 12.3369 5.21838 13.8508 8.05455L15.1741 7.34823C13.4605 4.13793 10.7855 2.41652 7.99987 2.4165C5.2142 2.41648 2.53919 4.13786 0.825657 7.34816L2.14895 8.05448ZM9.41653 7.99984C9.41653 8.78224 8.78227 9.4165 7.99986 9.4165V10.9165C9.61069 10.9165 10.9165 9.61067 10.9165 7.99984H9.41653ZM7.99986 9.4165C7.21746 9.4165 6.5832 8.78224 6.5832 7.99984H5.0832C5.0832 9.61067 6.38903 10.9165 7.99986 10.9165V9.4165ZM6.5832 7.99984C6.5832 7.21743 7.21746 6.58317 7.99986 6.58317V5.08317C6.38903 5.08317 5.0832 6.38901 5.0832 7.99984H6.5832ZM7.99986 6.58317C8.78227 6.58317 9.41653 7.21743 9.41653 7.99984H10.9165C10.9165 6.38901 9.61069 5.08317 7.99986 5.08317V6.58317Z" fill="currentColor"/>
</svg>
