<svg xmlns="http://www.w3.org/2000/svg" width="16" height="16" fill="none" viewBox="0 0 16 16">
  <path fill="currentColor" d="M.826 7.348a.75.75 0 1 0 1.323.706L.826 7.348Zm13.025.707a.75.75 0 1 0 1.323-.707l-1.323.707Zm-11.702 0c1.514-2.837 3.738-4.139 5.85-4.138 2.114 0 4.338 1.301 5.852 4.138l1.323-.707C13.461 4.138 10.786 2.417 8 2.417c-2.786 0-5.46 1.72-7.174 4.931l1.323.706ZM9.417 8c0 .782-.635 1.416-1.417 1.416v1.5A2.917 2.917 0 0 0 10.916 8h-1.5ZM8 9.416A1.417 1.417 0 0 1 6.583 8h-1.5A2.917 2.917 0 0 0 8 10.916v-1.5ZM6.583 8c0-.783.634-1.417 1.417-1.417v-1.5A2.917 2.917 0 0 0 5.083 8h1.5ZM8 6.583c.782 0 1.417.634 1.417 1.417h1.5A2.917 2.917 0 0 0 8 5.083v1.5Z"/>
</svg>
