<svg xmlns="http://www.w3.org/2000/svg" width="16" height="16" fill="none" viewBox="0 0 16 16">
  <path fill="currentColor" d="m1.488 7.701-.662-.353.662.353Zm13.025 0 .661-.353-.661.353Zm-13.025.597-.662.353.662-.353Zm13.025 0 .661.353-.661-.353ZM2.149 8.054C3.663 5.218 5.887 3.916 8 3.916s4.337 1.302 5.851 4.139l1.323-.707C13.461 4.138 10.786 2.417 8 2.417c-2.786 0-5.46 1.72-7.174 4.931l1.323.706Zm-1.323.597c1.713 3.21 4.388 4.932 7.174 4.932 2.786 0 5.46-1.721 7.174-4.932l-1.323-.706c-1.514 2.836-3.738 4.138-5.85 4.138-2.114 0-4.338-1.302-5.852-4.138l-1.323.706Zm0-1.303a1.389 1.389 0 0 0 0 1.303l1.323-.706c.01.02.015.039.015.055a.116.116 0 0 1-.015.054L.826 7.348Zm13.025.707A.116.116 0 0 1 13.837 8c0-.016.004-.035.014-.055l1.323.706a1.389 1.389 0 0 0 0-1.303l-1.323.707ZM9.417 8c0 .782-.634 1.416-1.417 1.416v1.5A2.917 2.917 0 0 0 10.917 8h-1.5ZM8 9.416A1.417 1.417 0 0 1 6.583 8h-1.5A2.917 2.917 0 0 0 8 10.916v-1.5ZM6.583 8c0-.783.635-1.417 1.417-1.417v-1.5A2.917 2.917 0 0 0 5.083 8h1.5ZM8 6.583c.783 0 1.417.634 1.417 1.417h1.5A2.917 2.917 0 0 0 8 5.083v1.5Z"/>
</svg>
