<svg xmlns="http://www.w3.org/2000/svg" width="16" height="16" fill="none" viewBox="0 0 16 16">
  <path fill="currentColor" d="M10.635 2.496c-.805-.074-1.515.53-1.588 1.358l-.183 2.155h2.064V7.5H8.732l-.322 3.781a3.001 3.001 0 0 1-1.033 2.024 2.868 2.868 0 0 1-2.137.683 2.897 2.897 0 0 1-1.282-.428A2.96 2.96 0 0 1 3 12.594l1.098-1.12c.176.553.659.978 1.267 1.03.805.075 1.515-.53 1.588-1.357L7.268 7.5H5.072V6.01h2.32l.198-2.29c.14-1.64 1.56-2.856 3.17-2.707A2.927 2.927 0 0 1 13 2.407l-1.098 1.118a1.468 1.468 0 0 0-1.267-1.029Z"/>
</svg>
