<svg width="24" height="25" viewBox="0 0 24 25" fill="none" xmlns="http://www.w3.org/2000/svg">
<path d="M1 10.5947H2.53513M23 10.5947H21.4649M2.53513 10.5947C2.19479 11.1831 2 11.8662 2 12.5947C2 14.8039 3.79086 16.5947 6 16.5947C8.20914 16.5947 10 14.8039 10 12.5947C10 11.8399 9.79093 11.1339 9.42754 10.5315M2.53513 10.5947C3.22675 9.39912 4.51944 8.59473 6 8.59473C7.45433 8.59473 8.72737 9.37086 9.42754 10.5315M9.42754 10.5315C10.123 9.94689 11.0204 9.59473 12 9.59473C12.9796 9.59473 13.877 9.94689 14.5725 10.5315M14.5725 10.5315C14.2091 11.1339 14 11.8399 14 12.5947C14 14.8039 15.7909 16.5947 18 16.5947C20.2091 16.5947 22 14.8039 22 12.5947C22 11.8662 21.8052 11.1831 21.4649 10.5947M14.5725 10.5315C15.2726 9.37087 16.5457 8.59473 18 8.59473C19.4806 8.59473 20.7733 9.39912 21.4649 10.5947" stroke="black" stroke-width="2" stroke-linecap="round" stroke-linejoin="round"/>
</svg>
