<svg width="16" height="17" viewBox="0 0 16 17" fill="none" xmlns="http://www.w3.org/2000/svg">
<g clip-path="url(#clip0_18767_1061)">
<path d="M0.666504 7.26107H1.68992M15.3332 7.26107H14.3098M1.68992 7.26107C1.46303 7.6533 1.33317 8.10868 1.33317 8.5944C1.33317 10.0672 2.52708 11.2611 3.99984 11.2611C5.4726 11.2611 6.6665 10.0672 6.6665 8.5944C6.6665 8.09119 6.52712 7.62054 6.28486 7.21894M1.68992 7.26107C2.151 6.464 3.01279 5.92773 3.99984 5.92773C4.96939 5.92773 5.81809 6.44516 6.28486 7.21894M6.28486 7.21894C6.74849 6.82918 7.34675 6.5944 7.99984 6.5944C8.65293 6.5944 9.25119 6.82918 9.71481 7.21894M9.71481 7.21894C9.47255 7.62054 9.33317 8.09119 9.33317 8.5944C9.33317 10.0672 10.5271 11.2611 11.9998 11.2611C13.4726 11.2611 14.6665 10.0672 14.6665 8.5944C14.6665 8.10868 14.5366 7.6533 14.3098 7.26107M9.71481 7.21894C10.1816 6.44516 11.0303 5.92773 11.9998 5.92773C12.9869 5.92773 13.8487 6.464 14.3098 7.26107" stroke="black" stroke-width="1.5" stroke-linecap="round" stroke-linejoin="round"/>
</g>
<defs>
<clipPath id="clip0_18767_1061">
<rect width="16" height="16" fill="white" transform="translate(0 0.594727)"/>
</clipPath>
</defs>
</svg>
