<svg xmlns="http://www.w3.org/2000/svg" width="16" height="16" fill="none" viewBox="0 0 16 16">
  <path fill="currentColor" fill-rule="evenodd" d="M3.16 5.757A5.313 5.313 0 0 0 2.667 8a5.31 5.31 0 0 0 1.12 3.27l1.865-1.864c-.989-1.061-1.769-2.15-2.248-3.108a7.048 7.048 0 0 1-.244-.541ZM5.757 3.16c.179.071.36.153.542.244.958.479 2.046 1.26 3.107 2.247l1.865-1.864A5.31 5.31 0 0 0 8 2.667c-.802 0-1.562.176-2.244.493Zm6.462-.322a6.667 6.667 0 0 0-9.381 9.381l-.495.495a.667.667 0 1 0 .943.943l.495-.495a6.64 6.64 0 0 0 4.22 1.505 6.645 6.645 0 0 0 4.733-1.972A6.646 6.646 0 0 0 14.667 8c0-1.6-.564-3.07-1.505-4.219l.495-.495a.667.667 0 1 0-.943-.943l-.495.495Zm-.006 1.892L10.35 6.594c.988 1.061 1.769 2.15 2.248 3.108.09.182.173.362.244.54A5.313 5.313 0 0 0 13.334 8a5.31 5.31 0 0 0-1.12-3.27Zm-.44 7.04.005-.007a.197.197 0 0 0 .016-.046.827.827 0 0 0 .004-.28c-.033-.278-.156-.663-.394-1.139-.405-.81-1.093-1.783-1.998-2.76L7.538 9.405c.978.906 1.95 1.593 2.76 1.999.476.238.861.36 1.14.394a.823.823 0 0 0 .279-.005.202.202 0 0 0 .053-.02l.003-.004Zm-1.53 1.07a7.026 7.026 0 0 1-.54-.244c-.959-.479-2.047-1.259-3.109-2.247L4.73 12.213A5.31 5.31 0 0 0 8 13.333c.801 0 1.561-.176 2.243-.493ZM6.595 8.463l1.868-1.868c-.978-.906-1.95-1.593-2.76-1.999-.476-.237-.861-.36-1.14-.394a.824.824 0 0 0-.279.005.197.197 0 0 0-.046.016l-.009.006-.006.009a.197.197 0 0 0-.016.046.824.824 0 0 0-.004.279c.033.278.156.664.394 1.139.405.811 1.093 1.783 1.998 2.76Z" clip-rule="evenodd"/>
</svg>
