<svg width="17" height="17" viewBox="0 0 17 17" fill="none" xmlns="http://www.w3.org/2000/svg">
<path d="M3 4.16139C3 3.78802 3 3.60134 3.07266 3.45873C3.13658 3.33329 3.23856 3.2313 3.36401 3.16739C3.50661 3.09473 3.6933 3.09473 4.06667 3.09473H7.33333V7.42806H3V4.16139Z" stroke="black" stroke-width="1.5" stroke-linecap="round" stroke-linejoin="round"/>
<path d="M9.66667 3.09473H12.9333C13.3067 3.09473 13.4934 3.09473 13.636 3.16739C13.7614 3.2313 13.8634 3.33329 13.9273 3.45873C14 3.60134 14 3.78802 14 4.16139V7.42806H9.66667V3.09473Z" stroke="black" stroke-width="1.5" stroke-linecap="round" stroke-linejoin="round"/>
<path d="M3 9.76139H7.33333V14.0947H4.06667C3.6933 14.0947 3.50661 14.0947 3.36401 14.0221C3.23856 13.9581 3.13658 13.8562 3.07266 13.7307C3 13.5881 3 13.4014 3 13.0281V9.76139Z" stroke="black" stroke-width="1.5" stroke-linecap="round" stroke-linejoin="round"/>
<path d="M9.66667 9.76139H14V13.0281C14 13.4014 14 13.5881 13.9273 13.7307C13.8634 13.8562 13.7614 13.9581 13.636 14.0221C13.4934 14.0947 13.3067 14.0947 12.9333 14.0947H9.66667V9.76139Z" stroke="black" stroke-width="1.5" stroke-linecap="round" stroke-linejoin="round"/>
</svg>
