<svg width="16" height="17" viewBox="0 0 16 17" fill="none" xmlns="http://www.w3.org/2000/svg">
  <path
    d="M10.9998 12.5947H10.3332C9.78089 12.5947 9.33317 13.0424 9.33317 13.5947C9.33317 14.147 8.88546 14.5947 8.33317 14.5947H5.6665C5.11422 14.5947 4.67277 14.1468 4.66681 13.5946C4.65336 12.3467 4.53111 11.2507 3.65926 10.1392C3.03733 9.3464 2.6665 8.3472 2.6665 7.26139C2.6665 4.68406 4.75584 2.59473 7.33317 2.59473C9.23309 2.59473 10.9824 3.50662 11.7035 5.34992C12.0747 6.2987 12.5418 6.97754 13.0706 7.73156C13.3985 8.19901 13.2568 8.84055 12.7672 9.13431L12.4853 9.30342C12.1841 9.48415 11.9998 9.80965 11.9998 10.1609V11.5947C11.9998 12.147 11.5521 12.5947 10.9998 12.5947Z"
    stroke="currentColor" stroke-width="1.5" stroke-linecap="round" stroke-linejoin="round" />
</svg>

