<svg width="24" height="25" viewBox="0 0 24 25" fill="none" xmlns="http://www.w3.org/2000/svg">
  <path
    d="M17 18.5947H15C14.4477 18.5947 14 19.0424 14 19.5947V20.5947C14 21.147 13.5523 21.5947 13 21.5947H8C7.44772 21.5947 7.00233 21.1468 7.00265 20.5945C7.00387 18.5122 6.91209 16.7255 5.48913 14.9115C4.55625 13.7222 4 12.2234 4 10.5947C4 6.72873 7.13401 3.59473 11 3.59473C13.8499 3.59473 16.4738 4.96257 17.5555 7.72752C18.1817 9.32813 18.9899 10.4166 19.9072 11.7293C20.2342 12.1974 20.0903 12.8405 19.6007 13.1343L18.4855 13.8034C18.1843 13.9841 18 14.3097 18 14.6609V17.5947C18 18.147 17.5523 18.5947 17 18.5947Z"
    stroke="currentColor" stroke-width="2" stroke-linecap="round" stroke-linejoin="round" />
</svg>

