<svg width="17" height="17" viewBox="0 0 17 17" fill="none" xmlns="http://www.w3.org/2000/svg">
<path d="M7.82721 2.47432L7.40681 1.95691L7.82721 2.47432ZM8.32014 2.14479L8.14044 1.5028L8.32014 2.14479ZM9.17247 2.47432L8.75207 2.99173V2.99173L9.17247 2.47432ZM8.67954 2.14479L8.85924 1.5028L8.67954 2.14479ZM3.53051 13.8551L3.83317 13.2611L3.53051 13.8551ZM3.23917 13.5638L3.83317 13.2611L3.23917 13.5638ZM13.7605 13.5638L13.1665 13.2611L13.7605 13.5638ZM13.4692 13.8551L13.1665 13.2611L13.4692 13.8551ZM13.8096 6.40285L13.1665 6.57845L13.8096 6.40285ZM13.4391 5.94098L13.8595 5.42357L13.4391 5.94098ZM13.7083 6.19004L14.2502 5.80164L13.7083 6.19004ZM3.19005 6.40285L3.83317 6.57845L3.19005 6.40285ZM3.56054 5.94098L3.98093 6.45839L3.56054 5.94098ZM3.29134 6.19004L2.7495 5.80164L3.29134 6.19004ZM5.83317 10.5945C5.46498 10.5945 5.1665 10.8929 5.1665 11.2611C5.1665 11.6293 5.46498 11.9278 5.83317 11.9278V10.5945ZM11.1665 11.9278C11.5347 11.9278 11.8332 11.6293 11.8332 11.2611C11.8332 10.8929 11.5347 10.5945 11.1665 10.5945V11.9278ZM13.1665 6.76884V12.8611H14.4998V6.76884H13.1665ZM12.7665 13.2611H4.23317V14.5945H12.7665V13.2611ZM3.83317 12.8611V6.76884H2.49984V12.8611H3.83317ZM3.98093 6.45839L8.2476 2.99173L7.40681 1.95691L3.14014 5.42357L3.98093 6.45839ZM8.75207 2.99173L13.0187 6.45839L13.8595 5.42357L9.59286 1.95691L8.75207 2.99173ZM8.2476 2.99173C8.37507 2.88816 8.44298 2.83352 8.49469 2.7975C8.5395 2.76628 8.53316 2.77746 8.49984 2.78678L8.14044 1.5028C7.97383 1.54944 7.84092 1.62796 7.73252 1.70348C7.63102 1.77419 7.51911 1.86566 7.40681 1.95691L8.2476 2.99173ZM9.59286 1.95691C9.48056 1.86566 9.36865 1.77419 9.26716 1.70348C9.15876 1.62796 9.02584 1.54944 8.85924 1.5028L8.49984 2.78678C8.46651 2.77746 8.46018 2.76628 8.50499 2.7975C8.55669 2.83352 8.62461 2.88816 8.75207 2.99173L9.59286 1.95691ZM8.49984 2.78678H8.49984L8.85924 1.5028C8.62416 1.437 8.37552 1.437 8.14044 1.5028L8.49984 2.78678ZM4.23317 13.2611C4.03549 13.2611 3.92732 13.2606 3.84959 13.2543C3.77965 13.2486 3.79483 13.2416 3.83317 13.2611L3.22785 14.4491C3.4088 14.5413 3.58862 14.5707 3.74102 14.5832C3.88563 14.595 4.05749 14.5945 4.23317 14.5945V13.2611ZM2.49984 12.8611C2.49984 13.0368 2.49932 13.2087 2.51113 13.3533C2.52359 13.5057 2.55296 13.6855 2.64516 13.8665L3.83317 13.2611C3.85271 13.2995 3.84575 13.3147 3.84004 13.2447C3.83369 13.167 3.83317 13.0588 3.83317 12.8611H2.49984ZM3.83317 13.2611L2.64516 13.8665C2.77299 14.1173 2.97697 14.3213 3.22785 14.4491L3.83317 13.2611ZM13.1665 12.8611C13.1665 13.0588 13.166 13.167 13.1596 13.2447C13.1539 13.3147 13.147 13.2995 13.1665 13.2611L14.3545 13.8665C14.4467 13.6855 14.4761 13.5057 14.4885 13.3533C14.5004 13.2087 14.4998 13.0368 14.4998 12.8611H13.1665ZM12.7665 14.5945C12.9422 14.5945 13.114 14.595 13.2587 14.5832C13.4111 14.5707 13.5909 14.5413 13.7718 14.4491L13.1665 13.2611C13.2048 13.2416 13.22 13.2486 13.1501 13.2543C13.0724 13.2606 12.9642 13.2611 12.7665 13.2611V14.5945ZM13.1665 13.2611H13.1665L13.7718 14.4491C14.0227 14.3213 14.2267 14.1173 14.3545 13.8665L13.1665 13.2611ZM14.4998 6.76884C14.4998 6.61902 14.5054 6.4199 14.4528 6.22725L13.1665 6.57845C13.1613 6.55931 13.1629 6.55269 13.1644 6.58237C13.1663 6.61881 13.1665 6.66904 13.1665 6.76884H14.4998ZM13.0187 6.45839C13.0962 6.52132 13.1351 6.55315 13.1622 6.57759C13.1842 6.59748 13.1781 6.59458 13.1665 6.57845L14.2502 5.80164C14.1338 5.63933 13.9758 5.51805 13.8595 5.42357L13.0187 6.45839ZM14.4528 6.22725C14.411 6.07447 14.3424 5.93035 14.2502 5.80164L13.1665 6.57845H13.1665L14.4528 6.22725ZM3.83317 6.76884C3.83317 6.66904 3.83337 6.61881 3.83524 6.58237C3.83676 6.55269 3.8384 6.55931 3.83317 6.57845L2.54692 6.22725C2.49432 6.4199 2.49984 6.61902 2.49984 6.76884H3.83317ZM3.14014 5.42357C3.02387 5.51805 2.86585 5.63933 2.7495 5.80164L3.83317 6.57845C3.82161 6.59458 3.81544 6.59748 3.83751 6.57759C3.86462 6.55315 3.90348 6.52132 3.98093 6.45839L3.14014 5.42357ZM3.83317 6.57845L2.7495 5.80164C2.65723 5.93035 2.58864 6.07448 2.54692 6.22725L3.83317 6.57845ZM5.83317 11.9278H11.1665V10.5945H5.83317V11.9278Z" fill="black"/>
</svg>
