<svg width="24" height="25" viewBox="0 0 24 25" fill="none" xmlns="http://www.w3.org/2000/svg">
<path d="M10.4911 3.41411L9.86046 2.638L10.4911 3.41411ZM11.2304 2.91983L10.9609 1.95684L11.2304 2.91983ZM12.5089 3.41411L11.8784 4.19023L12.5089 3.41411ZM11.7696 2.91983L12.0391 1.95684L11.7696 2.91983ZM4.04601 20.4853L4.5 19.5943L4.04601 20.4853ZM3.60899 20.0483L4.5 19.5943L3.60899 20.0483ZM19.391 20.0483L18.5 19.5943L19.391 20.0483ZM18.954 20.4853L18.5 19.5943L18.954 20.4853ZM19.4647 9.30691L18.5 9.57031L19.4647 9.30691ZM18.9089 8.61411L19.5395 7.838L18.9089 8.61411ZM19.3128 8.9877L20.1255 8.40509L19.3128 8.9877ZM3.53531 9.30691L4.5 9.57031L3.53531 9.30691ZM4.09105 8.61411L4.72164 9.39023L4.09105 8.61411ZM3.68725 8.9877L2.8745 8.40509L3.68725 8.9877ZM7.5 15.5943C6.94772 15.5943 6.5 16.0421 6.5 16.5943C6.5 17.1466 6.94772 17.5943 7.5 17.5943V15.5943ZM15.5 17.5943C16.0523 17.5943 16.5 17.1466 16.5 16.5943C16.5 16.0421 16.0523 15.5943 15.5 15.5943V17.5943ZM18.5 9.85589V18.9943H20.5V9.85589H18.5ZM17.9 19.5943H5.1V21.5943H17.9V19.5943ZM4.5 18.9943V9.8559H2.5V18.9943H4.5ZM4.72164 9.39023L11.1216 4.19023L9.86046 2.638L3.46046 7.838L4.72164 9.39023ZM11.8784 4.19023L18.2784 9.39023L19.5395 7.838L13.1395 2.638L11.8784 4.19023ZM11.1216 4.19023C11.3128 4.03488 11.4147 3.95292 11.4923 3.89889C11.5595 3.85206 11.55 3.86882 11.5 3.88281L10.9609 1.95684C10.711 2.02679 10.5116 2.14458 10.349 2.25786C10.1968 2.36392 10.0289 2.50113 9.86046 2.638L11.1216 4.19023ZM13.1395 2.638C12.9711 2.50113 12.8032 2.36392 12.651 2.25786C12.4884 2.14458 12.289 2.02679 12.0391 1.95684L11.5 3.88281C11.45 3.86882 11.4405 3.85206 11.5077 3.89889C11.5853 3.95292 11.6872 4.03488 11.8784 4.19023L13.1395 2.638ZM11.5 3.88281L12.0391 1.95684C11.6865 1.85814 11.3135 1.85814 10.9609 1.95684L11.5 3.88281ZM5.1 19.5943C4.80347 19.5943 4.64122 19.5936 4.52463 19.584C4.41972 19.5755 4.44249 19.565 4.5 19.5943L3.59202 21.3764C3.86344 21.5147 4.13318 21.5587 4.36177 21.5774C4.57869 21.5951 4.83647 21.5943 5.1 21.5943V19.5943ZM2.5 18.9943C2.5 19.2579 2.49922 19.5157 2.51695 19.7326C2.53562 19.9612 2.57969 20.2309 2.71799 20.5023L4.5 19.5943C4.5293 19.6519 4.51887 19.6746 4.5103 19.5697C4.50078 19.4531 4.5 19.2909 4.5 18.9943H2.5ZM4.5 19.5943L2.71799 20.5023C2.90973 20.8786 3.2157 21.1846 3.59202 21.3764L4.5 19.5943ZM18.5 18.9943C18.5 19.2909 18.4992 19.4531 18.4897 19.5697C18.4811 19.6746 18.4707 19.6519 18.5 19.5943L20.282 20.5023C20.4203 20.2309 20.4644 19.9612 20.4831 19.7326C20.5008 19.5157 20.5 19.2579 20.5 18.9943H18.5ZM17.9 21.5943C18.1635 21.5943 18.4213 21.5951 18.6382 21.5774C18.8668 21.5587 19.1366 21.5147 19.408 21.3764L18.5 19.5943C18.5575 19.565 18.5803 19.5755 18.4754 19.584C18.3588 19.5936 18.1965 19.5943 17.9 19.5943V21.5943ZM18.5 19.5943L19.408 21.3764C19.7843 21.1846 20.0903 20.8786 20.282 20.5023L18.5 19.5943ZM20.5 9.85589C20.5 9.63117 20.5083 9.33248 20.4294 9.04351L18.5 9.57031C18.4922 9.5416 18.4946 9.53167 18.4969 9.57619C18.4997 9.63085 18.5 9.7062 18.5 9.85589H20.5ZM18.2784 9.39023C18.3945 9.48462 18.4528 9.53237 18.4935 9.56901C18.5266 9.59886 18.5173 9.5945 18.5 9.57031L20.1255 8.40509C19.951 8.16164 19.714 7.97971 19.5395 7.838L18.2784 9.39023ZM20.4294 9.04351C20.3668 8.81435 20.2639 8.59816 20.1255 8.40509L18.5 9.57031L20.4294 9.04351ZM4.5 9.8559C4.5 9.7062 4.5003 9.63086 4.5031 9.57619C4.50538 9.53167 4.50784 9.5416 4.5 9.57031L2.57063 9.04351C2.49173 9.33248 2.5 9.63117 2.5 9.8559H4.5ZM3.46046 7.838C3.28605 7.97971 3.04901 8.16164 2.8745 8.40509L4.5 9.57031C4.48266 9.5945 4.47341 9.59886 4.50652 9.56902C4.54718 9.53237 4.60546 9.48462 4.72164 9.39023L3.46046 7.838ZM4.5 9.57031L2.8745 8.40509C2.73609 8.59817 2.6332 8.81435 2.57063 9.04351L4.5 9.57031ZM7.5 17.5943H15.5V15.5943H7.5V17.5943Z" fill="black"/>
</svg>
