<svg xmlns="http://www.w3.org/2000/svg" width="86" height="19" fill="none" viewBox="0 0 86 19">
  <path fill="currentColor" d="M83.004 13.53c-.796 1.504-1.965 2.427-2.868 2.427-.691 0-1.222-.58-1.222-1.952 0-2.136 1.062-5.46 1.567-7.2h-7.916l-.77 2.664c-1.169 4.088-3.002 6.488-5.897 6.488-.425 0-.93-.08-1.195-.237 2.178-1.556 4.383-4.036 4.383-6.489 0-2.03-1.488-2.822-2.843-2.822-4.25 0-7.278 5.539-6.136 9.02-.69.238-1.328.528-2.098.528-.77 0-1.195-.527-1.036-1.24.186-.844 1.248-3.666 1.248-5.196 0-1.872-1.46-3.138-3.665-3.138-.505 0-1.063.132-1.62.343l1.407-4.932h-2.762l-3.294 11.5c-.505 1.793-2.019 2.663-3.267 2.663-1.567 0-2.152-1.24-1.78-2.48l1.169-4.035h3.002l.77-2.637h-3.028l1.434-5.011h-2.763L40.24 14.295c-.346 1.187-1.17 1.662-1.886 1.662-1.143 0-1.488-.923-1.249-1.767l2.125-7.385c-.744-.238-1.806-.422-2.63-.422-4.754 0-9.243 4.193-9.243 8.334v.012c-1.272.81-2.748 1.228-4.038 1.228-.903 0-1.408-.08-1.806-.29 2.231-1.45 4.542-3.877 4.542-6.436 0-2.03-1.487-2.822-2.842-2.822-4.224 0-7.172 5.407-6.19 8.862-.929.475-1.779.712-2.709.712-1.46 0-2.842-.606-3.904-1.82l1.354-4.72c3.294-.264 7.65-2.955 7.65-6.252C19.413 1.134 18.033 0 16.28 0c-3.108 0-5.445 2.98-6.534 6.805-2.02-.238-3.108-2.4-1.514-5.011H5.36C3.581 5.724 5.387 8.466 9 9.442l-.877 3.034c-1.328-.818-2.364-1.135-3.586-1.135-5.87 0-6.11 7.254-.345 7.254 1.673 0 3.692-.87 4.755-2.031 1.514 1.319 3.001 2.03 4.914 2.03 1.46 0 2.948-.421 4.489-1.318 1.036.844 2.39 1.319 4.33 1.319 1.722 0 3.444-.355 5.218-1.593.525.918 1.484 1.593 3.096 1.593 1.354 0 2.842-.58 3.958-1.82.823 1.187 2.072 1.82 3.346 1.82 1.063 0 2.152-.422 3.082-1.266.743.79 2.098 1.266 3.586 1.266 2.31 0 4.887-1.214 5.79-4.352l1.036-3.64c.32-1.082 1.17-1.583 2.152-1.583.85 0 1.301.422 1.301 1.16 0 1.372-1.221 4.643-1.221 5.803 0 1.952 1.328 2.612 3.107 2.612 1.116 0 1.993-.027 4.49-1.134 1.009.738 2.576 1.134 4.356 1.134 3.958 0 6.72-2.69 8.606-9.153h2.39c-.45 1.504-.77 3.165-.77 4.642 0 2.48.904 4.51 3.693 4.51 2.178 0 5.206-2.189 5.976-5.064h-2.869ZM15.881 2.639c.504 0 .85.29.85.712 0 1.398-2.497 3.191-4.224 3.455.797-2.743 2.417-4.167 3.374-4.167ZM4.326 15.958c-2.258 0-2.072-2.216.186-2.216.983 0 1.753.316 2.683 1.107-.638.712-1.86 1.108-2.87 1.108ZM22.415 9.02c.558 0 .903.343.903.897 0 1.477-1.939 3.297-3.586 4.22-.584-1.688 1.09-5.117 2.683-5.117Zm9.058 6.937c-.824 0-1.222-.58-1.222-1.424 0-2.031 2.205-5.46 5.578-5.513-1.222 4.247-2.045 6.937-4.356 6.937ZM65.447 9.02c.557 0 .903.343.903.897 0 1.477-2.02 3.376-3.56 4.326-.664-1.583 1.036-5.223 2.657-5.223Z"/>
</svg>
