<svg xmlns="http://www.w3.org/2000/svg" width="16" height="17" fill="none" viewBox="0 0 16 17">
  <path fill="currentColor" fill-rule="evenodd" d="M2.667 3.262c0-.737.596-1.334 1.333-1.334h8.666c.369 0 .667.299.667.667v12a.667.667 0 0 1-.667.667H4a1.333 1.333 0 0 1-1.333-1.334V3.262Zm1.333 8h8v-8H4v8Zm8 1.333H4v1.333h8v-1.333Z" clip-rule="evenodd"/>
  <path fill="currentColor" d="M8.123 5.533a.333.333 0 0 0 .149-.149l.43-.86a.333.333 0 0 1 .596 0l.43.86a.333.333 0 0 0 .15.15l.86.43a.333.333 0 0 1 0 .596l-.86.43a.333.333 0 0 0-.15.149l-.43.86a.333.333 0 0 1-.596 0l-.43-.86a.333.333 0 0 0-.15-.15l-.859-.43a.333.333 0 0 1 0-.596l.86-.43ZM5.718 8.402a.2.2 0 0 0 .09-.089l.346-.694a.2.2 0 0 1 .358 0l.347.694a.2.2 0 0 0 .09.09l.693.346a.2.2 0 0 1 0 .358l-.693.347a.2.2 0 0 0-.09.09l-.347.693a.2.2 0 0 1-.358 0l-.346-.694a.2.2 0 0 0-.09-.089l-.694-.347a.2.2 0 0 1 0-.358l.694-.347Z"/>
</svg>
