<svg xmlns="http://www.w3.org/2000/svg" width="24" height="25" fill="none" viewBox="0 0 24 25">
  <path fill="currentColor" fill-rule="evenodd" d="M4 4.595a2 2 0 0 1 2-2h13a1 1 0 0 1 1 1v18a1 1 0 0 1-1 1H6a2 2 0 0 1-2-2v-16Zm2 12h12v-12H6v12Zm12 2H6v2h12v-2Z" clip-rule="evenodd"/>
  <path fill="currentColor" d="M12.184 8.003a.5.5 0 0 0 .224-.224l.645-1.29a.5.5 0 0 1 .894 0l.645 1.29a.5.5 0 0 0 .224.224l1.29.645a.5.5 0 0 1 0 .894l-1.29.645a.5.5 0 0 0-.224.224l-.645 1.29a.5.5 0 0 1-.894 0l-.645-1.29a.499.499 0 0 0-.223-.224l-1.29-.645a.5.5 0 0 1 0-.894l1.29-.645Zm-3.606 4.303a.3.3 0 0 0 .134-.134l.52-1.04a.3.3 0 0 1 .537 0l.52 1.04a.3.3 0 0 0 .134.134l1.04.52a.3.3 0 0 1 0 .537l-1.04.52a.3.3 0 0 0-.134.135l-.52 1.04a.3.3 0 0 1-.537 0l-.52-1.04a.3.3 0 0 0-.134-.135l-1.041-.52a.3.3 0 0 1 0-.537l1.04-.52Z"/>
</svg>
