<svg xmlns="http://www.w3.org/2000/svg" width="24" height="25" fill="none" viewBox="0 0 24 25">
  <path fill="currentColor" fill-rule="evenodd" d="M12.093 3.125a1 1 0 0 1-.041 1.07 6 6 0 0 0 8.345 8.344 1 1 0 0 1 1.563.908c-.434 5.122-4.728 9.144-9.962 9.144C6.476 22.59 2 18.114 2 12.593c0-5.235 4.021-9.528 9.144-9.962a1 1 0 0 1 .95.494ZM9.42 5.019A7.998 7.998 0 1 0 19.572 15.17 8 8 0 0 1 9.42 5.019Z" clip-rule="evenodd"/>
  <path fill="currentColor" d="m16.237 5.612.812-1.623a.5.5 0 0 1 .894 0l.812 1.623a.5.5 0 0 0 .224.224l1.623.811a.5.5 0 0 1 0 .895l-1.623.811a.5.5 0 0 0-.224.224l-.812 1.623a.5.5 0 0 1-.894 0l-.812-1.623a.5.5 0 0 0-.223-.224l-1.623-.811a.5.5 0 0 1 0-.895l1.623-.811a.5.5 0 0 0 .223-.224Z"/>
</svg>
