<svg xmlns="http://www.w3.org/2000/svg" width="16" height="17" fill="none" viewBox="0 0 16 17">
  <path fill="currentColor" fill-rule="evenodd" d="M8.062 2.282c.13.223.119.5-.027.713a4 4 0 0 0 5.563 5.563.667.667 0 0 1 1.042.605 6.666 6.666 0 1 1-7.21-7.21.667.667 0 0 1 .632.329ZM6.28 3.544a5.332 5.332 0 1 0 6.768 6.768A5.333 5.333 0 0 1 6.28 3.544Z" clip-rule="evenodd"/>
  <path fill="currentColor" d="m10.825 3.94.541-1.082a.333.333 0 0 1 .596 0l.542 1.082a.333.333 0 0 0 .149.149l1.082.54a.333.333 0 0 1 0 .597l-1.082.541a.333.333 0 0 0-.15.15l-.54 1.081a.333.333 0 0 1-.597 0l-.54-1.082a.334.334 0 0 0-.15-.149l-1.082-.54a.333.333 0 0 1 0-.597l1.082-.541a.334.334 0 0 0 .15-.15Z"/>
</svg>
