<svg width="17" height="17" viewBox="0 0 17 17" fill="none" xmlns="http://www.w3.org/2000/svg">
<path d="M11.1667 8.59505V3.92839C11.1667 3.5602 10.8682 3.26172 10.5 3.26172H3.16667C2.79848 3.26172 2.5 3.5602 2.5 3.92839V12.2617C2.5 13.1822 3.24619 13.9284 4.16667 13.9284H12.8333M11.1667 8.59505V12.2617C11.1667 13.1822 11.9129 13.9284 12.8333 13.9284M11.1667 8.59505H13.8333C14.2015 8.59505 14.5 8.89353 14.5 9.26172V12.2617C14.5 13.1822 13.7538 13.9284 12.8333 13.9284M5.16667 11.2617H8.5M5.16667 5.92839H8.5V8.59505H5.16667V5.92839Z" stroke="black" stroke-width="1.33333" stroke-linecap="round" stroke-linejoin="round"/>
</svg>
