<svg width="16" height="16" viewBox="0 0 16 16" fill="none" xmlns="http://www.w3.org/2000/svg">
<path d="M13.5 7.33333V8.5C13.5 8.86819 13.2015 9.16667 12.8333 9.16667H9.83333C9.46514 9.16667 9.16667 9.46514 9.16667 9.83333V12.8333C9.16667 13.2015 8.86819 13.5 8.5 13.5H7.33333M3.16667 2.5H12.8333C13.2015 2.5 13.5 2.79848 13.5 3.16667V9.44261C13.5 9.61942 13.4298 9.78899 13.3047 9.91401L9.91401 13.3047C9.78899 13.4298 9.61942 13.5 9.44261 13.5H3.16667C2.79848 13.5 2.5 13.2015 2.5 12.8333V3.16667C2.5 2.79848 2.79848 2.5 3.16667 2.5Z" stroke="currentColor" stroke-width="1.5" stroke-linejoin="round"/>
</svg>
