<svg xmlns="http://www.w3.org/2000/svg" width="24" height="25" fill="none" viewBox="0 0 24 25">
  <path fill="currentColor" stroke="currentColor" d="m9.552 20.529-.052.03.052-.03Zm0 0 .008-.005m-.008.005.008-.005m0 0a4.018 4.018 0 0 0 1.397-1.415v-.002l.018-.03v-.001a3.984 3.984 0 0 0 .525-1.981v-13h-8m6.06 16.429L3.5 4.094m0 0v.5m0-.5v.5m0 0v12.5a4 4 0 0 0 6 3.465l-6-15.964Zm8.574-1.046.049.05.06.034 5.349 3.088c.365.211.608.553.704.932l.017.068.035.06 3.086 5.346a1.5 1.5 0 0 1-.549 2.049l-10.743 6.202-.008.005A5 5 0 0 1 2.5 17.095v-12.5a1.5 1.5 0 0 1 1.501-1.5h7c.421 0 .802.174 1.074.453Zm1.02 13.858-.933 1.616 1.616-.933 6.548-3.78.433-.25-.25-.433-2.182-3.78-.433-.75-.433.75-4.366 7.56ZM12.5 14.57v1.866l.933-1.617 3.782-6.55.25-.433-.433-.25-3.782-2.183-.75-.433v9.599Zm-3.75 2.525a1.25 1.25 0 1 1-2.5 0 1.25 1.25 0 0 1 2.5 0Z"/>
</svg>
