<svg xmlns="http://www.w3.org/2000/svg" width="17" height="17" fill="none" viewBox="0 0 17 17">
  <path fill="currentColor" d="m12.249 4.906.375-.65-.375.65Zm.244.911.65.375-.65-.375Zm2.196 3.36.65-.375-.65.375Zm-.244.91-.375-.65.375.65ZM3 3.178h5v-1.5H3v1.5Zm4.917-.083v8.5h1.5v-8.5h-1.5Zm-4.833 8.5v-8.5h-1.5v8.5h1.5ZM5.5 14.012a2.417 2.417 0 0 1-2.417-2.417h-1.5A3.917 3.917 0 0 0 5.5 15.512v-1.5Zm2.417-2.417A2.417 2.417 0 0 1 5.5 14.012v1.5a3.917 3.917 0 0 0 3.917-3.917h-1.5ZM3 1.678c-.782 0-1.417.634-1.417 1.417h1.5A.083.083 0 0 1 3 3.178v-1.5Zm8.843 3.764-4.25 7.361 1.3.75 4.25-7.361-1.3-.75Zm2.227 3.996-7.361 4.25.75 1.299 7.36-4.25-.75-1.3Zm-.03.114a.083.083 0 0 1 .03-.114l.75 1.299c.678-.391.91-1.258.518-1.935l-1.299.75ZM8.221 3.448l3.652 2.108.75-1.3L8.972 2.15l-.75 1.299ZM8 3.178a.083.083 0 0 1-.074-.046l1.343-.668A1.417 1.417 0 0 0 8 1.678v1.5Zm-.074-.046a.086.086 0 0 1-.01-.037h1.5c0-.225-.052-.44-.147-.631l-1.343.668ZM11.93 5.9l2.108 3.652 1.3-.75L13.23 5.15l-1.299.75Zm-.057-.344a.083.083 0 0 1-.042-.077l1.497.093a1.417 1.417 0 0 0-.705-1.315l-.75 1.299Zm-.042-.077a.089.089 0 0 1 .011-.037l1.3.75c.112-.195.173-.407.186-.62l-1.497-.093Zm-5.915 6.116c0 .23-.187.417-.417.417v1.5a1.917 1.917 0 0 0 1.917-1.917h-1.5Zm-.417.417a.417.417 0 0 1-.417-.417h-1.5c0 1.058.859 1.917 1.917 1.917v-1.5Zm-.417-.417c0-.23.187-.417.417-.417v-1.5a1.917 1.917 0 0 0-1.917 1.917h1.5Zm.417-.417c.23 0 .417.187.417.417h1.5A1.917 1.917 0 0 0 5.5 9.678v1.5Z"/>
</svg>
