<svg width="16" height="17" viewBox="0 0 16 17" fill="none" xmlns="http://www.w3.org/2000/svg">
  <path
    d="M6.16683 11.4284H9.8335M10.0002 7.59505C10.0002 8.69962 9.10473 9.59505 8.00016 9.59505C6.89559 9.59505 6.00016 8.69962 6.00016 7.59505C6.00016 6.49048 6.89559 5.59505 8.00016 5.59505C9.10473 5.59505 10.0002 6.49048 10.0002 7.59505ZM3.50016 14.4284H12.5002C12.8684 14.4284 13.1668 14.1299 13.1668 13.7617V3.42839C13.1668 3.0602 12.8684 2.76172 12.5002 2.76172H3.50016C3.13197 2.76172 2.8335 3.0602 2.8335 3.42839V13.7617C2.8335 14.1299 3.13197 14.4284 3.50016 14.4284Z"
    stroke="currentColor" stroke-width="1.5" stroke-linecap="round" stroke-linejoin="round" />
</svg>

