<svg width="24" height="25" viewBox="0 0 24 25" fill="none" xmlns="http://www.w3.org/2000/svg">
  <path
    d="M9.5 16.5947H14.5M14.5 11.0947C14.5 12.4754 13.3807 13.5947 12 13.5947C10.6193 13.5947 9.5 12.4754 9.5 11.0947C9.5 9.71401 10.6193 8.59473 12 8.59473C13.3807 8.59473 14.5 9.71401 14.5 11.0947ZM5.5 21.0947H18.5C19.0523 21.0947 19.5 20.647 19.5 20.0947V5.09473C19.5 4.54244 19.0523 4.09473 18.5 4.09473H5.5C4.94772 4.09473 4.5 4.54244 4.5 5.09473V20.0947C4.5 20.647 4.94772 21.0947 5.5 21.0947Z"
    stroke="currentColor" stroke-width="2" stroke-linecap="round" stroke-linejoin="round" />
</svg>

