<svg xmlns="http://www.w3.org/2000/svg" width="16" height="17" fill="none" viewBox="0 0 16 17">
  <path stroke="currentColor" stroke-linejoin="round" stroke-width="1.333" d="M11.333 11.928a2 2 0 1 1-4 0 2 2 0 0 1 4 0Zm-7.927-6.01a.333.333 0 0 1 .542-.197l2.654 2.226a.334.334 0 0 1-.1.569L3.246 9.701a.333.333 0 0 1-.442-.371l.602-3.412Zm5.922-2.179a.667.667 0 0 1 .816-.471l2.576.69c.355.095.566.46.471.816l-.69 2.576a.667.667 0 0 1-.816.471l-2.576-.69a.667.667 0 0 1-.472-.816l.69-2.576Z"/>
</svg>
