<svg width="24" height="25" viewBox="0 0 24 25" fill="none" xmlns="http://www.w3.org/2000/svg">
<path d="M5 5.59473H9.5V5.09473C9.5 3.71401 10.6193 2.59473 12 2.59473C13.3807 2.59473 14.5 3.71401 14.5 5.09473V5.59473H19C19.5523 5.59473 20 6.04244 20 6.59473V10.0947H19.5C18.1193 10.0947 17 11.214 17 12.5947C17 13.9754 18.1193 15.0947 19.5 15.0947H20V18.5947C20 19.147 19.5523 19.5947 19 19.5947H5C4.44772 19.5947 4 19.147 4 18.5947V6.59473C4 6.04244 4.44772 5.59473 5 5.59473Z" stroke="black" stroke-width="2" stroke-linecap="square" stroke-linejoin="round"/>
</svg>
