<svg width="16" height="17" viewBox="0 0 16 17" fill="none" xmlns="http://www.w3.org/2000/svg">
<path d="M2.5 4.42839C2.5 4.0602 2.79848 3.76172 3.16667 3.76172H6.16667V3.59505C6.16667 2.58253 6.98748 1.76172 8 1.76172C9.01252 1.76172 9.83333 2.58253 9.83333 3.59505V3.76172H12.8333C13.2015 3.76172 13.5 4.0602 13.5 4.42839V6.76172H13.3333C12.3208 6.76172 11.5 7.58253 11.5 8.59505C11.5 9.60758 12.3208 10.4284 13.3333 10.4284H13.5V12.7617C13.5 13.1299 13.2015 13.4284 12.8333 13.4284H3.16667C2.79848 13.4284 2.5 13.1299 2.5 12.7617V4.42839Z" stroke="black" stroke-width="1.5" stroke-linecap="square" stroke-linejoin="round"/>
</svg>
