<svg xmlns="http://www.w3.org/2000/svg" width="24" height="25" fill="none" viewBox="0 0 24 25">
  <path fill="currentColor" fill-rule="evenodd" d="M3 5.595a2 2 0 0 1 2-2h4a2 2 0 0 1 2 2v4a2 2 0 0 1-2 2H5a2 2 0 0 1-2-2v-4Zm6 0H5v4h4v-4Zm-6 10a2 2 0 0 1 2-2h4a2 2 0 0 1 2 2v4a2 2 0 0 1-2 2H5a2 2 0 0 1-2-2v-4Zm6 0H5v4h4v-4Zm4-10a2 2 0 0 1 2-2h4a2 2 0 0 1 2 2v4a2 2 0 0 1-2 2h-4a2 2 0 0 1-2-2v-4Zm6 0h-4v4h4v-4Zm-5 8a1 1 0 0 1 1 1v1h1a1 1 0 1 1 0 2h-2a1 1 0 0 1-1-1v-2a1 1 0 0 1 1-1Zm3 1a1 1 0 0 1 1-1h2a1 1 0 1 1 0 2h-2a1 1 0 0 1-1-1Zm0 4a1 1 0 0 1 1-1h2a1 1 0 1 1 0 2h-1v1a1 1 0 1 1-2 0v-2Z" clip-rule="evenodd"/>
  <path fill="currentColor" d="M15 20.595a1 1 0 1 1-2 0 1 1 0 0 1 2 0Z"/>
</svg>
