<svg width="16" height="16" viewBox="0 0 16 16" fill="none" xmlns="http://www.w3.org/2000/svg">
<path d="M8.36683 7.93325L8.16683 8.08325V8.33325V8.66659C8.16683 8.75863 8.09221 8.83325 8.00016 8.83325C7.90812 8.83325 7.8335 8.75863 7.8335 8.66659V8.33325C7.8335 8.07095 7.95699 7.82396 8.16683 7.66659L8.96683 7.06659L9.16683 6.91659V6.66659V5.99992V5.49992H8.66683H7.3335H6.8335V5.99992V6.66659C6.8335 6.75863 6.75888 6.83325 6.66683 6.83325C6.57478 6.83325 6.50016 6.75863 6.50016 6.66659V5.99992C6.50016 5.53968 6.87326 5.16659 7.3335 5.16659H8.66683C9.12707 5.16659 9.50016 5.53968 9.50016 5.99992V6.66659C9.50016 6.92888 9.37667 7.17587 9.16683 7.33325L8.36683 7.93325ZM8.00016 2.16659C4.7785 2.16659 2.16683 4.77826 2.16683 7.99992C2.16683 11.2216 4.7785 13.8333 8.00016 13.8333C11.2218 13.8333 13.8335 11.2216 13.8335 7.99992C13.8335 4.77826 11.2218 2.16659 8.00016 2.16659ZM1.8335 7.99992C1.8335 4.59416 4.59441 1.83325 8.00016 1.83325C11.4059 1.83325 14.1668 4.59416 14.1668 7.99992C14.1668 11.4057 11.4059 14.1666 8.00016 14.1666C4.59441 14.1666 1.8335 11.4057 1.8335 7.99992ZM8.16683 10.6666C8.16683 10.7586 8.09221 10.8333 8.00016 10.8333C7.90812 10.8333 7.8335 10.7586 7.8335 10.6666C7.8335 10.5745 7.90812 10.4999 8.00016 10.4999C8.09221 10.4999 8.16683 10.5745 8.16683 10.6666Z" fill="currentColor" stroke="currentColor"/>
</svg>
