<svg xmlns="http://www.w3.org/2000/svg" width="16" height="17" fill="none" viewBox="0 0 16 17">
  <path fill="currentColor" stroke="currentColor" d="m8.367 8.528-.2.15v.584a.167.167 0 0 1-.333 0v-.334a.83.83 0 0 1 .333-.666l.8-.6.2-.15V6.095H6.834v1.167a.167.167 0 0 1-.334 0v-.667c0-.46.373-.833.833-.833h1.334c.46 0 .833.373.833.833v.667a.831.831 0 0 1-.333.666l-.8.6ZM8 2.762a5.833 5.833 0 1 0 0 11.666A5.833 5.833 0 0 0 8 2.762ZM1.833 8.595a6.167 6.167 0 1 1 12.334 0 6.167 6.167 0 0 1-12.333 0Zm6.334 2.667a.167.167 0 1 1-.333 0 .167.167 0 0 1 .333 0Z"/>
</svg>
