<svg xmlns="http://www.w3.org/2000/svg" width="16" height="16" fill="none" viewBox="0 0 16 16">
  <path
    d="M7.673 1.77897C7.87594 1.66482 8.12373 1.66482 8.32667 1.77897L12.9934 4.40394C13.2033 4.52202 13.3332 4.74415 13.3332 4.985V10.2052C13.3332 10.446 13.2033 10.6682 12.9934 10.7862L8.32666 13.4112C8.12372 13.5253 7.87594 13.5254 7.673 13.4112L3.00635 10.7864C2.79642 10.6684 2.6665 10.4462 2.6665 10.2054V4.98498C2.6665 4.74413 2.79641 4.522 3.00633 4.40393L7.673 1.77897Z"
    stroke="currentColor" stroke-width="1.5" stroke-linecap="square" stroke-linejoin="round" />
  <path
    d="M9.99985 8.08954C9.99985 9.12913 9.10442 9.97186 7.99985 9.97186C6.89529 9.97186 5.99985 9.12913 5.99985 8.08954C5.99985 7.04994 6.89529 6.20718 7.99985 6.20718C9.10442 6.20718 9.99985 7.04994 9.99985 8.08954Z"
    stroke="currentColor" stroke-width="1.5" stroke-linecap="square" stroke-linejoin="round" />
</svg>
