<svg width="16" height="16" viewBox="0 0 16 16" fill="none" xmlns="http://www.w3.org/2000/svg">
  <path stroke="currentColor" stroke-width="1.5" stroke-linecap="square" stroke-linejoin="round" d="M7.67324 2.184C7.87618 2.06985 8.12398 2.06985 8.32692 2.184L12.9936 4.80897C13.2035 4.92705 13.3334 5.14917 13.3334 5.39003V10.6102C13.3334 10.8511 13.2035 11.0732 12.9936 11.1913L8.3269 13.8162C8.12397 13.9304 7.87618 13.9304 7.67325 13.8162L3.00659 11.1915C2.79666 11.0734 2.66675 10.8513 2.66675 10.6104L2.66675 5.39001C2.66675 5.14916 2.79666 4.92703 3.00658 4.80896L7.67324 2.184Z"/>
  <path stroke="currentColor" stroke-width="1.5" stroke-linecap="square" stroke-linejoin="round" d="M10.0001 8.00016C10.0001 9.10473 9.10467 10.0002 8.0001 10.0002C6.89553 10.0002 6.0001 9.10473 6.0001 8.00016C6.0001 6.89559 6.89553 6.00016 8.0001 6.00016C9.10467 6.00016 10.0001 6.89559 10.0001 8.00016Z"/>
</svg>
