<svg width="24" height="25" viewBox="0 0 24 25" fill="none" xmlns="http://www.w3.org/2000/svg">
  <path
    d="M11.5097 3.87061C11.8142 3.69938 12.1858 3.69938 12.4903 3.87061L19.4903 7.80806C19.8052 7.98518 20 8.31837 20 8.67964V16.5099C20 16.8712 19.8052 17.2044 19.4903 17.3815L12.4902 21.3189C12.1858 21.4902 11.8142 21.4902 11.5097 21.319L4.50977 17.3818C4.19487 17.2047 4 16.8715 4 16.5102L4 8.67962C4 8.31834 4.19486 7.98516 4.50975 7.80804L11.5097 3.87061Z"
    stroke="currentColor" stroke-width="2" stroke-linecap="square" stroke-linejoin="round" />
  <path
    d="M15 12.5948C15 14.2517 13.6569 15.5948 12 15.5948C10.3432 15.5948 9.00003 14.2517 9.00003 12.5948C9.00003 10.938 10.3432 9.59484 12 9.59484C13.6569 9.59484 15 10.938 15 12.5948Z"
    stroke="currentColor" stroke-width="2" stroke-linecap="square" stroke-linejoin="round" />
</svg>

