<svg width="16" height="17" viewBox="0 0 16 17" fill="none" xmlns="http://www.w3.org/2000/svg">
  <path
    d="M7.673 2.77897C7.87594 2.66482 8.12373 2.66482 8.32667 2.77897L12.9934 5.40394C13.2033 5.52202 13.3332 5.74415 13.3332 5.985V11.2052C13.3332 11.446 13.2033 11.6682 12.9934 11.7862L8.32666 14.4112C8.12372 14.5253 7.87594 14.5254 7.673 14.4112L3.00635 11.7864C2.79642 11.6684 2.6665 11.4462 2.6665 11.2054L2.6665 5.98498C2.6665 5.74413 2.79641 5.522 3.00633 5.40393L7.673 2.77897Z"
    stroke="currentColor" stroke-width="1.5" stroke-linecap="square" stroke-linejoin="round" />
  <path
    d="M9.99985 8.59513C9.99985 9.6997 9.10442 10.5951 7.99985 10.5951C6.89529 10.5951 5.99985 9.6997 5.99985 8.59513C5.99985 7.49056 6.89529 6.59513 7.99985 6.59513C9.10442 6.59513 9.99985 7.49056 9.99985 8.59513Z"
    stroke="currentColor" stroke-width="1.5" stroke-linecap="square" stroke-linejoin="round" />
</svg>

