<svg width="40" height="41" viewBox="0 0 40 41" fill="none" xmlns="http://www.w3.org/2000/svg">
  <rect y="1" width="40" height="40" rx="20" fill="#FC6432" />
  <path
    d="M40 20.8359C40 9.79024 31.0457 0.835938 20 0.835938C8.9543 0.835938 0 9.79024 0 20.8359C0 31.8816 8.9543 40.8359 20 40.8359C31.0457 40.8359 40 31.8816 40 20.8359Z"
    fill="#FC6432"
  />
  <path
    fill-rule="evenodd"
    clip-rule="evenodd"
    d="M23.4035 17.5072C23.3304 17.3816 23.3408 17.2246 23.4244 17.099L26.9165 11.9176C27.0107 11.771 27.0211 11.5931 26.9374 11.4465C26.8537 11.2895 26.697 11.2058 26.5296 11.2058H25.1705C25.0242 11.2058 24.8778 11.279 24.7836 11.4151L20.7061 17.4864C20.6014 17.6433 20.4341 17.7271 20.246 17.7271H19.7336C19.5455 17.7271 19.3781 17.6329 19.2737 17.4864L15.217 11.4047C15.1333 11.2686 14.9764 11.1953 14.83 11.1953H13.4708C13.3036 11.1953 13.1363 11.2895 13.0631 11.4465C12.9794 11.6035 13.0004 11.7815 13.084 11.9176L16.5761 17.1096C16.6598 17.2246 16.6702 17.3816 16.597 17.5072C16.5238 17.6433 16.3984 17.7166 16.252 17.7166H10.9093C10.6479 17.7166 10.4492 17.926 10.4492 18.1772V19.3076C10.4492 19.5693 10.6583 19.7683 10.9093 19.7683H29.0913C29.3526 19.7683 29.5513 19.5589 29.5513 19.3076V18.1772C29.5513 17.9364 29.3736 17.7481 29.1436 17.7166C29.1226 17.7166 29.1017 17.7166 29.0809 17.7166H23.7485C23.6022 17.7166 23.4662 17.6433 23.4035 17.5072ZM19.2841 24.175L15.2064 30.2463C15.1228 30.3824 14.966 30.4556 14.8196 30.4556H13.4604C13.2931 30.4556 13.1363 30.3614 13.0526 30.2149C12.969 30.0684 12.9794 29.88 13.0735 29.7438L16.5551 24.5624C16.6388 24.4369 16.6494 24.2902 16.5761 24.1542C16.503 24.0285 16.3774 23.9449 16.231 23.9449H10.9093C10.6583 23.9449 10.4492 23.7459 10.4492 23.4842V22.3538C10.4492 22.1025 10.6479 21.8931 10.9093 21.8931H29.0495C29.0495 21.8931 29.0809 21.8931 29.0913 21.8931C29.3422 21.8931 29.5513 22.0921 29.5513 22.3538V23.4842C29.5513 23.7355 29.3526 23.9449 29.0913 23.9449H23.7589C23.6022 23.9449 23.4767 24.0181 23.4139 24.1542C23.3408 24.2902 23.3512 24.4369 23.4348 24.5519L26.927 29.7438C27.0107 29.88 27.0315 30.0578 26.948 30.2149C26.8643 30.372 26.7074 30.4662 26.5402 30.4662H25.1809C25.0242 30.4662 24.8882 30.3929 24.8045 30.2672L20.7269 24.196C20.6224 24.0391 20.4551 23.9553 20.2669 23.9553H19.7546C19.5664 23.9553 19.3991 24.0495 19.2945 24.196L19.2841 24.175Z"
    fill="white"
  />
</svg>