<svg xmlns="http://www.w3.org/2000/svg" width="16" height="17" fill="none" viewBox="0 0 16 17">
  <path fill="currentColor" d="M3.97 10.994V9.653c0-.349.28-.631.624-.631h7.072c.345 0 .624.282.624.63v1.342H3.97Zm.39.263h7.54v.789H4.36v-.79ZM9.95 3.37c0-1.263-1.17-1.775-1.885-1.775-.715 0-1.885.512-1.885 1.774 0 1.71 1.235 2.367 1.235 3.221 0 .52-.075.921-.14 1.15-.028.102-.123.163-.226.172-.432.038-.739.241-.739.847h3.51c0-.606-.307-.81-.739-.847-.103-.01-.198-.07-.226-.171-.065-.23-.14-.63-.14-1.15 0-.855 1.235-1.513 1.235-3.222Zm-.71 11.436a.721.721 0 0 0 .645-.458c.116.276.37.455.644.458a1.534 1.534 0 0 1-.644.633 1.534 1.534 0 0 1-.644-.633Zm-.146 0H6.765c-.374 0-.715-.332-.715-.789h-.78c0 .85.649 1.578 1.495 1.578h2.47c.176 0 .344-.032.499-.09a1.682 1.682 0 0 1-.64-.699Z"/>
  <path fill="currentColor" d="M10.594 14.675c.088-.202.136-.425.136-.658h-.78c0 .378.277.658.644.658Zm-5.27.131H2.995c-.374 0-.715-.332-.715-.789H1.5c0 .85.649 1.578 1.495 1.578h2.47c.176 0 .344-.032.499-.09a1.682 1.682 0 0 1-.64-.699Zm1.5-.131h-.059c-.297 0-.585-.267-.585-.658h.78c0 .233-.048.456-.136.658Zm2.317-1.184a1.404 1.404 0 0 0-.101.526h.78c0-.262-.233-.526-.585-.526h-.094Z"/>
  <path fill="currentColor" d="M10.568 13.36h-.033a.715.715 0 0 0-.65.385.715.715 0 0 0-.65-.385c-.075 0 .519-.583.65-.644.292.136.534.361.683.644Zm.146 0h2.291c.417 0 .715.316.715.657h.78c0-.82-.692-1.446-1.495-1.446h-2.47c-.17 0-.335.028-.489.08.29.162.526.408.668.709Z"/>
  <path fill="currentColor" fill-rule="evenodd" d="M1.5 14.017c0-.82.692-1.446 1.495-1.446h2.47c.803 0 1.495.626 1.495 1.446h-.78c0-.34-.297-.657-.715-.657h-2.47c-.417 0-.715.316-.715.657H1.5Zm7.54 0c0 .85.649 1.578 1.495 1.578h2.47c.846 0 1.495-.728 1.495-1.578h-.78c0 .457-.34.789-.715.789h-2.47c-.374 0-.715-.332-.715-.789h-.78Z" clip-rule="evenodd"/>
  <path fill="currentColor" d="M5.371 13.491a1.404 1.404 0 0 0-.101.526h.78c0-.262-.233-.526-.585-.526h-.094Zm1.573-.131h2.291c.418 0 .715.316.715.657h.78c0-.82-.692-1.446-1.495-1.446h-2.47c-.17 0-.335.028-.489.08.29.162.526.408.668.709Z"/>
</svg>
