<svg xmlns="http://www.w3.org/2000/svg" width="24" height="25" fill="none" viewBox="0 0 24 25">
  <path fill="currentColor" d="M5.457 16.36v-1.997a1 1 0 0 1 1-1h11.33a1 1 0 0 1 1 1v1.997H5.458Zm.625.544h12.08v1.25H6.083v-1.25Zm8.957-12.497c0-2-1.875-2.812-3.02-2.812-1.146 0-3.02.812-3.02 2.812 0 2.707 1.978 3.749 1.978 5.103 0 .824-.12 1.46-.224 1.823-.046.16-.197.256-.363.27-.692.061-1.183.383-1.183 1.343h5.623c0-.96-.491-1.282-1.183-1.342-.166-.015-.317-.111-.363-.271-.104-.364-.224-1-.224-1.823 0-1.354 1.979-2.396 1.979-5.103ZM14 22.636c.438-.004.846-.289 1.032-.726.185.437.593.722 1.032.726-.238.43-.596.783-1.032 1.003a2.445 2.445 0 0 1-1.033-1.003Zm-.236 0h-3.731c-.6 0-1.146-.526-1.146-1.25h-1.25c0 1.346 1.04 2.5 2.396 2.5h3.957c.282 0 .55-.05.8-.142a2.677 2.677 0 0 1-1.026-1.108Z"/>
  <path fill="currentColor" d="M16.167 22.427c.14-.32.218-.673.218-1.041h-1.25c0 .599.444 1.041 1.032 1.041Zm-8.443.209H3.992c-.599 0-1.145-.526-1.145-1.25h-1.25c0 1.346 1.04 2.5 2.395 2.5H7.95c.282 0 .55-.05.799-.142a2.677 2.677 0 0 1-1.025-1.108Zm2.403-.209h-.094c-.475 0-.938-.422-.938-1.041h1.25c0 .368-.078.722-.218 1.041Zm3.713-1.874a2.203 2.203 0 0 0-.162.833h1.25c0-.415-.374-.833-.938-.833h-.15Z"/>
  <path fill="currentColor" d="M16.126 20.344h-.053c-.483 0-.866.262-1.041.61-.176-.348-.559-.61-1.042-.61-.12 0 .832-.924 1.042-1.02a2.36 2.36 0 0 1 1.094 1.02Zm.234 0h3.67c.67 0 1.146.502 1.146 1.042h1.25c0-1.3-1.109-2.291-2.396-2.291h-3.957c-.272 0-.536.044-.783.126.463.256.842.646 1.07 1.123Z"/>
  <path fill="currentColor" fill-rule="evenodd" d="M1.597 21.386c0-1.3 1.109-2.291 2.395-2.291H7.95c1.287 0 2.395.99 2.395 2.29h-1.25c0-.54-.476-1.04-1.145-1.04H3.992c-.668 0-1.145.5-1.145 1.04h-1.25Zm12.081 0c0 1.346 1.039 2.5 2.395 2.5h3.957c1.357 0 2.396-1.154 2.396-2.5h-1.25c0 .724-.546 1.25-1.146 1.25h-3.957c-.6 0-1.146-.526-1.146-1.25h-1.25Z" clip-rule="evenodd"/>
  <path fill="currentColor" d="M7.8 20.553a2.203 2.203 0 0 0-.163.833h1.25c0-.415-.373-.833-.937-.833H7.8Zm2.52-.209h3.67c.67 0 1.146.502 1.146 1.042h1.25c0-1.3-1.11-2.291-2.396-2.291h-3.957c-.272 0-.536.044-.784.126.464.256.843.646 1.07 1.123Z"/>
</svg>
