<svg xmlns="http://www.w3.org/2000/svg" width="16" height="17" fill="none" viewBox="0 0 16 17">
  <path stroke="currentColor" stroke-linecap="round" stroke-linejoin="round" stroke-width="1.5" d="M7.7 1.95a.333.333 0 0 1 .6 0l1.713 3.57a.333.333 0 0 0 .256.185l3.941.517a.332.332 0 0 1 .186.57l-2.882 2.72a.331.331 0 0 0-.098.302l.723 3.887a.333.333 0 0 1-.486.353l-3.495-1.887a.333.333 0 0 0-.316 0l-3.496 1.887a.333.333 0 0 1-.485-.353l.724-3.887a.331.331 0 0 0-.099-.301L1.604 6.792a.332.332 0 0 1 .186-.57l3.94-.517a.333.333 0 0 0 .257-.186L7.7 1.95Z"/>
</svg>
