<svg xmlns="http://www.w3.org/2000/svg" width="16" height="17" fill="none" viewBox="0 0 16 17">
  <path fill="currentColor" d="m3.793 14.138-.748.048.748-.048Zm8.414 0 .748.048-.748-.048ZM1.834 3.678a.75.75 0 1 0 0 1.5v-1.5Zm12.333 1.5a.75.75 0 0 0 0-1.5v1.5Zm-4.31-.563a.75.75 0 1 0 1.452-.374l-1.452.374Zm-7.439-.138.627 9.71 1.497-.098-.627-9.71-1.497.098Zm2.04 11.035h7.084v-1.5H4.459v1.5Zm8.498-1.326.626-9.71-1.497-.096-.626 9.71 1.497.096Zm-.122-10.508H3.167v1.5h9.667v-1.5Zm-11 1.5h1.333v-1.5H1.834v1.5Zm11 0h1.333v-1.5h-1.333v1.5Zm-1.292 10.334c.747 0 1.365-.58 1.414-1.326l-1.497-.097a.083.083 0 0 1 .083-.077v1.5Zm-8.497-1.326a1.417 1.417 0 0 0 1.414 1.326v-1.5c.043 0 .08.034.083.077l-1.497.097ZM8 3.178c.892 0 1.644.61 1.857 1.437l1.452-.374A3.418 3.418 0 0 0 8 1.678v1.5ZM6.144 4.615A1.918 1.918 0 0 1 8 3.178v-1.5a3.418 3.418 0 0 0-3.309 2.563l1.453.374Z"/>
</svg>
