<svg xmlns="http://www.w3.org/2000/svg" width="24" height="25" fill="none" viewBox="0 0 24 25">
  <path fill="currentColor" d="m5.938 20.661.998-.066-.998.066Zm12.124 0-.998-.066.998.066ZM3 5.595a1 1 0 1 0 0 2v-2Zm18 2a1 1 0 1 0 0-2v2Zm-10 4a1 1 0 1 0-2 0h2Zm-2 5a1 1 0 1 0 2 0H9Zm6-5a1 1 0 1 0-2 0h2Zm-2 5a1 1 0 1 0 2 0h-2Zm1.906-9.751a1 1 0 1 0 1.936-.499l-1.936.499ZM4.002 6.661l.938 14.067 1.996-.133-.938-14.067-1.996.133Zm2.934 15.934h10.128v-2H6.936v2Zm12.124-1.867.938-14.067-1.996-.133-.938 14.067 1.996.133ZM19 5.595H5v2h14v-2Zm-16 2h2v-2H3v2Zm16 0h2v-2h-2v2Zm-1.936 15a2 2 0 0 0 1.996-1.867l-1.996-.133v2ZM4.94 20.728a2 2 0 0 0 1.996 1.867v-2l-1.996.133ZM9 11.595v5h2v-5H9Zm4 0v5h2v-5h-2Zm-1-7c1.396 0 2.572.955 2.906 2.249l1.936-.499A5.002 5.002 0 0 0 12 2.595v2ZM9.094 6.844A3.002 3.002 0 0 1 12 4.594v-2a5.002 5.002 0 0 0-4.842 3.751l1.936.499Z"/>
</svg>
