<svg width="16" height="16" viewBox="0 0 16 16" fill="none" xmlns="http://www.w3.org/2000/svg">
<path d="M2.6665 4.33317V11.3332C2.6665 12.4377 3.56193 13.3332 4.6665 13.3332H12.6665C13.0347 13.3332 13.3332 13.0347 13.3332 12.6665V6.6665C13.3332 6.29831 13.0347 5.99984 12.6665 5.99984H10.6665M2.6665 4.33317C2.6665 5.25365 3.4127 5.99984 4.33317 5.99984H10.6665M2.6665 4.33317C2.6665 3.4127 3.4127 2.6665 4.33317 2.6665H10.1665C10.4426 2.6665 10.6665 2.89036 10.6665 3.1665V5.99984" stroke="currentColor" stroke-width="1.5" stroke-linecap="square" stroke-linejoin="round"/>
<path d="M10.3333 10.2502C10.6555 10.2502 10.9167 9.989 10.9167 9.66683C10.9167 9.34466 10.6555 9.0835 10.3333 9.0835C10.0112 9.0835 9.75 9.34466 9.75 9.66683C9.75 9.989 10.0112 10.2502 10.3333 10.2502Z" fill="currentColor" stroke="currentColor" stroke-width="0.5"/>
</svg>
