<svg width="17" height="17" viewBox="0 0 17 17" fill="none" xmlns="http://www.w3.org/2000/svg">
<g clip-path="url(#clip0_16871_4470)">
<path d="M7.83317 13.9279H13.1665C13.5347 13.9279 13.8332 13.6294 13.8332 13.2612V7.26123C13.8332 6.89304 13.5347 6.59456 13.1665 6.59456H11.1665M3.1665 4.9279C3.1665 5.84837 3.9127 6.59456 4.83317 6.59456H11.1665M3.1665 4.9279C3.1665 4.00742 3.9127 3.26123 4.83317 3.26123H10.6665C10.9426 3.26123 11.1665 3.48509 11.1665 3.76123V6.59456M3.1665 4.9279V7.9279" stroke="currentColor" stroke-width="1.5" stroke-linecap="round" stroke-linejoin="round"/>
<path d="M10.8333 10.8449C11.1555 10.8449 11.4167 10.5837 11.4167 10.2616C11.4167 9.93939 11.1555 9.67822 10.8333 9.67822C10.5112 9.67822 10.25 9.93939 10.25 10.2616C10.25 10.5837 10.5112 10.8449 10.8333 10.8449Z" fill="currentColor" stroke="currentColor" stroke-width="0.5"/>
<path d="M3.1665 10.5947L3.1665 14.5947" stroke="currentColor" stroke-width="1.5" stroke-linecap="round"/>
<path d="M1.1665 12.5947H5.1665" stroke="currentColor" stroke-width="1.5" stroke-linecap="round"/>
</g>
<defs>
<clipPath id="clip0_16871_4470">
<rect width="16" height="16" fill="white" transform="translate(0.5 0.594727)"/>
</clipPath>
</defs>
</svg>
