<svg xmlns="http://www.w3.org/2000/svg" width="16" height="17" fill="none" viewBox="0 0 16 17">
  <path stroke="currentColor" stroke-linecap="square" stroke-linejoin="round" stroke-width="1.5" d="M2.667 4.928v7a2 2 0 0 0 2 2h8a.667.667 0 0 0 .666-.667v-6a.667.667 0 0 0-.667-.666h-2m-8-1.667c0 .92.747 1.667 1.667 1.667h6.333m-8-1.667c0-.92.747-1.667 1.667-1.667h5.833a.5.5 0 0 1 .5.5v2.834"/>
  <path fill="currentColor" stroke="currentColor" stroke-width=".5" d="M10.333 10.845a.583.583 0 1 0 0-1.167.583.583 0 0 0 0 1.167Z"/>
</svg>
