<svg width="24" height="24" viewBox="0 0 24 24" fill="none" xmlns="http://www.w3.org/2000/svg">
  <path fill-rule="evenodd" clip-rule="evenodd"
    d="M15.4996 14.3273L11.4996 17.5041V19.0686C11.4996 19.2583 11.7027 19.3789 11.8693 19.288L15.3693 17.3789C15.4496 17.3351 15.4996 17.2509 15.4996 17.1595V14.3273ZM9.99957 17.4526L6.55002 14.0031H4.93411C3.60576 14.0031 2.76171 12.5813 3.3978 11.4151L5.30689 7.9151C5.61354 7.35289 6.2028 7.00309 6.8432 7.00309H10.9016C13.5106 4.22657 16.4241 2.34212 20.1909 2.04434C21.2012 1.96447 22.0382 2.80141 21.9583 3.81176C21.6605 7.57859 19.7761 10.492 16.9996 13.1011V17.1595C16.9996 17.7999 16.6498 18.3891 16.0876 18.6958L12.5876 20.6049C11.4214 21.2409 9.99957 20.3969 9.99957 19.0686V17.4526ZM9.67534 8.50309H6.8432C6.75172 8.50309 6.66754 8.55306 6.62373 8.63338L4.71464 12.1334C4.62377 12.3 4.74435 12.5031 4.93411 12.5031H6.49857L9.67534 8.50309Z"
    fill="currentColor" />
  <path
    d="M1.99805 19.1976C1.99805 17.6481 3.25414 16.392 4.8036 16.392C6.35307 16.392 7.60916 17.6481 7.60916 19.1976C7.60916 20.747 6.35307 22.0031 4.8036 22.0031H2.74805C2.33383 22.0031 1.99805 21.6674 1.99805 21.2531V19.1976Z"
    fill="currentColor" />
</svg>

