<svg width="24" height="24" viewBox="0 0 24 24" fill="none" xmlns="http://www.w3.org/2000/svg">
  <path fill-rule="evenodd" clip-rule="evenodd"
    d="M12.3039 3.57441C12.1151 3.46478 11.8849 3.46478 11.6999 3.57441L8.30203 5.54011C8.11326 5.64973 8 5.85008 8 6.06555V9.99695C8 10.2124 8.11326 10.4128 8.30203 10.5224L10.605 11.8568C10.79 11.9664 10.907 12.163 10.907 12.3823V19.9048V20.056C10.907 20.3055 11.1109 20.5097 11.3601 20.5097H11.5111H12.4927H12.6437C12.8929 20.5097 13.0967 20.3055 13.0967 20.056V12.3331C13.1118 12.1365 13.2251 11.9589 13.395 11.8568L15.698 10.5224C15.883 10.4128 16 10.2162 16 9.99695V6.06555C16 5.85008 15.8867 5.64973 15.698 5.54011L12.3039 3.57441ZM12.2322 6.06933C12.0925 5.98617 11.9151 5.98617 11.7754 6.06933L10.4162 6.86317C10.2765 6.94634 10.1897 7.09377 10.1897 7.25631V8.85155C10.1897 9.0141 10.2765 9.16153 10.4162 9.2447L11.7754 10.0385C11.9151 10.1217 12.0925 10.1217 12.2322 10.0385L13.5913 9.2447C13.731 9.16153 13.8178 9.0141 13.8178 8.85155V7.25631C13.8178 7.09377 13.731 6.94634 13.5913 6.86317L12.2322 6.06933ZM14.4936 16.291C14.1916 16.1133 13.8141 16.3326 13.8141 16.6841V16.9525V19.0694V19.3378C13.8141 19.6894 14.1916 19.9048 14.4936 19.7309L15.3997 19.2017C15.5394 19.1186 15.6262 18.9711 15.6262 18.8086V17.2133C15.6262 17.0508 15.5394 16.9034 15.3997 16.8202L14.4936 16.291Z"
    fill="currentColor" />
</svg>

