<svg width="24" height="24" viewBox="0 0 24 24" fill="none" xmlns="http://www.w3.org/2000/svg">
  <path fill-rule="evenodd" clip-rule="evenodd"
    d="M20 9.08613C20 19.2363 12 22 12 22C12 22 4 19.2363 4 9.08613V5.43247C4 5.03201 4.30676 4.71064 4.69142 4.68098C6.14242 4.61176 9.58977 4.31512 12 3C14.4151 4.31512 17.8575 4.61176 19.3086 4.68592C19.6933 4.71064 20 5.03201 20 5.43247V9.08613ZM13.0128 8.81915C14.2008 8.93287 15.1357 9.31355 15.2331 10.421C15.3061 11.2318 14.9702 11.7164 14.4346 11.9932C15.3159 12.2108 15.8612 12.7447 15.7444 13.9363C15.5983 15.4096 14.5076 15.8002 12.9592 15.8793L12.9641 17.4268H12.0341L12.0389 15.8941C11.8004 15.8892 11.5569 15.8842 11.3037 15.8793L11.294 17.4268L10.3786 17.4218L10.3737 15.8645C10.1595 15.8645 8.69872 15.8694 8.69872 15.8694L8.70846 14.7421L9.74072 14.7372L9.74559 9.79313H8.56726V8.80926C8.56726 8.80926 10.2276 8.80926 10.4273 8.80432L10.4224 7.26672L11.3524 7.26177V8.7796C11.6007 8.77466 11.8587 8.77466 12.1022 8.77466L12.0974 7.27661L13.0177 7.27166L13.0128 8.81915ZM11.5218 14.7502C12.2733 14.7666 13.9143 14.8024 13.9233 13.7335C13.9321 12.6445 12.3467 12.6705 11.5701 12.6832C11.483 12.6847 11.406 12.6859 11.3426 12.6854L11.3475 14.747C11.3978 14.7475 11.4564 14.7487 11.5218 14.7502ZM11.5164 11.7491C12.1377 11.7648 13.5053 11.7993 13.5143 10.8265C13.5187 9.82818 12.1779 9.85942 11.5411 9.87426C11.4746 9.87581 11.4158 9.87718 11.367 9.87718L11.3718 11.7461C11.4134 11.7464 11.4621 11.7477 11.5164 11.7491Z"
    fill="currentColor" />
</svg>

