<svg width="24" height="24" viewBox="0 0 24 24" fill="none" xmlns="http://www.w3.org/2000/svg">
  <path
    d="M19.3735 21.2961C19.3735 22.1587 16.0975 22.8579 12.0564 22.8579C8.01522 22.8579 4.73926 22.1587 4.73926 21.2961C4.73926 20.4336 8.01522 19.7344 12.0564 19.7344C16.0975 19.7344 19.3735 20.4336 19.3735 21.2961Z"
    fill="currentColor" />
  <path fill-rule="evenodd" clip-rule="evenodd"
    d="M4.23207 14.3492C4.23207 16.8704 6.55654 18.0009 8.82928 18.008C14.147 18.008 20.0305 14.7393 19.9999 9.26915C19.9779 5.32537 16.3541 1.96797 12.066 2.00023C7.98558 2.00023 4.00027 4.66442 4 8.29394C4 9.26865 4.55917 10.2116 6.02088 10.3178C4.80213 11.5246 4.23207 12.9707 4.23207 14.3492ZM12.08 10.7849C12.9324 10.7849 13.6234 9.9546 13.6234 8.93032C13.6234 7.90606 12.9324 7.07573 12.08 7.07573C11.2276 7.07573 10.5366 7.90606 10.5366 8.93032C10.5366 9.9546 11.2276 10.7849 12.08 10.7849ZM16.5054 10.7849C17.3578 10.7849 18.0488 9.9546 18.0488 8.93032C18.0488 7.90606 17.3578 7.07573 16.5054 7.07573C15.6529 7.07573 14.9619 7.90606 14.9619 8.93032C14.9619 9.9546 15.6529 10.7849 16.5054 10.7849Z"
    fill="currentColor" />
</svg>

