<svg width="24" height="24" viewBox="0 0 24 24" fill="none" xmlns="http://www.w3.org/2000/svg">
  <path
    d="M5.72965 16.4767C5.08395 16.4703 4.94679 16.7777 5.3435 17.2695C6.91555 19.2285 9.30213 20.5068 12.001 20.5068C14.6999 20.5068 17.0864 19.2285 18.6585 17.2695C19.0552 16.7777 18.9159 16.4724 18.2723 16.4767C15.1346 16.4915 5.72965 16.4767 5.72965 16.4767Z"
    fill="currentColor" />
  <path
    d="M4.97043 15.157C4.64969 15.7188 4.3205 15.687 4.09261 15.0976C3.18947 12.7507 3.2802 10.035 4.63069 7.68597C5.98119 5.33697 8.27491 3.9017 10.7501 3.51162C11.3726 3.41409 11.5688 3.68758 11.2396 4.24515C11.2396 4.24515 6.5235 12.4221 4.97043 15.157Z"
    fill="currentColor" />
  <path
    d="M12.7614 4.24525C12.4365 3.68556 12.6285 3.41419 13.251 3.51171C15.7262 3.89968 18.02 5.33707 19.3704 7.68607C20.7209 10.0351 20.8095 12.7508 19.9085 15.0977C19.6806 15.6892 19.3493 15.721 19.0307 15.1571C19.0307 15.1571 14.3399 6.96526 12.7614 4.24525Z"
    fill="currentColor" />
</svg>

