<svg width="24" height="24" viewBox="0 0 24 24" fill="none" xmlns="http://www.w3.org/2000/svg">
  <path
    d="M18.7679 17.9375C20.2105 16.2951 21.004 14.1848 21 12.0012C21.0004 11.3916 20.9393 10.7835 20.8175 10.186C20.8058 10.109 20.7881 10.0329 20.7646 9.95854C20.7646 9.96703 20.7707 9.97492 20.7731 9.98341C19.8608 5.98362 16.278 3 12.0012 3C7.03045 3 3 7.02954 3 12.0012C2.9997 12.536 3.04672 13.0697 3.14049 13.5962C3.14003 13.5975 3.14003 13.599 3.14049 13.6004C3.15798 13.6833 3.18281 13.7645 3.21469 13.843C3.18215 13.7623 3.15671 13.6789 3.13867 13.5937C3.891 17.804 7.57115 21 11.9976 21C13.5545 21.002 15.0849 20.5983 16.4373 19.8291L16.9342 20.4431C17.0581 20.5954 17.2109 20.7218 17.3839 20.8152C17.5568 20.9086 17.7465 20.967 17.9421 20.9873C18.1377 21.0075 18.3353 20.9891 18.5238 20.9331C18.7122 20.8771 18.8878 20.7846 19.0404 20.6609C19.3497 20.4105 19.5468 20.048 19.5885 19.6529C19.6301 19.2577 19.5128 18.8623 19.2624 18.5533L18.7679 17.9375ZM20.4964 9.45803C20.4709 9.4271 20.4441 9.39738 20.4167 9.36825C20.4441 9.39676 20.4709 9.4271 20.4964 9.45803ZM20.7397 9.89242C20.733 9.87482 20.7263 9.85723 20.719 9.84025C20.7287 9.85781 20.7354 9.87783 20.7421 9.89242H20.7397ZM20.6916 9.77593C20.6837 9.75896 20.6752 9.74195 20.6661 9.72436C20.6776 9.74195 20.6862 9.7565 20.6941 9.77593H20.6916ZM20.6344 9.6643C20.6247 9.64732 20.6144 9.63094 20.6034 9.61393C20.6168 9.63094 20.6272 9.64732 20.6369 9.6643H20.6344ZM20.5688 9.55813C20.5566 9.54116 20.5432 9.52415 20.5304 9.50718C20.5457 9.52415 20.559 9.54116 20.5712 9.55813H20.5688ZM19.4612 8.91021C19.4169 8.90657 19.3725 8.90414 19.3268 8.90414C19.3749 8.90716 19.4193 8.90716 19.4637 8.91021H19.4612ZM20.379 9.33185C20.3614 9.31488 20.3443 9.29728 20.3255 9.2809C20.3419 9.29728 20.3614 9.31488 20.379 9.33185ZM20.2811 9.2457C20.2628 9.23072 20.2446 9.21617 20.2264 9.20203C20.2458 9.21617 20.264 9.23072 20.2811 9.2457ZM20.1795 9.16926C20.1607 9.15651 20.1412 9.14318 20.1217 9.13105C20.143 9.14318 20.1625 9.15651 20.1814 9.16926H20.1795ZM20.0725 9.10192C20.0524 9.09039 20.0317 9.07948 20.0117 9.06853C20.0336 9.07948 20.0543 9.08918 20.0743 9.10192H20.0725ZM19.842 8.99271C19.8189 8.98423 19.7952 8.97695 19.772 8.96968C19.7945 8.97938 19.8207 8.98665 19.8438 8.99514L19.842 8.99271ZM19.7203 8.95388C19.6954 8.9472 19.6699 8.94176 19.6443 8.93629C19.6729 8.94419 19.696 8.94966 19.721 8.95631L19.7203 8.95388ZM19.5938 8.92538C19.5652 8.92053 19.5361 8.91689 19.5069 8.91325C19.5367 8.91932 19.5659 8.92295 19.5944 8.9278L19.5938 8.92538ZM3.27004 13.9607C3.25301 13.9274 3.23841 13.8934 3.22382 13.8594C3.23902 13.8952 3.25179 13.9292 3.27065 13.9626L3.27004 13.9607ZM3.33086 14.07C3.31869 14.0499 3.30835 14.0293 3.2968 14.0093C3.30896 14.0311 3.3193 14.0518 3.33146 14.0718L3.33086 14.07ZM16.8375 15.5539L16.2014 14.7652V14.7622C16.0771 14.61 15.9239 14.4837 15.7507 14.3906C15.5774 14.2975 15.3874 14.2394 15.1916 14.2196C14.9959 14.1999 14.7981 14.2188 14.6096 14.2753C14.4211 14.3319 14.2457 14.425 14.0934 14.5492C13.7845 14.7998 13.5876 15.1623 13.546 15.5573C13.5044 15.9523 13.6214 16.3477 13.8714 16.6568L14.5179 17.4546C13.6924 17.8352 12.7911 18.0235 11.8819 18.0054C10.9727 17.9873 10.0796 17.7632 9.27006 17.35C8.4605 16.9369 7.75574 16.3455 7.20906 15.6207C6.66237 14.8958 6.2881 14.0564 6.11454 13.166C5.77959 11.6139 6.07649 9.99263 6.9399 8.65887C7.80331 7.3251 9.16253 6.3881 10.7185 6.05399C12.2745 5.71988 13.8998 6.01603 15.2369 6.87731C16.574 7.73855 17.5134 9.09439 17.8483 10.6465C17.8483 10.6465 17.8483 10.641 17.8483 10.638C17.8556 10.6853 17.8648 10.7321 17.8763 10.7775C18.0478 11.6014 18.0441 12.4519 17.8655 13.2742C17.6868 14.0965 17.3373 14.8723 16.8393 15.5515L16.8375 15.5539ZM17.8307 10.5149C17.8307 10.5252 17.8307 10.5355 17.8307 10.5464C17.8331 10.5355 17.8319 10.5252 17.8313 10.5149H17.8307Z"
    fill="currentColor" />
</svg>

