<svg width="24" height="24" viewBox="0 0 24 24" fill="none" xmlns="http://www.w3.org/2000/svg">
  <path fill-rule="evenodd" clip-rule="evenodd"
    d="M12.5 21.5C19.0584 21.5 22 18.5584 22 12C22 5.44162 19.0584 2.5 12.5 2.5C5.94162 2.5 3 5.44162 3 12C3 18.5584 5.94162 21.5 12.5 21.5ZM13.3567 6.52847H10.7138L10.2502 7.93044H11.7181V10.8836H13.3567V6.52847ZM15.5134 14.4577C15.5134 16.1223 14.164 17.4717 12.4994 17.4717C10.8348 17.4717 9.48532 16.1223 9.48532 14.4577C9.48532 12.7931 10.8348 11.4437 12.4994 11.4437C14.164 11.4437 15.5134 12.7931 15.5134 14.4577ZM14.1451 14.4577C14.1451 15.3666 13.4083 16.1034 12.4993 16.1034C11.5905 16.1034 10.8536 15.3666 10.8536 14.4577C10.8536 13.5488 11.5905 12.812 12.4993 12.812C13.4083 12.812 14.1451 13.5488 14.1451 14.4577Z"
    fill="currentColor" />
</svg>

