<svg width="24" height="24" viewBox="0 0 24 24" fill="none" xmlns="http://www.w3.org/2000/svg">
  <path
    d="M16.4013 10.111C16.8447 10.3099 17.353 10.0624 17.4861 9.56331C17.684 8.82015 17.8228 8.12066 17.9031 7.46554C18.0201 6.54283 18.031 5.72549 17.9366 5.01353C17.8453 4.29532 17.657 3.69705 17.371 3.2194C17.1038 2.75858 16.7103 2.39881 16.2451 2.18993C15.517 1.86272 14.7163 1.95839 13.8429 2.47624C12.9696 2.9941 12.0859 3.91126 11.1907 5.22774C10.2988 6.53798 9.45947 8.22118 8.67287 10.278C7.88949 12.3287 7.38309 14.1616 7.15431 15.7769C6.92553 17.3921 6.95124 18.7176 7.23079 19.7533C7.51034 20.7884 8.01674 21.4712 8.75063 21.8005C9.24147 22.0233 9.78769 22.0607 10.3007 21.9066C10.8392 21.7478 11.3758 21.4359 11.9105 20.9693C12.4477 20.4979 12.9625 19.9059 13.4541 19.1946C13.7851 18.7183 14.0968 18.2039 14.3872 17.65C14.6237 17.2001 14.4303 16.6358 13.9907 16.432C13.591 16.2469 13.1328 16.4299 12.8982 16.8265C12.7556 17.0656 12.6097 17.2847 12.46 17.4816C12.174 17.8629 11.8861 18.163 11.5956 18.3821C11.3077 18.6026 11.0237 18.7405 10.7441 18.7974C10.4697 18.8487 10.2075 18.8182 9.95751 18.7059C9.50638 18.5034 9.20112 18.0715 9.04239 17.4109C8.88944 16.7453 8.9023 15.8698 9.08095 14.7855C9.26539 13.6958 9.63555 12.4209 10.1946 10.9609C10.7428 9.52518 11.3064 8.35498 11.8848 7.45029C12.4657 6.53867 13.0293 5.90366 13.5775 5.54594C14.1276 5.18129 14.6295 5.10088 15.0839 5.30469C15.3393 5.41939 15.556 5.61587 15.7047 5.86761C15.8679 6.12272 15.9778 6.44508 16.033 6.83399C16.0883 7.22221 16.089 7.66728 16.035 8.16642C16.0073 8.42916 15.9624 8.70507 15.9 8.99485C15.8017 9.4517 16.0022 9.93212 16.4013 10.111Z"
    fill="currentColor" />
  <path
    d="M14.8398 12.3449C14.7544 12.4376 14.6867 12.5476 14.6408 12.6686C14.5472 12.9131 14.547 13.1877 14.6405 13.4323C14.7339 13.6769 14.9133 13.8717 15.1395 13.974L15.1845 13.9948C15.2965 14.045 15.4166 14.0709 15.5378 14.0708C15.6591 14.0708 15.7792 14.0449 15.8912 13.9947C16.0032 13.9444 16.1048 13.8708 16.1903 13.778C16.2758 13.6852 16.3435 13.5752 16.3894 13.4541C16.4831 13.2095 16.4831 12.9348 16.3895 12.6902C16.2959 12.4456 16.1164 12.2509 15.8901 12.1487L15.8451 12.1279C15.7332 12.0778 15.6131 12.052 15.4919 12.0521C15.3707 12.0522 15.2507 12.0781 15.1388 12.1283C15.0269 12.1785 14.9253 12.2521 14.8398 12.3449Z"
    fill="currentColor" />
</svg>

