<svg width="24" height="24" viewBox="0 0 24 24" fill="none" xmlns="http://www.w3.org/2000/svg">
  <path fill-rule="evenodd" clip-rule="evenodd"
    d="M19.0364 17.5999C18.17 18.5913 17.2065 19.0992 16.5506 19.3532C14.7206 20.0496 12.8664 20.025 11.0526 19.2713C9.19838 18.5011 7.53846 16.9035 6.72874 15.1092C6.36437 14.3063 6.17004 13.4624 6.14575 12.6022C6.13765 12.4219 6.13765 12.2171 6.13765 12.1761V11.9058C6.16194 10.6768 6.64777 9.48885 7.48988 8.57123C7.87045 8.16158 8.30769 7.84206 8.80972 7.62085C9.30364 7.39964 9.84615 7.28493 10.4291 7.26855C10.2267 7.43241 10.0405 7.60446 9.86235 7.80109C8.8502 8.89895 8.2915 10.4065 8.2915 12.0533C8.2915 13.7 8.8502 15.2076 9.86235 16.3054C10.4453 16.9363 11.1417 17.4033 11.9352 17.6818C12.4939 17.8785 13.1012 17.9768 13.7328 17.9768C14.7935 17.9768 16.3239 17.69 17.5789 16.3136C18.0081 15.8466 18.3563 15.2977 18.6154 14.6914H20.6883C20.332 15.7811 19.7733 16.7806 19.0364 17.5999ZM5.22267 17.5999C3.87854 16.1497 3.1336 14.1752 3.1336 12.0369C3.1336 9.8985 3.87854 7.9076 5.22267 6.44106C6.583 4.95812 8.46964 4.14702 10.5182 4.14702C11.0283 4.14702 11.5385 4.19618 12.0243 4.29449C14.6154 4.82704 16.6559 6.75239 17.4818 9.39873H15.4089C15.1498 8.79244 14.8016 8.25171 14.3725 7.77651C13.7976 7.14565 13.1093 6.68685 12.3239 6.40828C11.7652 6.21165 11.1579 6.11334 10.5263 6.11334C9.74899 6.11334 9.02024 6.26081 8.34818 6.56395C7.7085 6.85071 7.1417 7.26036 6.65587 7.78471C6.53441 7.91579 6.42105 8.04688 6.31579 8.18616C5.63563 8.94811 5.19838 9.95585 5.05263 11.2012C5.02024 11.4224 5.00405 11.6436 5.00405 11.8648V12.0369V12.0942V12.127V12.1434C5.00405 12.2827 5.00405 12.4219 5.01215 12.553V12.6104C5.03644 13.6263 5.26316 14.6259 5.69231 15.568C6.46154 17.2722 7.89474 18.8125 9.56275 19.7874C7.87854 19.5908 6.36437 18.8289 5.22267 17.5999ZM18.3887 5.81839C19.4899 6.75239 20.251 7.98134 20.6235 9.40692H18.6559C18.0567 7.18662 16.7206 5.37597 14.9312 4.25353C16.2267 4.45016 17.4089 4.9827 18.3887 5.81839ZM14.3644 16.2972C14.7935 15.8302 15.1417 15.2813 15.4008 14.675H17.3441C17.1741 14.9863 16.9717 15.2649 16.7368 15.5189C15.7895 16.5512 14.6397 16.797 13.8138 16.8134C14.0081 16.6659 14.1943 16.4857 14.3644 16.2972ZM21.9919 13.5362H14.6154L14.4777 13.9213C14.2591 14.5357 13.9433 15.0765 13.5304 15.5271C13.1174 15.9777 12.6397 16.3136 12.0972 16.5266C11.5547 16.3054 11.0769 15.9695 10.6721 15.5271C9.85425 14.6422 9.40891 13.4051 9.40891 12.0533C9.40891 10.7014 9.85425 9.47246 10.6721 8.57943C11.0526 8.16978 11.4899 7.85025 11.9919 7.62904C12.0324 7.61265 12.081 7.58807 12.1215 7.57169C12.6559 7.7929 13.1255 8.12062 13.5304 8.56304C13.9433 9.01366 14.2591 9.55439 14.4777 10.1689L14.6154 10.5539H22C22 8.30086 20.583 6.17888 19.1255 4.94174C17.6275 3.67183 15.7571 3.00819 13.7166 3.00819C13.1822 3.00819 12.6559 3.05735 12.1377 3.15567C11.6113 3.05735 11.0688 3 10.5182 3C8.15385 3 5.97571 3.94219 4.39676 5.66272C2.8502 7.34229 2 9.60355 2 12.0369C2 14.4702 2.8502 16.7233 4.39676 18.3782C5.96761 20.066 8.13765 21 10.5101 21C11.0526 21 11.8462 21 12.4372 20.8689C12.9231 20.959 13.4089 21 13.8947 21C14.915 21 15.9271 20.8034 16.9474 20.4183C17.7247 20.1234 18.8583 19.5253 19.8704 18.3619L19.8785 18.3537C20.8988 17.2312 21.8704 15.5599 21.9919 13.5362Z"
    fill="currentColor" />
</svg>

