<svg width="24" height="24" viewBox="0 0 24 24" fill="none" xmlns="http://www.w3.org/2000/svg">
  <path fill-rule="evenodd" clip-rule="evenodd"
    d="M9.18698 9.2252C10.7611 9.2252 12.0305 10.4648 12.0305 12.0019C12.0305 13.5291 10.7509 14.7785 9.18698 14.7785C7.61291 14.7785 6.34349 13.5389 6.34349 12.0019C6.34349 10.4648 7.61291 9.2252 9.18698 9.2252ZM14.8131 14.7785H20.4797V20.3319H14.8232H14.7927C11.9289 20.312 9.57288 18.2493 9.18698 15.5619V20.3319H3.5V14.7785H9.18698H14.8131ZM14.8131 14.7785V9.2252H9.18698H9.15651H3.5V3.67188H9.15651H9.18698H14.8435C17.9714 3.69171 20.5 6.17087 20.5 9.2252C20.5 12.2895 17.951 14.7785 14.8131 14.7785Z"
    fill="currentColor" />
</svg>

